<?xml version="1.0" encoding="UTF-8" standalone="no"?>
<!-- Created with Inkscape (http://www.inkscape.org/) -->

<svg
   inkscape:version="1.2.2 (b0a8486541, 2022-12-01)"
   sodipodi:docname="qr-code.svg"
   id="svg5"
   version="1.1"
   viewBox="0 0 12 12"
   height="12mm"
   width="12mm"
   xmlns:inkscape="http://www.inkscape.org/namespaces/inkscape"
   xmlns:sodipodi="http://sodipodi.sourceforge.net/DTD/sodipodi-0.dtd"
   xmlns="http://www.w3.org/2000/svg"
   xmlns:svg="http://www.w3.org/2000/svg">
  <sodipodi:namedview
     id="namedview7"
     pagecolor="#ffffff"
     bordercolor="#666666"
     borderopacity="1.0"
     inkscape:showpageshadow="2"
     inkscape:pageopacity="0.0"
     inkscape:pagecheckerboard="0"
     inkscape:deskcolor="#d1d1d1"
     inkscape:document-units="mm"
     showgrid="false"
     inkscape:zoom="7.319248"
     inkscape:cx="-15.233805"
     inkscape:cy="103.56255"
     inkscape:window-width="3840"
     inkscape:window-height="2105"
     inkscape:window-x="3840"
     inkscape:window-y="32"
     inkscape:window-maximized="1"
     inkscape:current-layer="layer1" />
  <defs
     id="defs2" />
  <g
     inkscape:label="Layer 1"
     inkscape:groupmode="layer"
     id="layer1"
     transform="translate(-82.278621,-138.94706)">
    <g
       inkscape:label="QR Code: https://github.com/htlweiz/dac-shield"
       transform="matrix(0.16216216,0,0,0.16216216,82.278621,138.94706)"
       id="g326">
      <rect
         x="0"
         y="0"
         width="74"
         height="74"
         style="fill:#ffffff;stroke:none"
         id="rect320" />
      <g
         style="fill:#000000;stroke:none"
         id="g324">
        <path
           d="M 63.8,66 H 62.2 C 62.089543,66 62,65.910457 62,65.8 V 62 h 2 v 3.8 c 0,0.110457 -0.08954,0.2 -0.2,0.2 z m -10,0 H 44.2 C 44.089543,66 44,65.910457 44,65.8 V 64.2 C 44,64.089543 44.08954,64 44.2,64 h 3.6 C 47.910457,64 48,63.91046 48,63.8 V 60 h 2 v 1.8 c 0,0.110457 0.08954,0.2 0.2,0.2 h 1.6 c 0.110457,0 0.2,0.08954 0.2,0.2 v 1.6 c 0,0.110457 0.08954,0.2 0.2,0.2 H 54 v 1.8 c 0,0.110457 -0.08954,0.2 -0.2,0.2 z m -16,0 H 36.2 C 36.089543,66 36,65.910457 36,65.8 V 62 h 1.8 c 0.110457,0 0.2,0.08954 0.2,0.2 v 3.6 c 0,0.110457 -0.08954,0.2 -0.2,0.2 z m -4,0 H 32.2 C 32.089543,66 32,65.910457 32,65.8 V 64 h 1.8 c 0.110457,0 0.2,0.08954 0.2,0.2 v 1.6 c 0,0.110457 -0.08954,0.2 -0.2,0.2 z m -4,0 H 24.2 C 24.089543,66 24,65.910457 24,65.8 V 58.2 C 24,58.089543 24.089543,58 24.2,58 H 26 v 1.8 c 0,0.110457 0.08954,0.2 0.2,0.2 h 1.6 C 27.910457,60 28,59.91046 28,59.8 V 58 h 3.8 C 31.910457,58 32,57.91046 32,57.8 V 56.2 C 32,56.089543 32.08954,56 32.2,56 h 1.6 c 0.110457,0 0.2,0.08954 0.2,0.2 V 60 H 32.2 C 32.089543,60 32,60.089543 32,60.2 V 64 H 30 V 62.2 C 30,62.089543 29.910457,62 29.8,62 H 28.2 C 28.089543,62 28,62.08954 28,62.2 v 1.6 c 0,0.110457 0.08954,0.2 0.2,0.2 H 30 v 1.8 c 0,0.110457 -0.08954,0.2 -0.2,0.2 z m -8,0 H 8.2 C 8.089543,66 8,65.910457 8,65.8 V 52.2 C 8,52.089543 8.089543,52 8.2,52 h 13.6 c 0.110457,0 0.2,0.08954 0.2,0.2 v 13.6 c 0,0.110457 -0.08954,0.2 -0.2,0.2 z m 38,-2 H 58.2 C 58.089543,64 58,63.910457 58,63.8 V 62.2 C 58,62.089543 58.089543,62 58.2,62 H 60 v 1.8 c 0,0.110457 -0.08954,0.2 -0.2,0.2 z m -4,0 H 54 V 58.2 C 54,58.089543 53.910457,58 53.8,58 H 52.2 C 52.089543,58 52,58.08954 52,58.2 v 1.6 C 52,59.910457 51.91046,60 51.8,60 H 50 V 58.2 C 50,58.089543 49.910457,58 49.8,58 H 48 V 54.2 C 48,54.089543 47.910457,54 47.8,54 H 40.2 C 40.089543,54 40,53.910457 40,53.8 V 50.2 C 40,50.089543 40.089543,50 40.2,50 H 42 v 1.8 c 0,0.110457 0.08954,0.2 0.2,0.2 h 1.6 C 43.910457,52 44,51.91046 44,51.8 V 50.2 C 44,50.089543 43.910457,50 43.8,50 H 42 V 46.2 C 42,46.089543 41.910457,46 41.8,46 H 40.2 C 40.089543,46 40,46.08954 40,46.2 v 1.6 C 40,47.910457 39.91046,48 39.8,48 H 38.2 C 38.089543,48 38,47.910457 38,47.8 V 38 h 2 v 5.8 c 0,0.110457 0.08954,0.2 0.2,0.2 h 1.6 C 41.910457,44 42,43.91046 42,43.8 V 42.2 C 42,42.089543 42.08954,42 42.2,42 h 1.6 c 0.110457,0 0.2,0.08954 0.2,0.2 v 3.6 c 0,0.110457 0.08954,0.2 0.2,0.2 h 1.6 c 0.110457,0 0.2,0.08954 0.2,0.2 v 5.6 c 0,0.110457 0.08954,0.2 0.2,0.2 h 1.6 C 47.910457,52 48,51.91046 48,51.8 V 48.2 C 48,48.089543 48.08954,48 48.2,48 h 3.6 C 51.910457,48 52,47.91046 52,47.8 V 44.2 C 52,44.089543 52.08954,44 52.2,44 h 1.6 C 53.910457,44 54,43.91046 54,43.8 V 42.2 C 54,42.089543 54.089543,42 54.2,42 H 56 v 1.8 c 0,0.110457 0.08954,0.2 0.2,0.2 H 58 v 3.8 c 0,0.110457 0.08954,0.2 0.2,0.2 h 1.6 C 59.910457,48 60,47.91046 60,47.8 V 44.2 C 60,44.089543 59.910457,44 59.8,44 H 58 V 42.2 C 58,42.089543 57.910457,42 57.8,42 H 56 V 40.2 C 56,40.089543 55.910457,40 55.8,40 H 50.2 C 50.089543,40 50,40.08954 50,40.2 v 1.6 C 50,41.910457 49.91046,42 49.8,42 H 46.2 C 46.089543,42 46,41.910457 46,41.8 V 40.2 C 46,40.089543 45.910457,40 45.8,40 H 44.2 C 44.089543,40 44,39.910457 44,39.8 V 38 h 1.8 C 45.910457,38 46,37.91046 46,37.8 V 36.2 C 46,36.089543 45.910457,36 45.8,36 H 44 v -2 h 1.8 C 45.910457,34 46,33.91046 46,33.8 V 32.2 C 46,32.089543 45.910457,32 45.8,32 H 44 v -2 h 4 v 5.8 c 0,0.110457 0.08954,0.2 0.2,0.2 h 1.6 c 0.110457,0 0.2,0.08954 0.2,0.2 v 1.6 c 0,0.110457 0.08954,0.2 0.2,0.2 h 1.6 C 51.910457,38 52,37.91046 52,37.8 V 34.2 C 52,34.089543 52.08954,34 52.2,34 h 1.6 c 0.110457,0 0.2,0.08954 0.2,0.2 v 3.6 c 0,0.110457 0.08954,0.2 0.2,0.2 h 3.6 c 0.110457,0 0.2,0.08954 0.2,0.2 v 1.6 c 0,0.110457 0.08954,0.2 0.2,0.2 h 1.6 c 0.110457,0 0.2,0.08954 0.2,0.2 v 1.6 c 0,0.110457 0.08954,0.2 0.2,0.2 h 1.6 C 61.910457,42 62,41.91046 62,41.8 V 38.2 C 62,38.089543 61.910457,38 61.8,38 H 60.2 C 60.089543,38 60,37.910457 60,37.8 V 34.2 C 60,34.089543 59.910457,34 59.8,34 H 58.2 C 58.089543,34 58,33.910457 58,33.8 V 32 h 3.8 c 0.110457,0 0.2,0.08954 0.2,0.2 v 1.6 c 0,0.110457 0.08954,0.2 0.2,0.2 h 3.6 c 0.110457,0 0.2,0.08954 0.2,0.2 v 3.6 C 66,37.910457 65.91046,38 65.8,38 H 64.2 C 64.089543,38 64,38.08954 64,38.2 v 5.6 C 64,43.910457 63.91046,44 63.8,44 H 62.2 C 62.089543,44 62,44.08954 62,44.2 v 5.6 c 0,0.110457 0.08954,0.2 0.2,0.2 h 3.6 c 0.110457,0 0.2,0.08954 0.2,0.2 v 1.6 C 66,51.910457 65.91046,52 65.8,52 H 64.2 C 64.089543,52 64,52.08954 64,52.2 v 1.6 c 0,0.110457 0.08954,0.2 0.2,0.2 h 1.6 c 0.110457,0 0.2,0.08954 0.2,0.2 v 1.6 C 66,55.910457 65.91046,56 65.8,56 H 62 V 52.2 C 62,52.089543 61.910457,52 61.8,52 H 60.2 C 60.089543,52 60,52.089543 60,52.2 V 56 H 58.2 C 58.089543,56 58,56.08954 58,56.2 v 1.6 c 0,0.110457 0.08954,0.2 0.2,0.2 H 60 v 2 H 56.2 C 56.089543,60 56,60.08954 56,60.2 v 3.6 C 56,63.910457 55.91046,64 55.8,64 Z M 20,63.8 V 54.2 C 20,54.089543 19.910457,54 19.8,54 H 10.2 C 10.089543,54 10,54.08954 10,54.2 v 9.6 c 0,0.110457 0.08954,0.2 0.2,0.2 h 9.6 C 19.910457,64 20,63.91046 20,63.8 Z M 65.8,62 H 64 V 58.2 C 64,58.089543 64.08954,58 64.2,58 h 1.6 c 0.110457,0 0.2,0.08954 0.2,0.2 v 3.6 c 0,0.110457 -0.08954,0.2 -0.2,0.2 z m -4,0 H 60 v -2 h 1.8 c 0.110457,0 0.2,0.08954 0.2,0.2 V 62 Z m -26,0 H 34.2 C 34.089543,62 34,61.910457 34,61.8 V 60 h 2 v 2 z m -18,0 H 12.2 C 12.089543,62 12,61.910457 12,61.8 V 56.2 C 12,56.089543 12.08954,56 12.2,56 h 5.6 c 0.110457,0 0.2,0.08954 0.2,0.2 v 5.6 c 0,0.110457 -0.08954,0.2 -0.2,0.2 z m 30,-2 H 46.2 C 46.089543,60 46,59.910457 46,59.8 V 58.2 C 46,58.089543 46.089543,58 46.2,58 H 48 v 2 z m -4,0 H 42.2 C 42.089543,60 42,59.910457 42,59.8 V 56.2 C 42,56.089543 42.08954,56 42.2,56 h 1.6 c 0.110457,0 0.2,0.08954 0.2,0.2 v 3.6 c 0,0.110457 -0.08954,0.2 -0.2,0.2 z m -4,0 H 36 V 56.2 C 36,56.089543 36.08954,56 36.2,56 h 1.6 c 0.110457,0 0.2,0.08954 0.2,0.2 v 1.6 c 0,0.110457 0.08954,0.2 0.2,0.2 h 1.6 c 0.110457,0 0.2,0.08954 0.2,0.2 v 1.6 c 0,0.110457 -0.08954,0.2 -0.2,0.2 z m 22,-2 H 60 v -2 h 2 v 1.8 c 0,0.110457 -0.08954,0.2 -0.2,0.2 z m -34,0 H 26 V 52.2 C 26,52.089543 25.910457,52 25.8,52 H 24.2 C 24.089543,52 24,51.910457 24,51.8 V 50 h 1.8 C 25.910457,50 26,49.91046 26,49.8 V 48.2 C 26,48.089543 25.910457,48 25.8,48 H 24.2 C 24.089543,48 24,48.089543 24,48.2 V 50 H 20.2 C 20.089543,50 20,49.910457 20,49.8 V 48 h 1.8 C 21.910457,48 22,47.91046 22,47.8 V 46 h 1.8 C 23.910457,46 24,45.91046 24,45.8 V 44.2 C 24,44.089543 23.910457,44 23.8,44 H 22 V 42.2 C 22,42.089543 21.910457,42 21.8,42 H 18.2 C 18.089543,42 18,41.910457 18,41.8 V 40.2 C 18,40.089543 17.910457,40 17.8,40 H 10.2 C 10.089543,40 10,40.089543 10,40.2 V 42 H 8.2 C 8.089543,42 8,41.910457 8,41.8 V 36.2 C 8,36.089543 8.089543,36 8.2,36 H 10 v 1.8 c 0,0.110457 0.08954,0.2 0.2,0.2 H 20 v 1.8 c 0,0.110457 0.08954,0.2 0.2,0.2 h 1.6 C 21.910457,40 22,39.91046 22,39.8 V 38 h 2 v 3.8 c 0,0.110457 0.08954,0.2 0.2,0.2 h 1.6 c 0.110457,0 0.2,0.08954 0.2,0.2 v 1.6 c 0,0.110457 0.08954,0.2 0.2,0.2 h 5.6 C 31.910457,44 32,43.91046 32,43.8 V 42 h 3.8 c 0.110457,0 0.2,0.08954 0.2,0.2 v 1.6 C 36,43.910457 35.91046,44 35.8,44 H 34.2 C 34.089543,44 34,44.08954 34,44.2 v 3.6 c 0,0.110457 0.08954,0.2 0.2,0.2 h 1.6 c 0.110457,0 0.2,0.08954 0.2,0.2 v 1.6 c 0,0.110457 0.08954,0.2 0.2,0.2 h 1.6 c 0.110457,0 0.2,0.08954 0.2,0.2 v 1.6 C 38,51.910457 37.91046,52 37.8,52 H 36.2 C 36.089543,52 36,52.08954 36,52.2 v 1.6 C 36,53.910457 35.91046,54 35.8,54 H 30.2 C 30.089543,54 30,53.910457 30,53.8 V 52 h 1.8 C 31.910457,52 32,51.91046 32,51.8 V 50.2 C 32,50.089543 31.910457,50 31.8,50 H 30.2 C 30.089543,50 30,50.089543 30,50.2 V 52 H 28.2 C 28.089543,52 28,52.089543 28,52.2 V 58 Z M 56,55.8 V 50.2 C 56,50.089543 55.910457,50 55.8,50 H 50.2 C 50.089543,50 50,50.08954 50,50.2 v 5.6 c 0,0.110457 0.08954,0.2 0.2,0.2 h 5.6 C 55.910457,56 56,55.91046 56,55.8 Z M 53.8,54 H 52.2 C 52.089543,54 52,53.910457 52,53.8 V 52.2 C 52,52.089543 52.08954,52 52.2,52 h 1.6 c 0.110457,0 0.2,0.08954 0.2,0.2 v 1.6 c 0,0.110457 -0.08954,0.2 -0.2,0.2 z m -38,-4 H 14.2 C 14.089543,50 14,49.910457 14,49.8 V 48.2 C 14,48.089543 13.910457,48 13.8,48 H 12 v -4 h 10 v 2 H 20.2 C 20.089543,46 20,46.089543 20,46.2 V 48 H 18.2 C 18.089543,48 18,47.910457 18,47.8 V 46.2 C 18,46.089543 17.910457,46 17.8,46 H 16.2 C 16.089543,46 16,46.08954 16,46.2 v 3.6 c 0,0.110457 -0.08954,0.2 -0.2,0.2 z m -4,0 H 10.2 C 10.089543,50 10,49.910457 10,49.8 V 48.2 C 10,48.089543 10.089543,48 10.2,48 H 12 v 1.8 C 12,49.910457 11.91046,50 11.8,50 Z M 32,47.8 V 46.2 C 32,46.089543 31.910457,46 31.8,46 H 30.2 C 30.089543,46 30,46.08954 30,46.2 v 1.6 c 0,0.110457 0.08954,0.2 0.2,0.2 h 1.6 C 31.910457,48 32,47.91046 32,47.8 Z M 49.8,46 H 48.2 C 48.089543,46 48,45.910457 48,45.8 V 44.2 C 48,44.089543 48.08954,44 48.2,44 h 1.6 c 0.110457,0 0.2,0.08954 0.2,0.2 v 1.6 c 0,0.110457 -0.08954,0.2 -0.2,0.2 z m -40,0 H 8.2 C 8.089543,46 8,45.910457 8,45.8 V 44.2 C 8,44.089543 8.089543,44 8.2,44 H 10 v 1.8 C 10,45.910457 9.910457,46 9.8,46 Z m 2,-2 H 10 v -2 h 1.8 c 0.110457,0 0.2,0.08954 0.2,0.2 V 44 Z m 20,-2 H 28.2 C 28.089543,42 28,41.910457 28,41.8 V 40.2 C 28,40.089543 28.089543,40 28.2,40 H 32 v 2 z m 4,-2 H 32 v -4 h 2 v 1.8 c 0,0.110457 0.08954,0.2 0.2,0.2 H 36 v 1.8 c 0,0.110457 -0.08954,0.2 -0.2,0.2 z m 8,-2 H 40 V 36.2 C 40,36.089543 39.910457,36 39.8,36 H 38 V 34.2 C 38,34.089543 38.089543,34 38.2,34 H 42 v 1.8 c 0,0.110457 0.08954,0.2 0.2,0.2 H 44 v 2 z m -6,0 H 36 v -2 h 2 v 2 z m -8,0 H 28.2 C 28.089543,38 28,37.910457 28,37.8 V 34 h 1.8 C 29.910457,34 30,33.91046 30,33.8 V 30.2 C 30,30.089543 30.08954,30 30.2,30 h 5.6 C 35.910457,30 36,29.91046 36,29.8 V 28.2 C 36,28.089543 36.08954,28 36.2,28 h 1.6 c 0.110457,0 0.2,0.08954 0.2,0.2 v 3.6 C 38,31.910457 37.91046,32 37.8,32 H 32.2 C 32.089543,32 32,32.089543 32,32.2 V 36 H 30.2 C 30.089543,36 30,36.08954 30,36.2 v 1.6 c 0,0.110457 -0.08954,0.2 -0.2,0.2 z m -4,0 H 24 V 36.2 C 24,36.089543 24.08954,36 24.2,36 h 1.6 c 0.110457,0 0.2,0.08954 0.2,0.2 v 1.6 c 0,0.110457 -0.08954,0.2 -0.2,0.2 z m -4,0 H 20 v -2 h 1.8 c 0.110457,0 0.2,0.08954 0.2,0.2 V 38 Z m 14,-2 H 34 V 34.2 C 34,34.089543 34.08954,34 34.2,34 h 1.6 c 0.110457,0 0.2,0.08954 0.2,0.2 V 36 Z m -16,0 H 18.2 C 18.089543,36 18,35.910457 18,35.8 V 34.2 C 18,34.089543 18.089543,34 18.2,34 H 20 v 2 z m -6,0 H 10 v -2 h 4 v 1.8 c 0,0.110457 -0.08954,0.2 -0.2,0.2 z m 30,-2 H 42 v -2 h 2 v 2 z m -16,0 H 20 v -2 h 1.8 C 21.910457,32 22,31.91046 22,31.8 V 30 h 3.8 c 0.110457,0 0.2,0.08954 0.2,0.2 v 1.6 c 0,0.110457 0.08954,0.2 0.2,0.2 h 1.6 c 0.110457,0 0.2,0.08954 0.2,0.2 V 34 Z m -12,0 H 14 v -2 h 1.8 c 0.110457,0 0.2,0.08954 0.2,0.2 v 1.6 c 0,0.110457 -0.08954,0.2 -0.2,0.2 z m -6,0 H 8.2 C 8.089543,34 8,33.910457 8,33.8 V 32.2 C 8,32.089543 8.089543,32 8.2,32 H 10 v 2 z m 56,-2 H 64.2 C 64.089543,32 64,31.910457 64,31.8 V 30 h 1.8 c 0.110457,0 0.2,0.08954 0.2,0.2 v 1.6 c 0,0.110457 -0.08954,0.2 -0.2,0.2 z m -8,0 H 56.2 C 56.089543,32 56,31.910457 56,31.8 V 30 h 1.8 c 0.110457,0 0.2,0.08954 0.2,0.2 V 32 Z m -4,0 H 50.2 C 50.089543,32 50,31.910457 50,31.8 V 30.2 C 50,30.089543 49.910457,30 49.8,30 H 48 V 28.2 C 48,28.089543 47.910457,28 47.8,28 H 44.2 C 44.089543,28 44,28.089543 44,28.2 V 30 H 42.2 C 42.089543,30 42,30.089543 42,30.2 V 32 H 40.2 C 40.089543,32 40,31.910457 40,31.8 V 20.2 C 40,20.089543 40.08954,20 40.2,20 h 1.6 c 0.110457,0 0.2,0.08954 0.2,0.2 v 1.6 c 0,0.110457 0.08954,0.2 0.2,0.2 h 1.6 C 43.910457,22 44,21.91046 44,21.8 V 18 h 1.8 C 45.910457,18 46,17.91046 46,17.8 V 14.2 C 46,14.089543 45.910457,14 45.8,14 H 44 V 10.2 C 44,10.089543 44.089543,10 44.2,10 H 46 v 1.8 c 0,0.110457 0.08954,0.2 0.2,0.2 h 1.6 C 47.910457,12 48,11.91046 48,11.8 V 10.2 C 48,10.089543 47.910457,10 47.8,10 H 46 V 8.2 C 46,8.089543 46.089543,8 46.2,8 h 3.6 C 49.910457,8 50,8.089543 50,8.2 v 5.6 C 50,13.910457 49.91046,14 49.8,14 H 48.2 C 48.089543,14 48,14.089543 48,14.2 V 20 H 46.2 C 46.089543,20 46,20.08954 46,20.2 v 3.6 c 0,0.110457 0.08954,0.2 0.2,0.2 h 5.6 c 0.110457,0 0.2,0.08954 0.2,0.2 V 26 H 50.2 C 50.089543,26 50,26.08954 50,26.2 v 1.6 c 0,0.110457 0.08954,0.2 0.2,0.2 H 52 v 1.8 c 0,0.110457 0.08954,0.2 0.2,0.2 H 54 v 1.8 c 0,0.110457 -0.08954,0.2 -0.2,0.2 z m -34,0 H 18.2 C 18.089543,32 18,31.910457 18,31.8 V 30.2 C 18,30.089543 18.089543,30 18.2,30 H 20 v 2 z m -6,0 H 10 V 28.2 C 10,28.089543 9.910457,28 9.8,28 H 8.2 C 8.089543,28 8,27.910457 8,27.8 V 24.2 C 8,24.089543 8.089543,24 8.2,24 h 7.6 c 0.110457,0 0.2,0.08954 0.2,0.2 V 26 H 12.2 C 12.089543,26 12,26.08954 12,26.2 v 3.6 c 0,0.110457 0.08954,0.2 0.2,0.2 H 14 v 2 z m 50,-2 H 60.2 C 60.089543,30 60,29.910457 60,29.8 V 28.2 C 60,28.089543 60.089543,28 60.2,28 H 64 v 2 z m -8,0 H 54 V 28.2 C 54,28.089543 53.910457,28 53.8,28 H 52 v -2 h 3.8 C 55.910457,26 56,25.91046 56,25.8 V 24.2 C 56,24.089543 56.08954,24 56.2,24 h 5.6 c 0.110457,0 0.2,0.08954 0.2,0.2 v 1.6 C 62,25.910457 61.91046,26 61.8,26 H 58.2 C 58.089543,26 58,26.08954 58,26.2 v 1.6 C 58,27.910457 57.91046,28 57.8,28 H 56.2 C 56.089543,28 56,28.089543 56,28.2 V 30 Z m -34,0 H 20 v -2 h 1.8 c 0.110457,0 0.2,0.08954 0.2,0.2 V 30 Z m -6,0 H 14 V 28.2 C 14,28.089543 14.089543,28 14.2,28 H 16 v 1.8 c 0,0.110457 -0.08954,0.2 -0.2,0.2 z m 50,-2 H 64 V 24.2 C 64,24.089543 64.08954,24 64.2,24 h 1.6 c 0.110457,0 0.2,0.08954 0.2,0.2 v 3.6 c 0,0.110457 -0.08954,0.2 -0.2,0.2 z m -38,0 H 24.2 C 24.089543,28 24,27.910457 24,27.8 V 24.2 C 24,24.089543 24.089543,24 24.2,24 H 26 v 1.8 c 0,0.110457 0.08954,0.2 0.2,0.2 h 1.6 c 0.110457,0 0.2,0.08954 0.2,0.2 v 1.6 c 0,0.110457 -0.08954,0.2 -0.2,0.2 z m -8,0 H 16 v -2 h 4 v 2 z m 18,-2 H 34.2 C 34.089543,26 34,25.910457 34,25.8 V 22 h 1.8 C 35.910457,22 36,21.91046 36,21.8 V 18.2 C 36,18.089543 35.910457,18 35.8,18 H 34 V 16.2 C 34,16.089543 34.08954,16 34.2,16 h 7.6 C 41.910457,16 42,15.91046 42,15.8 V 14.2 C 42,14.089543 42.089543,14 42.2,14 H 44 v 4 H 38.2 C 38.089543,18 38,18.08954 38,18.2 v 7.6 c 0,0.110457 -0.08954,0.2 -0.2,0.2 z m -16,0 H 20 V 24.2 C 20,24.089543 20.08954,24 20.2,24 h 1.6 c 0.110457,0 0.2,0.08954 0.2,0.2 v 1.6 c 0,0.110457 -0.08954,0.2 -0.2,0.2 z m 10,-2 H 30.2 C 30.089543,24 30,23.910457 30,23.8 V 22 h 2 v 1.8 c 0,0.110457 -0.08954,0.2 -0.2,0.2 z m -4,0 H 26 v -2 h 2 v 1.8 c 0,0.110457 -0.08954,0.2 -0.2,0.2 z m 38,-2 H 52.2 C 52.089543,22 52,21.910457 52,21.8 V 8.2 C 52,8.089543 52.089543,8 52.2,8 H 65.8 C 65.910457,8 66,8.089543 66,8.2 v 13.6 c 0,0.110457 -0.08954,0.2 -0.2,0.2 z m -16,0 H 48.2 C 48.089543,22 48,21.910457 48,21.8 V 20 h 1.8 c 0.110457,0 0.2,0.08954 0.2,0.2 v 1.6 c 0,0.110457 -0.08954,0.2 -0.2,0.2 z m -16,0 H 32 v -4 h 2 v 4 z m -4,0 H 28 v -2 h 1.8 c 0.110457,0 0.2,0.08954 0.2,0.2 V 22 Z m -4,0 H 24.2 C 24.089543,22 24,21.910457 24,21.8 V 20.2 C 24,20.089543 24.089543,20 24.2,20 H 26 v 2 z m -4,0 H 8.2 C 8.089543,22 8,21.910457 8,21.8 V 8.2 C 8,8.089543 8.089543,8 8.2,8 H 21.8 C 21.910457,8 22,8.089543 22,8.2 V 21.8 C 22,21.910457 21.91046,22 21.8,22 Z M 64,19.8 V 10.2 C 64,10.089543 63.910457,10 63.8,10 H 54.2 C 54.089543,10 54,10.08954 54,10.2 v 9.6 c 0,0.110457 0.08954,0.2 0.2,0.2 h 9.6 C 63.910457,20 64,19.91046 64,19.8 Z M 27.8,20 H 26 V 18.2 C 26,18.089543 25.910457,18 25.8,18 H 24.2 C 24.089543,18 24,17.910457 24,17.8 V 12.2 C 24,12.089543 24.08954,12 24.2,12 h 1.6 c 0.110457,0 0.2,0.08954 0.2,0.2 v 1.6 c 0,0.110457 0.08954,0.2 0.2,0.2 h 1.6 c 0.110457,0 0.2,0.08954 0.2,0.2 v 1.6 c 0,0.110457 0.08954,0.2 0.2,0.2 h 1.6 C 29.910457,16 30,15.91046 30,15.8 V 12.2 C 30,12.089543 30.08954,12 30.2,12 h 5.6 c 0.110457,0 0.2,0.08954 0.2,0.2 v 1.6 C 36,13.910457 35.91046,14 35.8,14 H 32.2 C 32.089543,14 32,14.089543 32,14.2 V 18 H 28.2 C 28.089543,18 28,18.089543 28,18.2 V 20 Z M 20,19.8 V 10.2 C 20,10.089543 19.910457,10 19.8,10 H 10.2 C 10.089543,10 10,10.08954 10,10.2 v 9.6 c 0,0.110457 0.08954,0.2 0.2,0.2 h 9.6 C 19.910457,20 20,19.91046 20,19.8 Z M 61.8,18 H 56.2 C 56.089543,18 56,17.910457 56,17.8 V 12.2 C 56,12.089543 56.08954,12 56.2,12 h 5.6 c 0.110457,0 0.2,0.08954 0.2,0.2 v 5.6 c 0,0.110457 -0.08954,0.2 -0.2,0.2 z m -44,0 H 12.2 C 12.089543,18 12,17.910457 12,17.8 V 12.2 C 12,12.089543 12.08954,12 12.2,12 h 5.6 c 0.110457,0 0.2,0.08954 0.2,0.2 v 5.6 c 0,0.110457 -0.08954,0.2 -0.2,0.2 z m 24,-8 H 40.2 C 40.089543,10 40,9.910457 40,9.8 V 8.2 C 40,8.089543 40.089543,8 40.2,8 h 1.6 C 41.910457,8 42,8.089543 42,8.2 V 9.8 C 42,9.910457 41.91046,10 41.8,10 Z m -14,0 H 24.2 C 24.089543,10 24,9.910457 24,9.8 V 8.2 C 24,8.089543 24.089543,8 24.2,8 h 3.6 C 27.910457,8 28,8.089543 28,8.2 V 9.8 C 28,9.910457 27.91046,10 27.8,10 Z"
           id="path322" />
      </g>
    </g>
  </g>
</svg>
