M48
; DRILL file {KiCad (6.0.11)} date 2023-02-17T00:37:41 CET
; FORMAT={-:-/ absolute / inch / decimal}
; #@! TF.CreationDate,2023-02-17T00:37:41+01:00
; #@! TF.GenerationSoftware,Kicad,Pcbnew,(6.0.11)
; #@! TF.FileFunction,Plated,1,2,PTH
FMAT,2
INCH
; #@! TA.AperFunction,Plated,PTH,ViaDrill
T1C0.0157
; #@! TA.AperFunction,Plated,PTH,ComponentDrill
T2C0.0315
; #@! TA.AperFunction,Plated,PTH,ComponentDrill
T3C0.0394
%
G90
G05
T1
X4.86Y-3.71
X4.89Y-3.15
X4.89Y-3.35
X4.94Y-3.53
X4.99Y-3.15
X4.99Y-3.35
X5.09Y-3.15
X5.09Y-3.35
X5.19Y-3.15
X5.19Y-3.35
X5.28Y-3.54
X5.29Y-3.15
X5.29Y-3.35
X5.55Y-3.15
X5.65Y-3.15
X5.65Y-4.91
X5.67Y-3.86
X5.71Y-3.49
X5.75Y-3.28
X5.75Y-4.91
X5.77Y-3.54
X5.85Y-3.15
X5.85Y-4.91
X5.95Y-3.15
X5.95Y-3.49
X5.95Y-4.91
X5.97Y-3.25
X6.05Y-4.91
X6.15Y-3.15
X6.15Y-4.91
X6.2Y-3.87
T2
X4.9Y-4.42
X4.9Y-4.52
X5.2Y-4.42
X5.2Y-4.52
X5.5Y-4.42
X5.5Y-4.52
X5.6Y-3.2
X5.6Y-3.6
X5.8Y-4.42
X5.8Y-4.52
X6.05Y-3.2
X6.05Y-3.6
X6.1Y-4.42
X6.1Y-4.52
T3
X4.4402Y-3.1
X4.5402Y-3.1
X4.6402Y-3.1
X4.7Y-4.42
X4.7Y-4.52
X4.7402Y-3.1
X4.8Y-5.0
X4.8402Y-3.1
X4.8507Y-3.8874
X4.8507Y-3.9874
X4.9Y-5.0
X4.9402Y-3.1
X5.0Y-5.0
X5.0047Y-4.42
X5.0047Y-4.52
X5.0274Y-3.8713
X5.0398Y-3.6
X5.0402Y-3.1
X5.0538Y-3.95
X5.1Y-5.0
X5.1398Y-3.6
X5.1402Y-3.1
X5.2Y-5.0
X5.2402Y-3.1
X5.2507Y-3.95
X5.2772Y-4.0287
X5.3Y-5.0
X5.3047Y-4.42
X5.3047Y-4.52
X5.3402Y-3.1
X5.4Y-5.0
X5.4774Y-3.8713
X5.5Y-3.1
X5.5Y-5.0
X5.5038Y-3.95
X5.6Y-3.1
X5.6047Y-4.42
X5.6047Y-4.52
X5.7Y-3.1
X5.7Y-5.0
X5.7007Y-3.95
X5.7272Y-4.0287
X5.8Y-3.1
X5.8Y-5.0
X5.9Y-3.1
X5.9Y-5.0
X5.9047Y-4.42
X5.9047Y-4.52
X5.9274Y-3.8713
X5.9538Y-3.95
X6.0Y-3.1
X6.0Y-5.0
X6.1Y-3.1
X6.1Y-5.0
X6.1507Y-3.95
X6.1772Y-4.0287
X6.2Y-3.1
X6.2Y-5.0
X6.2047Y-4.42
X6.2047Y-4.52
T0
M30
