%TF.GenerationSoftware,KiCad,Pcbnew,(6.0.11)*%
%TF.CreationDate,2023-02-17T00:37:41+01:00*%
%TF.ProjectId,dac-shield,6461632d-7368-4696-956c-642e6b696361,rev.0*%
%TF.SameCoordinates,Original*%
%TF.FileFunction,Copper,L2,Bot*%
%TF.FilePolarity,Positive*%
%FSLAX46Y46*%
G04 Gerber Fmt 4.6, Leading zero omitted, Abs format (unit mm)*
G04 Created by KiCad (PCBNEW (6.0.11)) date 2023-02-17 00:37:41*
%MOMM*%
%LPD*%
G01*
G04 APERTURE LIST*
%TA.AperFunction,ComponentPad*%
%ADD10C,1.400000*%
%TD*%
%TA.AperFunction,ComponentPad*%
%ADD11R,1.700000X1.700000*%
%TD*%
%TA.AperFunction,ComponentPad*%
%ADD12O,1.700000X1.700000*%
%TD*%
%TA.AperFunction,ComponentPad*%
%ADD13R,2.000000X2.000000*%
%TD*%
%TA.AperFunction,ComponentPad*%
%ADD14C,2.000000*%
%TD*%
%TA.AperFunction,ComponentPad*%
%ADD15C,1.600000*%
%TD*%
%TA.AperFunction,ComponentPad*%
%ADD16O,1.600000X1.600000*%
%TD*%
%TA.AperFunction,ComponentPad*%
%ADD17R,1.600000X1.600000*%
%TD*%
%TA.AperFunction,ViaPad*%
%ADD18C,0.800000*%
%TD*%
%TA.AperFunction,Conductor*%
%ADD19C,0.250000*%
%TD*%
G04 APERTURE END LIST*
D10*
%TO.P,TP5,1,1*%
%TO.N,pwm*%
X154940000Y-114808000D03*
%TO.P,TP5,2,2*%
%TO.N,GND*%
X154940000Y-112268000D03*
%TD*%
%TO.P,TP4,2,2*%
%TO.N,GND*%
X147320000Y-112268000D03*
%TO.P,TP4,1,1*%
%TO.N,pwm_filt*%
X147320000Y-114808000D03*
%TD*%
%TO.P,TP3,1,1*%
%TO.N,sb*%
X139700000Y-114808000D03*
%TO.P,TP3,2,2*%
%TO.N,GND*%
X139700000Y-112268000D03*
%TD*%
%TO.P,TP2,1,1*%
%TO.N,sb_filt*%
X132080000Y-114808000D03*
%TO.P,TP2,2,2*%
%TO.N,GND*%
X132080000Y-112268000D03*
%TD*%
%TO.P,TP1,1,1*%
%TO.N,r2r_filt*%
X124460000Y-114808000D03*
%TO.P,TP1,2,2*%
%TO.N,GND*%
X124460000Y-112268000D03*
%TD*%
D11*
%TO.P,J3,1,Pin_1*%
%TO.N,sb*%
X142360000Y-114808000D03*
D12*
%TO.P,J3,2,Pin_2*%
%TO.N,GND*%
X142360000Y-112268000D03*
%TD*%
D13*
%TO.P,C6,1*%
%TO.N,Net-(C5-Pad1)*%
X133367602Y-100330000D03*
X134039746Y-102330000D03*
D14*
%TO.P,C6,2*%
%TO.N,GND*%
X128367602Y-100330000D03*
X127695458Y-98330000D03*
%TD*%
D11*
%TO.P,J4,1,Pin_1*%
%TO.N,Net-(J4-Pad1)*%
X128011000Y-91440000D03*
D12*
%TO.P,J4,2,Pin_2*%
%TO.N,Net-(J4-Pad2)*%
X130551000Y-91440000D03*
%TD*%
D11*
%TO.P,J5,1,Pin_1*%
%TO.N,sb_filt*%
X134740000Y-114808000D03*
D12*
%TO.P,J5,2,Pin_2*%
%TO.N,GND*%
X134740000Y-112268000D03*
%TD*%
D15*
%TO.P,R1,1*%
%TO.N,pwm*%
X153670000Y-81280000D03*
D16*
%TO.P,R1,2*%
%TO.N,pwm_filt*%
X153670000Y-91440000D03*
%TD*%
D11*
%TO.P,J6,1,Pin_1*%
%TO.N,r2r_filt*%
X123207602Y-101279000D03*
D12*
%TO.P,J6,2,Pin_2*%
%TO.N,Net-(C5-Pad1)*%
X123207602Y-98739000D03*
%TD*%
D11*
%TO.P,J7,1,Pin_1*%
%TO.N,r2r_filt*%
X127120000Y-114808000D03*
D12*
%TO.P,J7,2,Pin_2*%
%TO.N,GND*%
X127120000Y-112268000D03*
%TD*%
D15*
%TO.P,R15,1*%
%TO.N,sb*%
X142240000Y-81280000D03*
D16*
%TO.P,R15,2*%
%TO.N,sb_filt*%
X142240000Y-91440000D03*
%TD*%
D13*
%TO.P,C4,1*%
%TO.N,sb_filt*%
X145469746Y-102330000D03*
X144797602Y-100330000D03*
D14*
%TO.P,C4,2*%
%TO.N,GND*%
X139797602Y-100330000D03*
X139125458Y-98330000D03*
%TD*%
D11*
%TO.P,J2,1,Pin_1*%
%TO.N,pwm_filt*%
X149980000Y-114808000D03*
D12*
%TO.P,J2,2,Pin_2*%
%TO.N,GND*%
X149980000Y-112268000D03*
%TD*%
D11*
%TO.P,J1,1,Pin_1*%
%TO.N,pwm*%
X157600000Y-114808000D03*
D12*
%TO.P,J1,2,Pin_2*%
%TO.N,GND*%
X157600000Y-112268000D03*
%TD*%
D13*
%TO.P,C2,1*%
%TO.N,pwm_filt*%
X156227602Y-100330000D03*
X156899746Y-102330000D03*
D14*
%TO.P,C2,2*%
%TO.N,GND*%
X150555458Y-98330000D03*
X151227602Y-100330000D03*
%TD*%
D11*
%TO.P,J8,1,Pin_1*%
%TO.N,GND*%
X119380000Y-112268000D03*
D12*
%TO.P,J8,2,Pin_2*%
X119380000Y-114808000D03*
%TD*%
D17*
%TO.P,A1,1,NC*%
%TO.N,unconnected-(A1-Pad1)*%
X121920000Y-127000000D03*
D16*
%TO.P,A1,2,IOREF*%
%TO.N,unconnected-(A1-Pad2)*%
X124460000Y-127000000D03*
%TO.P,A1,3,~{RESET}*%
%TO.N,unconnected-(A1-Pad3)*%
X127000000Y-127000000D03*
%TO.P,A1,4,3V3*%
%TO.N,unconnected-(A1-Pad4)*%
X129540000Y-127000000D03*
%TO.P,A1,5,+5V*%
%TO.N,unconnected-(A1-Pad5)*%
X132080000Y-127000000D03*
%TO.P,A1,6,GND*%
%TO.N,GND*%
X134620000Y-127000000D03*
%TO.P,A1,7,GND*%
X137160000Y-127000000D03*
%TO.P,A1,8,VIN*%
%TO.N,unconnected-(A1-Pad8)*%
X139700000Y-127000000D03*
%TO.P,A1,9,A0*%
%TO.N,r2r_filt*%
X144780000Y-127000000D03*
%TO.P,A1,10,A1*%
%TO.N,sb_filt*%
X147320000Y-127000000D03*
%TO.P,A1,11,A2*%
%TO.N,sb*%
X149860000Y-127000000D03*
%TO.P,A1,12,A3*%
%TO.N,pwm_filt*%
X152400000Y-127000000D03*
%TO.P,A1,13,SDA/A4*%
%TO.N,pwm*%
X154940000Y-127000000D03*
%TO.P,A1,14,SCL/A5*%
%TO.N,unconnected-(A1-Pad14)*%
X157480000Y-127000000D03*
%TO.P,A1,15,D0/RX*%
%TO.N,unconnected-(A1-Pad15)*%
X157480000Y-78740000D03*
%TO.P,A1,16,D1/TX*%
%TO.N,unconnected-(A1-Pad16)*%
X154940000Y-78740000D03*
%TO.P,A1,17,D2*%
%TO.N,unconnected-(A1-Pad17)*%
X152400000Y-78740000D03*
%TO.P,A1,18,D3*%
%TO.N,pwm*%
X149860000Y-78740000D03*
%TO.P,A1,19,D4*%
%TO.N,sb*%
X147320000Y-78740000D03*
%TO.P,A1,20,D5*%
%TO.N,unconnected-(A1-Pad20)*%
X144780000Y-78740000D03*
%TO.P,A1,21,D6*%
%TO.N,unconnected-(A1-Pad21)*%
X142240000Y-78740000D03*
%TO.P,A1,22,D7*%
%TO.N,unconnected-(A1-Pad22)*%
X139700000Y-78740000D03*
%TO.P,A1,23,D8*%
%TO.N,b0*%
X135640000Y-78740000D03*
%TO.P,A1,24,D9*%
%TO.N,b1*%
X133100000Y-78740000D03*
%TO.P,A1,25,D10*%
%TO.N,b2*%
X130560000Y-78740000D03*
%TO.P,A1,26,D11*%
%TO.N,b3*%
X128020000Y-78740000D03*
%TO.P,A1,27,D12*%
%TO.N,b4*%
X125480000Y-78740000D03*
%TO.P,A1,28,D13*%
%TO.N,b5*%
X122940000Y-78740000D03*
%TO.P,A1,29,GND*%
%TO.N,GND*%
X120400000Y-78740000D03*
%TO.P,A1,30,AREF*%
%TO.N,unconnected-(A1-Pad30)*%
X117860000Y-78740000D03*
%TO.P,A1,31,SDA/A4*%
%TO.N,unconnected-(A1-Pad31)*%
X115320000Y-78740000D03*
%TO.P,A1,32,SCL/A5*%
%TO.N,unconnected-(A1-Pad32)*%
X112780000Y-78740000D03*
%TD*%
D18*
%TO.N,GND*%
X134366000Y-80010000D03*
X126746000Y-80010000D03*
X151638000Y-82550000D03*
X146050000Y-124714000D03*
X134112000Y-89916000D03*
X143510000Y-124714000D03*
X131826000Y-80010000D03*
X148590000Y-80010000D03*
X129286000Y-80010000D03*
X124206000Y-85090000D03*
X134366000Y-85090000D03*
X140970000Y-80010000D03*
X123444000Y-94234000D03*
X125476000Y-89662000D03*
X144018000Y-98044000D03*
X151130000Y-88646000D03*
X151130000Y-124714000D03*
X131826000Y-85090000D03*
X156210000Y-124714000D03*
X157480000Y-98298000D03*
X146050000Y-83312000D03*
X124206000Y-80010000D03*
X151130000Y-80010000D03*
X129286000Y-85090000D03*
X126746000Y-85090000D03*
X156210000Y-80010000D03*
X153670000Y-124714000D03*
X145034000Y-88646000D03*
X143510000Y-80010000D03*
X148590000Y-124714000D03*
X146558000Y-89916000D03*
%TD*%
D19*
%TO.N,sb_filt*%
X132080000Y-114808000D02*
X134740000Y-114808000D01*
%TO.N,sb*%
X139700000Y-114808000D02*
X142360000Y-114808000D01*
%TO.N,pwm_filt*%
X147320000Y-114808000D02*
X149980000Y-114808000D01*
%TO.N,pwm*%
X154940000Y-114808000D02*
X157600000Y-114808000D01*
%TD*%
%TA.AperFunction,Conductor*%
%TO.N,GND*%
G36*
X158301304Y-76728502D02*
G01*
X158322278Y-76745405D01*
X159474595Y-77897723D01*
X159508621Y-77960035D01*
X159511500Y-77986818D01*
X159511500Y-89082928D01*
X159510145Y-89095058D01*
X159510627Y-89095097D01*
X159509907Y-89104044D01*
X159507926Y-89112800D01*
X159508482Y-89121760D01*
X159511258Y-89166508D01*
X159511500Y-89174310D01*
X159511500Y-89190513D01*
X159512136Y-89194953D01*
X159512984Y-89200878D01*
X159514013Y-89210928D01*
X159516945Y-89258177D01*
X159519994Y-89266623D01*
X159520593Y-89269514D01*
X159524822Y-89286480D01*
X159525648Y-89289305D01*
X159526920Y-89298187D01*
X159546522Y-89341298D01*
X159550327Y-89350647D01*
X159566404Y-89395181D01*
X159571699Y-89402429D01*
X159573080Y-89405027D01*
X159581915Y-89420145D01*
X159583494Y-89422614D01*
X159587208Y-89430782D01*
X159593064Y-89437578D01*
X159618115Y-89466652D01*
X159624401Y-89474569D01*
X159629548Y-89481615D01*
X159629553Y-89481620D01*
X159632425Y-89485552D01*
X159643400Y-89496527D01*
X159649758Y-89503374D01*
X159682287Y-89541127D01*
X159689822Y-89546011D01*
X159696066Y-89551458D01*
X159707931Y-89561058D01*
X162014595Y-91867723D01*
X162048621Y-91930035D01*
X162051500Y-91956818D01*
X162051500Y-124197182D01*
X162031498Y-124265303D01*
X162014595Y-124286277D01*
X159710696Y-126590177D01*
X159701156Y-126597800D01*
X159701470Y-126598168D01*
X159694634Y-126603986D01*
X159687042Y-126608776D01*
X159681100Y-126615504D01*
X159651407Y-126649125D01*
X159646061Y-126654812D01*
X159634618Y-126666255D01*
X159628978Y-126673780D01*
X159628341Y-126674630D01*
X159621967Y-126682459D01*
X159590622Y-126717951D01*
X159586808Y-126726074D01*
X159585174Y-126728562D01*
X159576186Y-126743523D01*
X159574771Y-126746108D01*
X159569384Y-126753295D01*
X159560350Y-126777393D01*
X159552759Y-126797642D01*
X159548833Y-126806958D01*
X159528719Y-126849800D01*
X159527338Y-126858669D01*
X159526472Y-126861502D01*
X159522042Y-126878389D01*
X159521408Y-126881274D01*
X159518255Y-126889684D01*
X159517590Y-126898639D01*
X159514746Y-126936906D01*
X159513592Y-126946952D01*
X159511500Y-126960386D01*
X159511500Y-126975906D01*
X159511154Y-126985243D01*
X159507461Y-127034941D01*
X159509335Y-127043720D01*
X159509898Y-127051978D01*
X159511500Y-127067161D01*
X159511500Y-128905500D01*
X159491498Y-128973621D01*
X159437842Y-129020114D01*
X159385500Y-129031500D01*
X109854500Y-129031500D01*
X109786379Y-129011498D01*
X109739886Y-128957842D01*
X109728500Y-128905500D01*
X109728500Y-127848134D01*
X120611500Y-127848134D01*
X120618255Y-127910316D01*
X120669385Y-128046705D01*
X120756739Y-128163261D01*
X120873295Y-128250615D01*
X121009684Y-128301745D01*
X121071866Y-128308500D01*
X122768134Y-128308500D01*
X122830316Y-128301745D01*
X122966705Y-128250615D01*
X123083261Y-128163261D01*
X123170615Y-128046705D01*
X123221745Y-127910316D01*
X123222917Y-127899526D01*
X123223803Y-127897394D01*
X123224425Y-127894778D01*
X123224848Y-127894879D01*
X123250155Y-127833965D01*
X123308517Y-127793537D01*
X123379471Y-127791078D01*
X123440490Y-127827371D01*
X123447489Y-127836031D01*
X123450643Y-127839789D01*
X123453802Y-127844300D01*
X123615700Y-128006198D01*
X123620208Y-128009355D01*
X123620211Y-128009357D01*
X123661542Y-128038297D01*
X123803251Y-128137523D01*
X123808233Y-128139846D01*
X123808238Y-128139849D01*
X124004765Y-128231490D01*
X124010757Y-128234284D01*
X124016065Y-128235706D01*
X124016067Y-128235707D01*
X124226598Y-128292119D01*
X124226600Y-128292119D01*
X124231913Y-128293543D01*
X124460000Y-128313498D01*
X124688087Y-128293543D01*
X124693400Y-128292119D01*
X124693402Y-128292119D01*
X124903933Y-128235707D01*
X124903935Y-128235706D01*
X124909243Y-128234284D01*
X124915235Y-128231490D01*
X125111762Y-128139849D01*
X125111767Y-128139846D01*
X125116749Y-128137523D01*
X125258458Y-128038297D01*
X125299789Y-128009357D01*
X125299792Y-128009355D01*
X125304300Y-128006198D01*
X125466198Y-127844300D01*
X125597523Y-127656749D01*
X125599846Y-127651767D01*
X125599849Y-127651762D01*
X125615805Y-127617543D01*
X125662722Y-127564258D01*
X125730999Y-127544797D01*
X125798959Y-127565339D01*
X125844195Y-127617543D01*
X125860151Y-127651762D01*
X125860154Y-127651767D01*
X125862477Y-127656749D01*
X125993802Y-127844300D01*
X126155700Y-128006198D01*
X126160208Y-128009355D01*
X126160211Y-128009357D01*
X126201542Y-128038297D01*
X126343251Y-128137523D01*
X126348233Y-128139846D01*
X126348238Y-128139849D01*
X126544765Y-128231490D01*
X126550757Y-128234284D01*
X126556065Y-128235706D01*
X126556067Y-128235707D01*
X126766598Y-128292119D01*
X126766600Y-128292119D01*
X126771913Y-128293543D01*
X127000000Y-128313498D01*
X127228087Y-128293543D01*
X127233400Y-128292119D01*
X127233402Y-128292119D01*
X127443933Y-128235707D01*
X127443935Y-128235706D01*
X127449243Y-128234284D01*
X127455235Y-128231490D01*
X127651762Y-128139849D01*
X127651767Y-128139846D01*
X127656749Y-128137523D01*
X127798458Y-128038297D01*
X127839789Y-128009357D01*
X127839792Y-128009355D01*
X127844300Y-128006198D01*
X128006198Y-127844300D01*
X128137523Y-127656749D01*
X128139846Y-127651767D01*
X128139849Y-127651762D01*
X128155805Y-127617543D01*
X128202722Y-127564258D01*
X128270999Y-127544797D01*
X128338959Y-127565339D01*
X128384195Y-127617543D01*
X128400151Y-127651762D01*
X128400154Y-127651767D01*
X128402477Y-127656749D01*
X128533802Y-127844300D01*
X128695700Y-128006198D01*
X128700208Y-128009355D01*
X128700211Y-128009357D01*
X128741542Y-128038297D01*
X128883251Y-128137523D01*
X128888233Y-128139846D01*
X128888238Y-128139849D01*
X129084765Y-128231490D01*
X129090757Y-128234284D01*
X129096065Y-128235706D01*
X129096067Y-128235707D01*
X129306598Y-128292119D01*
X129306600Y-128292119D01*
X129311913Y-128293543D01*
X129540000Y-128313498D01*
X129768087Y-128293543D01*
X129773400Y-128292119D01*
X129773402Y-128292119D01*
X129983933Y-128235707D01*
X129983935Y-128235706D01*
X129989243Y-128234284D01*
X129995235Y-128231490D01*
X130191762Y-128139849D01*
X130191767Y-128139846D01*
X130196749Y-128137523D01*
X130338458Y-128038297D01*
X130379789Y-128009357D01*
X130379792Y-128009355D01*
X130384300Y-128006198D01*
X130546198Y-127844300D01*
X130677523Y-127656749D01*
X130679846Y-127651767D01*
X130679849Y-127651762D01*
X130695805Y-127617543D01*
X130742722Y-127564258D01*
X130810999Y-127544797D01*
X130878959Y-127565339D01*
X130924195Y-127617543D01*
X130940151Y-127651762D01*
X130940154Y-127651767D01*
X130942477Y-127656749D01*
X131073802Y-127844300D01*
X131235700Y-128006198D01*
X131240208Y-128009355D01*
X131240211Y-128009357D01*
X131281542Y-128038297D01*
X131423251Y-128137523D01*
X131428233Y-128139846D01*
X131428238Y-128139849D01*
X131624765Y-128231490D01*
X131630757Y-128234284D01*
X131636065Y-128235706D01*
X131636067Y-128235707D01*
X131846598Y-128292119D01*
X131846600Y-128292119D01*
X131851913Y-128293543D01*
X132080000Y-128313498D01*
X132308087Y-128293543D01*
X132313400Y-128292119D01*
X132313402Y-128292119D01*
X132523933Y-128235707D01*
X132523935Y-128235706D01*
X132529243Y-128234284D01*
X132535235Y-128231490D01*
X132731762Y-128139849D01*
X132731767Y-128139846D01*
X132736749Y-128137523D01*
X132878458Y-128038297D01*
X132919789Y-128009357D01*
X132919792Y-128009355D01*
X132924300Y-128006198D01*
X133086198Y-127844300D01*
X133217523Y-127656749D01*
X133219846Y-127651767D01*
X133219849Y-127651762D01*
X133236081Y-127616951D01*
X133282998Y-127563666D01*
X133351275Y-127544205D01*
X133419235Y-127564747D01*
X133464471Y-127616951D01*
X133480586Y-127651511D01*
X133486069Y-127661007D01*
X133611028Y-127839467D01*
X133618084Y-127847875D01*
X133772125Y-128001916D01*
X133780533Y-128008972D01*
X133958993Y-128133931D01*
X133968489Y-128139414D01*
X134165947Y-128231490D01*
X134176239Y-128235236D01*
X134348503Y-128281394D01*
X134362599Y-128281058D01*
X134366000Y-128273116D01*
X134366000Y-128267967D01*
X134874000Y-128267967D01*
X134877973Y-128281498D01*
X134886522Y-128282727D01*
X135063761Y-128235236D01*
X135074053Y-128231490D01*
X135271511Y-128139414D01*
X135281007Y-128133931D01*
X135459467Y-128008972D01*
X135467875Y-128001916D01*
X135621916Y-127847875D01*
X135628972Y-127839467D01*
X135753931Y-127661007D01*
X135759414Y-127651511D01*
X135775805Y-127616359D01*
X135822722Y-127563074D01*
X135890999Y-127543613D01*
X135958959Y-127564155D01*
X136004195Y-127616359D01*
X136020586Y-127651511D01*
X136026069Y-127661007D01*
X136151028Y-127839467D01*
X136158084Y-127847875D01*
X136312125Y-128001916D01*
X136320533Y-128008972D01*
X136498993Y-128133931D01*
X136508489Y-128139414D01*
X136705947Y-128231490D01*
X136716239Y-128235236D01*
X136888503Y-128281394D01*
X136902599Y-128281058D01*
X136906000Y-128273116D01*
X136906000Y-128267967D01*
X137414000Y-128267967D01*
X137417973Y-128281498D01*
X137426522Y-128282727D01*
X137603761Y-128235236D01*
X137614053Y-128231490D01*
X137811511Y-128139414D01*
X137821007Y-128133931D01*
X137999467Y-128008972D01*
X138007875Y-128001916D01*
X138161916Y-127847875D01*
X138168972Y-127839467D01*
X138293931Y-127661007D01*
X138299414Y-127651511D01*
X138315529Y-127616951D01*
X138362446Y-127563666D01*
X138430723Y-127544205D01*
X138498683Y-127564747D01*
X138543919Y-127616951D01*
X138560151Y-127651762D01*
X138560154Y-127651767D01*
X138562477Y-127656749D01*
X138693802Y-127844300D01*
X138855700Y-128006198D01*
X138860208Y-128009355D01*
X138860211Y-128009357D01*
X138901542Y-128038297D01*
X139043251Y-128137523D01*
X139048233Y-128139846D01*
X139048238Y-128139849D01*
X139244765Y-128231490D01*
X139250757Y-128234284D01*
X139256065Y-128235706D01*
X139256067Y-128235707D01*
X139466598Y-128292119D01*
X139466600Y-128292119D01*
X139471913Y-128293543D01*
X139700000Y-128313498D01*
X139928087Y-128293543D01*
X139933400Y-128292119D01*
X139933402Y-128292119D01*
X140143933Y-128235707D01*
X140143935Y-128235706D01*
X140149243Y-128234284D01*
X140155235Y-128231490D01*
X140351762Y-128139849D01*
X140351767Y-128139846D01*
X140356749Y-128137523D01*
X140498458Y-128038297D01*
X140539789Y-128009357D01*
X140539792Y-128009355D01*
X140544300Y-128006198D01*
X140706198Y-127844300D01*
X140837523Y-127656749D01*
X140839846Y-127651767D01*
X140839849Y-127651762D01*
X140931961Y-127454225D01*
X140931961Y-127454224D01*
X140934284Y-127449243D01*
X140982970Y-127267548D01*
X140992119Y-127233402D01*
X140992119Y-127233400D01*
X140993543Y-127228087D01*
X141013498Y-127000000D01*
X143466502Y-127000000D01*
X143486457Y-127228087D01*
X143487881Y-127233400D01*
X143487881Y-127233402D01*
X143497031Y-127267548D01*
X143545716Y-127449243D01*
X143548039Y-127454224D01*
X143548039Y-127454225D01*
X143640151Y-127651762D01*
X143640154Y-127651767D01*
X143642477Y-127656749D01*
X143773802Y-127844300D01*
X143935700Y-128006198D01*
X143940208Y-128009355D01*
X143940211Y-128009357D01*
X143981542Y-128038297D01*
X144123251Y-128137523D01*
X144128233Y-128139846D01*
X144128238Y-128139849D01*
X144324765Y-128231490D01*
X144330757Y-128234284D01*
X144336065Y-128235706D01*
X144336067Y-128235707D01*
X144546598Y-128292119D01*
X144546600Y-128292119D01*
X144551913Y-128293543D01*
X144780000Y-128313498D01*
X145008087Y-128293543D01*
X145013400Y-128292119D01*
X145013402Y-128292119D01*
X145223933Y-128235707D01*
X145223935Y-128235706D01*
X145229243Y-128234284D01*
X145235235Y-128231490D01*
X145431762Y-128139849D01*
X145431767Y-128139846D01*
X145436749Y-128137523D01*
X145578458Y-128038297D01*
X145619789Y-128009357D01*
X145619792Y-128009355D01*
X145624300Y-128006198D01*
X145786198Y-127844300D01*
X145917523Y-127656749D01*
X145919846Y-127651767D01*
X145919849Y-127651762D01*
X145935805Y-127617543D01*
X145982722Y-127564258D01*
X146050999Y-127544797D01*
X146118959Y-127565339D01*
X146164195Y-127617543D01*
X146180151Y-127651762D01*
X146180154Y-127651767D01*
X146182477Y-127656749D01*
X146313802Y-127844300D01*
X146475700Y-128006198D01*
X146480208Y-128009355D01*
X146480211Y-128009357D01*
X146521542Y-128038297D01*
X146663251Y-128137523D01*
X146668233Y-128139846D01*
X146668238Y-128139849D01*
X146864765Y-128231490D01*
X146870757Y-128234284D01*
X146876065Y-128235706D01*
X146876067Y-128235707D01*
X147086598Y-128292119D01*
X147086600Y-128292119D01*
X147091913Y-128293543D01*
X147320000Y-128313498D01*
X147548087Y-128293543D01*
X147553400Y-128292119D01*
X147553402Y-128292119D01*
X147763933Y-128235707D01*
X147763935Y-128235706D01*
X147769243Y-128234284D01*
X147775235Y-128231490D01*
X147971762Y-128139849D01*
X147971767Y-128139846D01*
X147976749Y-128137523D01*
X148118458Y-128038297D01*
X148159789Y-128009357D01*
X148159792Y-128009355D01*
X148164300Y-128006198D01*
X148326198Y-127844300D01*
X148457523Y-127656749D01*
X148459846Y-127651767D01*
X148459849Y-127651762D01*
X148475805Y-127617543D01*
X148522722Y-127564258D01*
X148590999Y-127544797D01*
X148658959Y-127565339D01*
X148704195Y-127617543D01*
X148720151Y-127651762D01*
X148720154Y-127651767D01*
X148722477Y-127656749D01*
X148853802Y-127844300D01*
X149015700Y-128006198D01*
X149020208Y-128009355D01*
X149020211Y-128009357D01*
X149061542Y-128038297D01*
X149203251Y-128137523D01*
X149208233Y-128139846D01*
X149208238Y-128139849D01*
X149404765Y-128231490D01*
X149410757Y-128234284D01*
X149416065Y-128235706D01*
X149416067Y-128235707D01*
X149626598Y-128292119D01*
X149626600Y-128292119D01*
X149631913Y-128293543D01*
X149860000Y-128313498D01*
X150088087Y-128293543D01*
X150093400Y-128292119D01*
X150093402Y-128292119D01*
X150303933Y-128235707D01*
X150303935Y-128235706D01*
X150309243Y-128234284D01*
X150315235Y-128231490D01*
X150511762Y-128139849D01*
X150511767Y-128139846D01*
X150516749Y-128137523D01*
X150658458Y-128038297D01*
X150699789Y-128009357D01*
X150699792Y-128009355D01*
X150704300Y-128006198D01*
X150866198Y-127844300D01*
X150997523Y-127656749D01*
X150999846Y-127651767D01*
X150999849Y-127651762D01*
X151015805Y-127617543D01*
X151062722Y-127564258D01*
X151130999Y-127544797D01*
X151198959Y-127565339D01*
X151244195Y-127617543D01*
X151260151Y-127651762D01*
X151260154Y-127651767D01*
X151262477Y-127656749D01*
X151393802Y-127844300D01*
X151555700Y-128006198D01*
X151560208Y-128009355D01*
X151560211Y-128009357D01*
X151601542Y-128038297D01*
X151743251Y-128137523D01*
X151748233Y-128139846D01*
X151748238Y-128139849D01*
X151944765Y-128231490D01*
X151950757Y-128234284D01*
X151956065Y-128235706D01*
X151956067Y-128235707D01*
X152166598Y-128292119D01*
X152166600Y-128292119D01*
X152171913Y-128293543D01*
X152400000Y-128313498D01*
X152628087Y-128293543D01*
X152633400Y-128292119D01*
X152633402Y-128292119D01*
X152843933Y-128235707D01*
X152843935Y-128235706D01*
X152849243Y-128234284D01*
X152855235Y-128231490D01*
X153051762Y-128139849D01*
X153051767Y-128139846D01*
X153056749Y-128137523D01*
X153198458Y-128038297D01*
X153239789Y-128009357D01*
X153239792Y-128009355D01*
X153244300Y-128006198D01*
X153406198Y-127844300D01*
X153537523Y-127656749D01*
X153539846Y-127651767D01*
X153539849Y-127651762D01*
X153555805Y-127617543D01*
X153602722Y-127564258D01*
X153670999Y-127544797D01*
X153738959Y-127565339D01*
X153784195Y-127617543D01*
X153800151Y-127651762D01*
X153800154Y-127651767D01*
X153802477Y-127656749D01*
X153933802Y-127844300D01*
X154095700Y-128006198D01*
X154100208Y-128009355D01*
X154100211Y-128009357D01*
X154141542Y-128038297D01*
X154283251Y-128137523D01*
X154288233Y-128139846D01*
X154288238Y-128139849D01*
X154484765Y-128231490D01*
X154490757Y-128234284D01*
X154496065Y-128235706D01*
X154496067Y-128235707D01*
X154706598Y-128292119D01*
X154706600Y-128292119D01*
X154711913Y-128293543D01*
X154940000Y-128313498D01*
X155168087Y-128293543D01*
X155173400Y-128292119D01*
X155173402Y-128292119D01*
X155383933Y-128235707D01*
X155383935Y-128235706D01*
X155389243Y-128234284D01*
X155395235Y-128231490D01*
X155591762Y-128139849D01*
X155591767Y-128139846D01*
X155596749Y-128137523D01*
X155738458Y-128038297D01*
X155779789Y-128009357D01*
X155779792Y-128009355D01*
X155784300Y-128006198D01*
X155946198Y-127844300D01*
X156077523Y-127656749D01*
X156079846Y-127651767D01*
X156079849Y-127651762D01*
X156095805Y-127617543D01*
X156142722Y-127564258D01*
X156210999Y-127544797D01*
X156278959Y-127565339D01*
X156324195Y-127617543D01*
X156340151Y-127651762D01*
X156340154Y-127651767D01*
X156342477Y-127656749D01*
X156473802Y-127844300D01*
X156635700Y-128006198D01*
X156640208Y-128009355D01*
X156640211Y-128009357D01*
X156681542Y-128038297D01*
X156823251Y-128137523D01*
X156828233Y-128139846D01*
X156828238Y-128139849D01*
X157024765Y-128231490D01*
X157030757Y-128234284D01*
X157036065Y-128235706D01*
X157036067Y-128235707D01*
X157246598Y-128292119D01*
X157246600Y-128292119D01*
X157251913Y-128293543D01*
X157480000Y-128313498D01*
X157708087Y-128293543D01*
X157713400Y-128292119D01*
X157713402Y-128292119D01*
X157923933Y-128235707D01*
X157923935Y-128235706D01*
X157929243Y-128234284D01*
X157935235Y-128231490D01*
X158131762Y-128139849D01*
X158131767Y-128139846D01*
X158136749Y-128137523D01*
X158278458Y-128038297D01*
X158319789Y-128009357D01*
X158319792Y-128009355D01*
X158324300Y-128006198D01*
X158486198Y-127844300D01*
X158617523Y-127656749D01*
X158619846Y-127651767D01*
X158619849Y-127651762D01*
X158711961Y-127454225D01*
X158711961Y-127454224D01*
X158714284Y-127449243D01*
X158762970Y-127267548D01*
X158772119Y-127233402D01*
X158772119Y-127233400D01*
X158773543Y-127228087D01*
X158793498Y-127000000D01*
X158773543Y-126771913D01*
X158764110Y-126736708D01*
X158715707Y-126556067D01*
X158715706Y-126556065D01*
X158714284Y-126550757D01*
X158660148Y-126434661D01*
X158619849Y-126348238D01*
X158619846Y-126348233D01*
X158617523Y-126343251D01*
X158486198Y-126155700D01*
X158324300Y-125993802D01*
X158319792Y-125990645D01*
X158319789Y-125990643D01*
X158241611Y-125935902D01*
X158136749Y-125862477D01*
X158131767Y-125860154D01*
X158131762Y-125860151D01*
X157934225Y-125768039D01*
X157934224Y-125768039D01*
X157929243Y-125765716D01*
X157923935Y-125764294D01*
X157923933Y-125764293D01*
X157713402Y-125707881D01*
X157713400Y-125707881D01*
X157708087Y-125706457D01*
X157480000Y-125686502D01*
X157251913Y-125706457D01*
X157246600Y-125707881D01*
X157246598Y-125707881D01*
X157036067Y-125764293D01*
X157036065Y-125764294D01*
X157030757Y-125765716D01*
X157025776Y-125768039D01*
X157025775Y-125768039D01*
X156828238Y-125860151D01*
X156828233Y-125860154D01*
X156823251Y-125862477D01*
X156718389Y-125935902D01*
X156640211Y-125990643D01*
X156640208Y-125990645D01*
X156635700Y-125993802D01*
X156473802Y-126155700D01*
X156342477Y-126343251D01*
X156340154Y-126348233D01*
X156340151Y-126348238D01*
X156324195Y-126382457D01*
X156277278Y-126435742D01*
X156209001Y-126455203D01*
X156141041Y-126434661D01*
X156095805Y-126382457D01*
X156079849Y-126348238D01*
X156079846Y-126348233D01*
X156077523Y-126343251D01*
X155946198Y-126155700D01*
X155784300Y-125993802D01*
X155779792Y-125990645D01*
X155779789Y-125990643D01*
X155701611Y-125935902D01*
X155596749Y-125862477D01*
X155591767Y-125860154D01*
X155591762Y-125860151D01*
X155394225Y-125768039D01*
X155394224Y-125768039D01*
X155389243Y-125765716D01*
X155383935Y-125764294D01*
X155383933Y-125764293D01*
X155173402Y-125707881D01*
X155173400Y-125707881D01*
X155168087Y-125706457D01*
X154940000Y-125686502D01*
X154711913Y-125706457D01*
X154706600Y-125707881D01*
X154706598Y-125707881D01*
X154496067Y-125764293D01*
X154496065Y-125764294D01*
X154490757Y-125765716D01*
X154485776Y-125768039D01*
X154485775Y-125768039D01*
X154288238Y-125860151D01*
X154288233Y-125860154D01*
X154283251Y-125862477D01*
X154178389Y-125935902D01*
X154100211Y-125990643D01*
X154100208Y-125990645D01*
X154095700Y-125993802D01*
X153933802Y-126155700D01*
X153802477Y-126343251D01*
X153800154Y-126348233D01*
X153800151Y-126348238D01*
X153784195Y-126382457D01*
X153737278Y-126435742D01*
X153669001Y-126455203D01*
X153601041Y-126434661D01*
X153555805Y-126382457D01*
X153539849Y-126348238D01*
X153539846Y-126348233D01*
X153537523Y-126343251D01*
X153406198Y-126155700D01*
X153244300Y-125993802D01*
X153239792Y-125990645D01*
X153239789Y-125990643D01*
X153161611Y-125935902D01*
X153056749Y-125862477D01*
X153051767Y-125860154D01*
X153051762Y-125860151D01*
X152854225Y-125768039D01*
X152854224Y-125768039D01*
X152849243Y-125765716D01*
X152843935Y-125764294D01*
X152843933Y-125764293D01*
X152633402Y-125707881D01*
X152633400Y-125707881D01*
X152628087Y-125706457D01*
X152400000Y-125686502D01*
X152171913Y-125706457D01*
X152166600Y-125707881D01*
X152166598Y-125707881D01*
X151956067Y-125764293D01*
X151956065Y-125764294D01*
X151950757Y-125765716D01*
X151945776Y-125768039D01*
X151945775Y-125768039D01*
X151748238Y-125860151D01*
X151748233Y-125860154D01*
X151743251Y-125862477D01*
X151638389Y-125935902D01*
X151560211Y-125990643D01*
X151560208Y-125990645D01*
X151555700Y-125993802D01*
X151393802Y-126155700D01*
X151262477Y-126343251D01*
X151260154Y-126348233D01*
X151260151Y-126348238D01*
X151244195Y-126382457D01*
X151197278Y-126435742D01*
X151129001Y-126455203D01*
X151061041Y-126434661D01*
X151015805Y-126382457D01*
X150999849Y-126348238D01*
X150999846Y-126348233D01*
X150997523Y-126343251D01*
X150866198Y-126155700D01*
X150704300Y-125993802D01*
X150699792Y-125990645D01*
X150699789Y-125990643D01*
X150621611Y-125935902D01*
X150516749Y-125862477D01*
X150511767Y-125860154D01*
X150511762Y-125860151D01*
X150314225Y-125768039D01*
X150314224Y-125768039D01*
X150309243Y-125765716D01*
X150303935Y-125764294D01*
X150303933Y-125764293D01*
X150093402Y-125707881D01*
X150093400Y-125707881D01*
X150088087Y-125706457D01*
X149860000Y-125686502D01*
X149631913Y-125706457D01*
X149626600Y-125707881D01*
X149626598Y-125707881D01*
X149416067Y-125764293D01*
X149416065Y-125764294D01*
X149410757Y-125765716D01*
X149405776Y-125768039D01*
X149405775Y-125768039D01*
X149208238Y-125860151D01*
X149208233Y-125860154D01*
X149203251Y-125862477D01*
X149098389Y-125935902D01*
X149020211Y-125990643D01*
X149020208Y-125990645D01*
X149015700Y-125993802D01*
X148853802Y-126155700D01*
X148722477Y-126343251D01*
X148720154Y-126348233D01*
X148720151Y-126348238D01*
X148704195Y-126382457D01*
X148657278Y-126435742D01*
X148589001Y-126455203D01*
X148521041Y-126434661D01*
X148475805Y-126382457D01*
X148459849Y-126348238D01*
X148459846Y-126348233D01*
X148457523Y-126343251D01*
X148326198Y-126155700D01*
X148164300Y-125993802D01*
X148159792Y-125990645D01*
X148159789Y-125990643D01*
X148081611Y-125935902D01*
X147976749Y-125862477D01*
X147971767Y-125860154D01*
X147971762Y-125860151D01*
X147774225Y-125768039D01*
X147774224Y-125768039D01*
X147769243Y-125765716D01*
X147763935Y-125764294D01*
X147763933Y-125764293D01*
X147553402Y-125707881D01*
X147553400Y-125707881D01*
X147548087Y-125706457D01*
X147320000Y-125686502D01*
X147091913Y-125706457D01*
X147086600Y-125707881D01*
X147086598Y-125707881D01*
X146876067Y-125764293D01*
X146876065Y-125764294D01*
X146870757Y-125765716D01*
X146865776Y-125768039D01*
X146865775Y-125768039D01*
X146668238Y-125860151D01*
X146668233Y-125860154D01*
X146663251Y-125862477D01*
X146558389Y-125935902D01*
X146480211Y-125990643D01*
X146480208Y-125990645D01*
X146475700Y-125993802D01*
X146313802Y-126155700D01*
X146182477Y-126343251D01*
X146180154Y-126348233D01*
X146180151Y-126348238D01*
X146164195Y-126382457D01*
X146117278Y-126435742D01*
X146049001Y-126455203D01*
X145981041Y-126434661D01*
X145935805Y-126382457D01*
X145919849Y-126348238D01*
X145919846Y-126348233D01*
X145917523Y-126343251D01*
X145786198Y-126155700D01*
X145624300Y-125993802D01*
X145619792Y-125990645D01*
X145619789Y-125990643D01*
X145541611Y-125935902D01*
X145436749Y-125862477D01*
X145431767Y-125860154D01*
X145431762Y-125860151D01*
X145234225Y-125768039D01*
X145234224Y-125768039D01*
X145229243Y-125765716D01*
X145223935Y-125764294D01*
X145223933Y-125764293D01*
X145013402Y-125707881D01*
X145013400Y-125707881D01*
X145008087Y-125706457D01*
X144780000Y-125686502D01*
X144551913Y-125706457D01*
X144546600Y-125707881D01*
X144546598Y-125707881D01*
X144336067Y-125764293D01*
X144336065Y-125764294D01*
X144330757Y-125765716D01*
X144325776Y-125768039D01*
X144325775Y-125768039D01*
X144128238Y-125860151D01*
X144128233Y-125860154D01*
X144123251Y-125862477D01*
X144018389Y-125935902D01*
X143940211Y-125990643D01*
X143940208Y-125990645D01*
X143935700Y-125993802D01*
X143773802Y-126155700D01*
X143642477Y-126343251D01*
X143640154Y-126348233D01*
X143640151Y-126348238D01*
X143599852Y-126434661D01*
X143545716Y-126550757D01*
X143544294Y-126556065D01*
X143544293Y-126556067D01*
X143495890Y-126736708D01*
X143486457Y-126771913D01*
X143466502Y-127000000D01*
X141013498Y-127000000D01*
X140993543Y-126771913D01*
X140984110Y-126736708D01*
X140935707Y-126556067D01*
X140935706Y-126556065D01*
X140934284Y-126550757D01*
X140880148Y-126434661D01*
X140839849Y-126348238D01*
X140839846Y-126348233D01*
X140837523Y-126343251D01*
X140706198Y-126155700D01*
X140544300Y-125993802D01*
X140539792Y-125990645D01*
X140539789Y-125990643D01*
X140461611Y-125935902D01*
X140356749Y-125862477D01*
X140351767Y-125860154D01*
X140351762Y-125860151D01*
X140154225Y-125768039D01*
X140154224Y-125768039D01*
X140149243Y-125765716D01*
X140143935Y-125764294D01*
X140143933Y-125764293D01*
X139933402Y-125707881D01*
X139933400Y-125707881D01*
X139928087Y-125706457D01*
X139700000Y-125686502D01*
X139471913Y-125706457D01*
X139466600Y-125707881D01*
X139466598Y-125707881D01*
X139256067Y-125764293D01*
X139256065Y-125764294D01*
X139250757Y-125765716D01*
X139245776Y-125768039D01*
X139245775Y-125768039D01*
X139048238Y-125860151D01*
X139048233Y-125860154D01*
X139043251Y-125862477D01*
X138938389Y-125935902D01*
X138860211Y-125990643D01*
X138860208Y-125990645D01*
X138855700Y-125993802D01*
X138693802Y-126155700D01*
X138562477Y-126343251D01*
X138560154Y-126348233D01*
X138560151Y-126348238D01*
X138543919Y-126383049D01*
X138497002Y-126436334D01*
X138428725Y-126455795D01*
X138360765Y-126435253D01*
X138315529Y-126383049D01*
X138299414Y-126348489D01*
X138293931Y-126338993D01*
X138168972Y-126160533D01*
X138161916Y-126152125D01*
X138007875Y-125998084D01*
X137999467Y-125991028D01*
X137821007Y-125866069D01*
X137811511Y-125860586D01*
X137614053Y-125768510D01*
X137603761Y-125764764D01*
X137431497Y-125718606D01*
X137417401Y-125718942D01*
X137414000Y-125726884D01*
X137414000Y-128267967D01*
X136906000Y-128267967D01*
X136906000Y-127272115D01*
X136901525Y-127256876D01*
X136900135Y-127255671D01*
X136892452Y-127254000D01*
X134892115Y-127254000D01*
X134876876Y-127258475D01*
X134875671Y-127259865D01*
X134874000Y-127267548D01*
X134874000Y-128267967D01*
X134366000Y-128267967D01*
X134366000Y-126727885D01*
X134874000Y-126727885D01*
X134878475Y-126743124D01*
X134879865Y-126744329D01*
X134887548Y-126746000D01*
X136887885Y-126746000D01*
X136903124Y-126741525D01*
X136904329Y-126740135D01*
X136906000Y-126732452D01*
X136906000Y-125732033D01*
X136902027Y-125718502D01*
X136893478Y-125717273D01*
X136716239Y-125764764D01*
X136705947Y-125768510D01*
X136508489Y-125860586D01*
X136498993Y-125866069D01*
X136320533Y-125991028D01*
X136312125Y-125998084D01*
X136158084Y-126152125D01*
X136151028Y-126160533D01*
X136026069Y-126338993D01*
X136020586Y-126348489D01*
X136004195Y-126383641D01*
X135957278Y-126436926D01*
X135889001Y-126456387D01*
X135821041Y-126435845D01*
X135775805Y-126383641D01*
X135759414Y-126348489D01*
X135753931Y-126338993D01*
X135628972Y-126160533D01*
X135621916Y-126152125D01*
X135467875Y-125998084D01*
X135459467Y-125991028D01*
X135281007Y-125866069D01*
X135271511Y-125860586D01*
X135074053Y-125768510D01*
X135063761Y-125764764D01*
X134891497Y-125718606D01*
X134877401Y-125718942D01*
X134874000Y-125726884D01*
X134874000Y-126727885D01*
X134366000Y-126727885D01*
X134366000Y-125732033D01*
X134362027Y-125718502D01*
X134353478Y-125717273D01*
X134176239Y-125764764D01*
X134165947Y-125768510D01*
X133968489Y-125860586D01*
X133958993Y-125866069D01*
X133780533Y-125991028D01*
X133772125Y-125998084D01*
X133618084Y-126152125D01*
X133611028Y-126160533D01*
X133486069Y-126338993D01*
X133480586Y-126348489D01*
X133464471Y-126383049D01*
X133417554Y-126436334D01*
X133349277Y-126455795D01*
X133281317Y-126435253D01*
X133236081Y-126383049D01*
X133219849Y-126348238D01*
X133219846Y-126348233D01*
X133217523Y-126343251D01*
X133086198Y-126155700D01*
X132924300Y-125993802D01*
X132919792Y-125990645D01*
X132919789Y-125990643D01*
X132841611Y-125935902D01*
X132736749Y-125862477D01*
X132731767Y-125860154D01*
X132731762Y-125860151D01*
X132534225Y-125768039D01*
X132534224Y-125768039D01*
X132529243Y-125765716D01*
X132523935Y-125764294D01*
X132523933Y-125764293D01*
X132313402Y-125707881D01*
X132313400Y-125707881D01*
X132308087Y-125706457D01*
X132080000Y-125686502D01*
X131851913Y-125706457D01*
X131846600Y-125707881D01*
X131846598Y-125707881D01*
X131636067Y-125764293D01*
X131636065Y-125764294D01*
X131630757Y-125765716D01*
X131625776Y-125768039D01*
X131625775Y-125768039D01*
X131428238Y-125860151D01*
X131428233Y-125860154D01*
X131423251Y-125862477D01*
X131318389Y-125935902D01*
X131240211Y-125990643D01*
X131240208Y-125990645D01*
X131235700Y-125993802D01*
X131073802Y-126155700D01*
X130942477Y-126343251D01*
X130940154Y-126348233D01*
X130940151Y-126348238D01*
X130924195Y-126382457D01*
X130877278Y-126435742D01*
X130809001Y-126455203D01*
X130741041Y-126434661D01*
X130695805Y-126382457D01*
X130679849Y-126348238D01*
X130679846Y-126348233D01*
X130677523Y-126343251D01*
X130546198Y-126155700D01*
X130384300Y-125993802D01*
X130379792Y-125990645D01*
X130379789Y-125990643D01*
X130301611Y-125935902D01*
X130196749Y-125862477D01*
X130191767Y-125860154D01*
X130191762Y-125860151D01*
X129994225Y-125768039D01*
X129994224Y-125768039D01*
X129989243Y-125765716D01*
X129983935Y-125764294D01*
X129983933Y-125764293D01*
X129773402Y-125707881D01*
X129773400Y-125707881D01*
X129768087Y-125706457D01*
X129540000Y-125686502D01*
X129311913Y-125706457D01*
X129306600Y-125707881D01*
X129306598Y-125707881D01*
X129096067Y-125764293D01*
X129096065Y-125764294D01*
X129090757Y-125765716D01*
X129085776Y-125768039D01*
X129085775Y-125768039D01*
X128888238Y-125860151D01*
X128888233Y-125860154D01*
X128883251Y-125862477D01*
X128778389Y-125935902D01*
X128700211Y-125990643D01*
X128700208Y-125990645D01*
X128695700Y-125993802D01*
X128533802Y-126155700D01*
X128402477Y-126343251D01*
X128400154Y-126348233D01*
X128400151Y-126348238D01*
X128384195Y-126382457D01*
X128337278Y-126435742D01*
X128269001Y-126455203D01*
X128201041Y-126434661D01*
X128155805Y-126382457D01*
X128139849Y-126348238D01*
X128139846Y-126348233D01*
X128137523Y-126343251D01*
X128006198Y-126155700D01*
X127844300Y-125993802D01*
X127839792Y-125990645D01*
X127839789Y-125990643D01*
X127761611Y-125935902D01*
X127656749Y-125862477D01*
X127651767Y-125860154D01*
X127651762Y-125860151D01*
X127454225Y-125768039D01*
X127454224Y-125768039D01*
X127449243Y-125765716D01*
X127443935Y-125764294D01*
X127443933Y-125764293D01*
X127233402Y-125707881D01*
X127233400Y-125707881D01*
X127228087Y-125706457D01*
X127000000Y-125686502D01*
X126771913Y-125706457D01*
X126766600Y-125707881D01*
X126766598Y-125707881D01*
X126556067Y-125764293D01*
X126556065Y-125764294D01*
X126550757Y-125765716D01*
X126545776Y-125768039D01*
X126545775Y-125768039D01*
X126348238Y-125860151D01*
X126348233Y-125860154D01*
X126343251Y-125862477D01*
X126238389Y-125935902D01*
X126160211Y-125990643D01*
X126160208Y-125990645D01*
X126155700Y-125993802D01*
X125993802Y-126155700D01*
X125862477Y-126343251D01*
X125860154Y-126348233D01*
X125860151Y-126348238D01*
X125844195Y-126382457D01*
X125797278Y-126435742D01*
X125729001Y-126455203D01*
X125661041Y-126434661D01*
X125615805Y-126382457D01*
X125599849Y-126348238D01*
X125599846Y-126348233D01*
X125597523Y-126343251D01*
X125466198Y-126155700D01*
X125304300Y-125993802D01*
X125299792Y-125990645D01*
X125299789Y-125990643D01*
X125221611Y-125935902D01*
X125116749Y-125862477D01*
X125111767Y-125860154D01*
X125111762Y-125860151D01*
X124914225Y-125768039D01*
X124914224Y-125768039D01*
X124909243Y-125765716D01*
X124903935Y-125764294D01*
X124903933Y-125764293D01*
X124693402Y-125707881D01*
X124693400Y-125707881D01*
X124688087Y-125706457D01*
X124460000Y-125686502D01*
X124231913Y-125706457D01*
X124226600Y-125707881D01*
X124226598Y-125707881D01*
X124016067Y-125764293D01*
X124016065Y-125764294D01*
X124010757Y-125765716D01*
X124005776Y-125768039D01*
X124005775Y-125768039D01*
X123808238Y-125860151D01*
X123808233Y-125860154D01*
X123803251Y-125862477D01*
X123698389Y-125935902D01*
X123620211Y-125990643D01*
X123620208Y-125990645D01*
X123615700Y-125993802D01*
X123453802Y-126155700D01*
X123450643Y-126160211D01*
X123447108Y-126164424D01*
X123445974Y-126163473D01*
X123395929Y-126203471D01*
X123325310Y-126210776D01*
X123261951Y-126178742D01*
X123225970Y-126117538D01*
X123222918Y-126100483D01*
X123221745Y-126089684D01*
X123170615Y-125953295D01*
X123083261Y-125836739D01*
X122966705Y-125749385D01*
X122830316Y-125698255D01*
X122768134Y-125691500D01*
X121071866Y-125691500D01*
X121009684Y-125698255D01*
X120873295Y-125749385D01*
X120756739Y-125836739D01*
X120669385Y-125953295D01*
X120618255Y-126089684D01*
X120611500Y-126151866D01*
X120611500Y-127848134D01*
X109728500Y-127848134D01*
X109728500Y-115075966D01*
X118048257Y-115075966D01*
X118078565Y-115210446D01*
X118081645Y-115220275D01*
X118161770Y-115417603D01*
X118166413Y-115426794D01*
X118277694Y-115608388D01*
X118283777Y-115616699D01*
X118423213Y-115777667D01*
X118430580Y-115784883D01*
X118594434Y-115920916D01*
X118602881Y-115926831D01*
X118786756Y-116034279D01*
X118796042Y-116038729D01*
X118995001Y-116114703D01*
X119004899Y-116117579D01*
X119108250Y-116138606D01*
X119122299Y-116137410D01*
X119126000Y-116127065D01*
X119126000Y-116126517D01*
X119634000Y-116126517D01*
X119638064Y-116140359D01*
X119651478Y-116142393D01*
X119658184Y-116141534D01*
X119668262Y-116139392D01*
X119872255Y-116078191D01*
X119881842Y-116074433D01*
X120073095Y-115980739D01*
X120081945Y-115975464D01*
X120255328Y-115851792D01*
X120263200Y-115845139D01*
X120414052Y-115694812D01*
X120420730Y-115686965D01*
X120545003Y-115514020D01*
X120550313Y-115505183D01*
X120644670Y-115314267D01*
X120648469Y-115304672D01*
X120710377Y-115100910D01*
X120712555Y-115090837D01*
X120713986Y-115079962D01*
X120711775Y-115065778D01*
X120698617Y-115062000D01*
X119652115Y-115062000D01*
X119636876Y-115066475D01*
X119635671Y-115067865D01*
X119634000Y-115075548D01*
X119634000Y-116126517D01*
X119126000Y-116126517D01*
X119126000Y-115080115D01*
X119121525Y-115064876D01*
X119120135Y-115063671D01*
X119112452Y-115062000D01*
X118063225Y-115062000D01*
X118049694Y-115065973D01*
X118048257Y-115075966D01*
X109728500Y-115075966D01*
X109728500Y-114808000D01*
X123246884Y-114808000D01*
X123265314Y-115018655D01*
X123266738Y-115023968D01*
X123266738Y-115023970D01*
X123277941Y-115065778D01*
X123320044Y-115222910D01*
X123322366Y-115227891D01*
X123322367Y-115227892D01*
X123399543Y-115393395D01*
X123409411Y-115414558D01*
X123530699Y-115587776D01*
X123680224Y-115737301D01*
X123853442Y-115858589D01*
X123858420Y-115860910D01*
X123858423Y-115860912D01*
X123999787Y-115926831D01*
X124045090Y-115947956D01*
X124050398Y-115949378D01*
X124050400Y-115949379D01*
X124244030Y-116001262D01*
X124244032Y-116001262D01*
X124249345Y-116002686D01*
X124460000Y-116021116D01*
X124670655Y-116002686D01*
X124675968Y-116001262D01*
X124675970Y-116001262D01*
X124869600Y-115949379D01*
X124869602Y-115949378D01*
X124874910Y-115947956D01*
X124920213Y-115926831D01*
X125061577Y-115860912D01*
X125061580Y-115860910D01*
X125066558Y-115858589D01*
X125239776Y-115737301D01*
X125389301Y-115587776D01*
X125510589Y-115414558D01*
X125520458Y-115393395D01*
X125521305Y-115391578D01*
X125568221Y-115338292D01*
X125636499Y-115318831D01*
X125704459Y-115339372D01*
X125750525Y-115393395D01*
X125761500Y-115444827D01*
X125761500Y-115706134D01*
X125768255Y-115768316D01*
X125819385Y-115904705D01*
X125906739Y-116021261D01*
X126023295Y-116108615D01*
X126159684Y-116159745D01*
X126221866Y-116166500D01*
X128018134Y-116166500D01*
X128080316Y-116159745D01*
X128216705Y-116108615D01*
X128333261Y-116021261D01*
X128420615Y-115904705D01*
X128471745Y-115768316D01*
X128478500Y-115706134D01*
X128478500Y-114808000D01*
X130866884Y-114808000D01*
X130885314Y-115018655D01*
X130886738Y-115023968D01*
X130886738Y-115023970D01*
X130897941Y-115065778D01*
X130940044Y-115222910D01*
X130942366Y-115227891D01*
X130942367Y-115227892D01*
X131019543Y-115393395D01*
X131029411Y-115414558D01*
X131150699Y-115587776D01*
X131300224Y-115737301D01*
X131473442Y-115858589D01*
X131478420Y-115860910D01*
X131478423Y-115860912D01*
X131619787Y-115926831D01*
X131665090Y-115947956D01*
X131670398Y-115949378D01*
X131670400Y-115949379D01*
X131864030Y-116001262D01*
X131864032Y-116001262D01*
X131869345Y-116002686D01*
X132080000Y-116021116D01*
X132290655Y-116002686D01*
X132295968Y-116001262D01*
X132295970Y-116001262D01*
X132489600Y-115949379D01*
X132489602Y-115949378D01*
X132494910Y-115947956D01*
X132540213Y-115926831D01*
X132681577Y-115860912D01*
X132681580Y-115860910D01*
X132686558Y-115858589D01*
X132859776Y-115737301D01*
X133009301Y-115587776D01*
X133074102Y-115495230D01*
X133129559Y-115450901D01*
X133177315Y-115441500D01*
X133255500Y-115441500D01*
X133323621Y-115461502D01*
X133370114Y-115515158D01*
X133381500Y-115567500D01*
X133381500Y-115706134D01*
X133388255Y-115768316D01*
X133439385Y-115904705D01*
X133526739Y-116021261D01*
X133643295Y-116108615D01*
X133779684Y-116159745D01*
X133841866Y-116166500D01*
X135638134Y-116166500D01*
X135700316Y-116159745D01*
X135836705Y-116108615D01*
X135953261Y-116021261D01*
X136040615Y-115904705D01*
X136091745Y-115768316D01*
X136098500Y-115706134D01*
X136098500Y-114808000D01*
X138486884Y-114808000D01*
X138505314Y-115018655D01*
X138506738Y-115023968D01*
X138506738Y-115023970D01*
X138517941Y-115065778D01*
X138560044Y-115222910D01*
X138562366Y-115227891D01*
X138562367Y-115227892D01*
X138639543Y-115393395D01*
X138649411Y-115414558D01*
X138770699Y-115587776D01*
X138920224Y-115737301D01*
X139093442Y-115858589D01*
X139098420Y-115860910D01*
X139098423Y-115860912D01*
X139239787Y-115926831D01*
X139285090Y-115947956D01*
X139290398Y-115949378D01*
X139290400Y-115949379D01*
X139484030Y-116001262D01*
X139484032Y-116001262D01*
X139489345Y-116002686D01*
X139700000Y-116021116D01*
X139910655Y-116002686D01*
X139915968Y-116001262D01*
X139915970Y-116001262D01*
X140109600Y-115949379D01*
X140109602Y-115949378D01*
X140114910Y-115947956D01*
X140160213Y-115926831D01*
X140301577Y-115860912D01*
X140301580Y-115860910D01*
X140306558Y-115858589D01*
X140479776Y-115737301D01*
X140629301Y-115587776D01*
X140694102Y-115495230D01*
X140749559Y-115450901D01*
X140797315Y-115441500D01*
X140875500Y-115441500D01*
X140943621Y-115461502D01*
X140990114Y-115515158D01*
X141001500Y-115567500D01*
X141001500Y-115706134D01*
X141008255Y-115768316D01*
X141059385Y-115904705D01*
X141146739Y-116021261D01*
X141263295Y-116108615D01*
X141399684Y-116159745D01*
X141461866Y-116166500D01*
X143258134Y-116166500D01*
X143320316Y-116159745D01*
X143456705Y-116108615D01*
X143573261Y-116021261D01*
X143660615Y-115904705D01*
X143711745Y-115768316D01*
X143718500Y-115706134D01*
X143718500Y-114808000D01*
X146106884Y-114808000D01*
X146125314Y-115018655D01*
X146126738Y-115023968D01*
X146126738Y-115023970D01*
X146137941Y-115065778D01*
X146180044Y-115222910D01*
X146182366Y-115227891D01*
X146182367Y-115227892D01*
X146259543Y-115393395D01*
X146269411Y-115414558D01*
X146390699Y-115587776D01*
X146540224Y-115737301D01*
X146713442Y-115858589D01*
X146718420Y-115860910D01*
X146718423Y-115860912D01*
X146859787Y-115926831D01*
X146905090Y-115947956D01*
X146910398Y-115949378D01*
X146910400Y-115949379D01*
X147104030Y-116001262D01*
X147104032Y-116001262D01*
X147109345Y-116002686D01*
X147320000Y-116021116D01*
X147530655Y-116002686D01*
X147535968Y-116001262D01*
X147535970Y-116001262D01*
X147729600Y-115949379D01*
X147729602Y-115949378D01*
X147734910Y-115947956D01*
X147780213Y-115926831D01*
X147921577Y-115860912D01*
X147921580Y-115860910D01*
X147926558Y-115858589D01*
X148099776Y-115737301D01*
X148249301Y-115587776D01*
X148314102Y-115495230D01*
X148369559Y-115450901D01*
X148417315Y-115441500D01*
X148495500Y-115441500D01*
X148563621Y-115461502D01*
X148610114Y-115515158D01*
X148621500Y-115567500D01*
X148621500Y-115706134D01*
X148628255Y-115768316D01*
X148679385Y-115904705D01*
X148766739Y-116021261D01*
X148883295Y-116108615D01*
X149019684Y-116159745D01*
X149081866Y-116166500D01*
X150878134Y-116166500D01*
X150940316Y-116159745D01*
X151076705Y-116108615D01*
X151193261Y-116021261D01*
X151280615Y-115904705D01*
X151331745Y-115768316D01*
X151338500Y-115706134D01*
X151338500Y-114808000D01*
X153726884Y-114808000D01*
X153745314Y-115018655D01*
X153746738Y-115023968D01*
X153746738Y-115023970D01*
X153757941Y-115065778D01*
X153800044Y-115222910D01*
X153802366Y-115227891D01*
X153802367Y-115227892D01*
X153879543Y-115393395D01*
X153889411Y-115414558D01*
X154010699Y-115587776D01*
X154160224Y-115737301D01*
X154333442Y-115858589D01*
X154338420Y-115860910D01*
X154338423Y-115860912D01*
X154479787Y-115926831D01*
X154525090Y-115947956D01*
X154530398Y-115949378D01*
X154530400Y-115949379D01*
X154724030Y-116001262D01*
X154724032Y-116001262D01*
X154729345Y-116002686D01*
X154940000Y-116021116D01*
X155150655Y-116002686D01*
X155155968Y-116001262D01*
X155155970Y-116001262D01*
X155349600Y-115949379D01*
X155349602Y-115949378D01*
X155354910Y-115947956D01*
X155400213Y-115926831D01*
X155541577Y-115860912D01*
X155541580Y-115860910D01*
X155546558Y-115858589D01*
X155719776Y-115737301D01*
X155869301Y-115587776D01*
X155934102Y-115495230D01*
X155989559Y-115450901D01*
X156037315Y-115441500D01*
X156115500Y-115441500D01*
X156183621Y-115461502D01*
X156230114Y-115515158D01*
X156241500Y-115567500D01*
X156241500Y-115706134D01*
X156248255Y-115768316D01*
X156299385Y-115904705D01*
X156386739Y-116021261D01*
X156503295Y-116108615D01*
X156639684Y-116159745D01*
X156701866Y-116166500D01*
X158498134Y-116166500D01*
X158560316Y-116159745D01*
X158696705Y-116108615D01*
X158813261Y-116021261D01*
X158900615Y-115904705D01*
X158951745Y-115768316D01*
X158958500Y-115706134D01*
X158958500Y-113909866D01*
X158951745Y-113847684D01*
X158900615Y-113711295D01*
X158813261Y-113594739D01*
X158696705Y-113507385D01*
X158640421Y-113486285D01*
X158577687Y-113462767D01*
X158520923Y-113420125D01*
X158496223Y-113353564D01*
X158511430Y-113284215D01*
X158532977Y-113255535D01*
X158634052Y-113154812D01*
X158640730Y-113146965D01*
X158765003Y-112974020D01*
X158770313Y-112965183D01*
X158864670Y-112774267D01*
X158868469Y-112764672D01*
X158930377Y-112560910D01*
X158932555Y-112550837D01*
X158933986Y-112539962D01*
X158931775Y-112525778D01*
X158918617Y-112522000D01*
X157472000Y-112522000D01*
X157403879Y-112501998D01*
X157357386Y-112448342D01*
X157346000Y-112396000D01*
X157346000Y-111995885D01*
X157854000Y-111995885D01*
X157858475Y-112011124D01*
X157859865Y-112012329D01*
X157867548Y-112014000D01*
X158918344Y-112014000D01*
X158931875Y-112010027D01*
X158933180Y-112000947D01*
X158891214Y-111833875D01*
X158887894Y-111824124D01*
X158802972Y-111628814D01*
X158798105Y-111619739D01*
X158682426Y-111440926D01*
X158676136Y-111432757D01*
X158532806Y-111275240D01*
X158525273Y-111268215D01*
X158358139Y-111136222D01*
X158349552Y-111130517D01*
X158163117Y-111027599D01*
X158153705Y-111023369D01*
X157952959Y-110952280D01*
X157942988Y-110949646D01*
X157871837Y-110936972D01*
X157858540Y-110938432D01*
X157854000Y-110952989D01*
X157854000Y-111995885D01*
X157346000Y-111995885D01*
X157346000Y-110951102D01*
X157342082Y-110937758D01*
X157327806Y-110935771D01*
X157289324Y-110941660D01*
X157279288Y-110944051D01*
X157076868Y-111010212D01*
X157067359Y-111014209D01*
X156878463Y-111112542D01*
X156869738Y-111118036D01*
X156699433Y-111245905D01*
X156691726Y-111252748D01*
X156544590Y-111406717D01*
X156538104Y-111414727D01*
X156418098Y-111590649D01*
X156413000Y-111599623D01*
X156323338Y-111792783D01*
X156319776Y-111802465D01*
X156312601Y-111828337D01*
X156275121Y-111888634D01*
X156210991Y-111919096D01*
X156140573Y-111910052D01*
X156086224Y-111864372D01*
X156076989Y-111847912D01*
X155992479Y-111666677D01*
X155987001Y-111657189D01*
X155965689Y-111626752D01*
X155955212Y-111618377D01*
X155941764Y-111625446D01*
X155312022Y-112255188D01*
X155304408Y-112269132D01*
X155304539Y-112270965D01*
X155308790Y-112277580D01*
X155942486Y-112911276D01*
X155954261Y-112917706D01*
X155966276Y-112908410D01*
X155987001Y-112878811D01*
X155992479Y-112869323D01*
X156076595Y-112688933D01*
X156123512Y-112635647D01*
X156191789Y-112616186D01*
X156259749Y-112636727D01*
X156307533Y-112694778D01*
X156381770Y-112877603D01*
X156386413Y-112886794D01*
X156497694Y-113068388D01*
X156503777Y-113076699D01*
X156643213Y-113237667D01*
X156650577Y-113244879D01*
X156655522Y-113248985D01*
X156695156Y-113307889D01*
X156696653Y-113378870D01*
X156659537Y-113439392D01*
X156619264Y-113463910D01*
X156511705Y-113504232D01*
X156511704Y-113504233D01*
X156503295Y-113507385D01*
X156386739Y-113594739D01*
X156299385Y-113711295D01*
X156248255Y-113847684D01*
X156241500Y-113909866D01*
X156241500Y-114048500D01*
X156221498Y-114116621D01*
X156167842Y-114163114D01*
X156115500Y-114174500D01*
X156037315Y-114174500D01*
X155969194Y-114154498D01*
X155934102Y-114120770D01*
X155872460Y-114032736D01*
X155869301Y-114028224D01*
X155719776Y-113878699D01*
X155546558Y-113757411D01*
X155541580Y-113755090D01*
X155541577Y-113755088D01*
X155359892Y-113670367D01*
X155359891Y-113670366D01*
X155354910Y-113668044D01*
X155349603Y-113666622D01*
X155349592Y-113666618D01*
X155322829Y-113659447D01*
X155262207Y-113622496D01*
X155231185Y-113558635D01*
X155239614Y-113488140D01*
X155284818Y-113433394D01*
X155322830Y-113416034D01*
X155349426Y-113408908D01*
X155359723Y-113405159D01*
X155541323Y-113320479D01*
X155550811Y-113315001D01*
X155581248Y-113293689D01*
X155589623Y-113283212D01*
X155582554Y-113269764D01*
X154952812Y-112640022D01*
X154938868Y-112632408D01*
X154937035Y-112632539D01*
X154930420Y-112636790D01*
X154296724Y-113270486D01*
X154290294Y-113282261D01*
X154299590Y-113294276D01*
X154329189Y-113315001D01*
X154338677Y-113320479D01*
X154520277Y-113405159D01*
X154530574Y-113408908D01*
X154557170Y-113416034D01*
X154617793Y-113452986D01*
X154648814Y-113516846D01*
X154640386Y-113587341D01*
X154595183Y-113642088D01*
X154557171Y-113659447D01*
X154530408Y-113666618D01*
X154530397Y-113666622D01*
X154525090Y-113668044D01*
X154520109Y-113670366D01*
X154520108Y-113670367D01*
X154338423Y-113755088D01*
X154338420Y-113755090D01*
X154333442Y-113757411D01*
X154160224Y-113878699D01*
X154010699Y-114028224D01*
X153889411Y-114201442D01*
X153887090Y-114206420D01*
X153887088Y-114206423D01*
X153813551Y-114364124D01*
X153800044Y-114393090D01*
X153798622Y-114398398D01*
X153798621Y-114398400D01*
X153758500Y-114548135D01*
X153745314Y-114597345D01*
X153726884Y-114808000D01*
X151338500Y-114808000D01*
X151338500Y-113909866D01*
X151331745Y-113847684D01*
X151280615Y-113711295D01*
X151193261Y-113594739D01*
X151076705Y-113507385D01*
X151020421Y-113486285D01*
X150957687Y-113462767D01*
X150900923Y-113420125D01*
X150876223Y-113353564D01*
X150891430Y-113284215D01*
X150912977Y-113255535D01*
X151014052Y-113154812D01*
X151020730Y-113146965D01*
X151145003Y-112974020D01*
X151150313Y-112965183D01*
X151244670Y-112774267D01*
X151248469Y-112764672D01*
X151310377Y-112560910D01*
X151312555Y-112550837D01*
X151313986Y-112539962D01*
X151311775Y-112525778D01*
X151298617Y-112522000D01*
X149852000Y-112522000D01*
X149783879Y-112501998D01*
X149737386Y-112448342D01*
X149726000Y-112396000D01*
X149726000Y-112273475D01*
X153727865Y-112273475D01*
X153745329Y-112473091D01*
X153747231Y-112483878D01*
X153799093Y-112677429D01*
X153802841Y-112687723D01*
X153887521Y-112869323D01*
X153892999Y-112878811D01*
X153914311Y-112909248D01*
X153924788Y-112917623D01*
X153938236Y-112910554D01*
X154567978Y-112280812D01*
X154575592Y-112266868D01*
X154575461Y-112265035D01*
X154571210Y-112258420D01*
X153937514Y-111624724D01*
X153925739Y-111618294D01*
X153913724Y-111627590D01*
X153892999Y-111657189D01*
X153887521Y-111666677D01*
X153802841Y-111848277D01*
X153799093Y-111858571D01*
X153747231Y-112052122D01*
X153745329Y-112062909D01*
X153727865Y-112262525D01*
X153727865Y-112273475D01*
X149726000Y-112273475D01*
X149726000Y-111995885D01*
X150234000Y-111995885D01*
X150238475Y-112011124D01*
X150239865Y-112012329D01*
X150247548Y-112014000D01*
X151298344Y-112014000D01*
X151311875Y-112010027D01*
X151313180Y-112000947D01*
X151271214Y-111833875D01*
X151267894Y-111824124D01*
X151182972Y-111628814D01*
X151178105Y-111619739D01*
X151062426Y-111440926D01*
X151056136Y-111432757D01*
X150912806Y-111275240D01*
X150905273Y-111268215D01*
X150885739Y-111252788D01*
X154290377Y-111252788D01*
X154297446Y-111266236D01*
X154927188Y-111895978D01*
X154941132Y-111903592D01*
X154942965Y-111903461D01*
X154949580Y-111899210D01*
X155583276Y-111265514D01*
X155589706Y-111253739D01*
X155580410Y-111241724D01*
X155550811Y-111220999D01*
X155541323Y-111215521D01*
X155359723Y-111130841D01*
X155349429Y-111127093D01*
X155155878Y-111075231D01*
X155145091Y-111073329D01*
X154945475Y-111055865D01*
X154934525Y-111055865D01*
X154734909Y-111073329D01*
X154724122Y-111075231D01*
X154530571Y-111127093D01*
X154520277Y-111130841D01*
X154338677Y-111215521D01*
X154329189Y-111220999D01*
X154298752Y-111242311D01*
X154290377Y-111252788D01*
X150885739Y-111252788D01*
X150738139Y-111136222D01*
X150729552Y-111130517D01*
X150543117Y-111027599D01*
X150533705Y-111023369D01*
X150332959Y-110952280D01*
X150322988Y-110949646D01*
X150251837Y-110936972D01*
X150238540Y-110938432D01*
X150234000Y-110952989D01*
X150234000Y-111995885D01*
X149726000Y-111995885D01*
X149726000Y-110951102D01*
X149722082Y-110937758D01*
X149707806Y-110935771D01*
X149669324Y-110941660D01*
X149659288Y-110944051D01*
X149456868Y-111010212D01*
X149447359Y-111014209D01*
X149258463Y-111112542D01*
X149249738Y-111118036D01*
X149079433Y-111245905D01*
X149071726Y-111252748D01*
X148924590Y-111406717D01*
X148918104Y-111414727D01*
X148798098Y-111590649D01*
X148793000Y-111599623D01*
X148703338Y-111792783D01*
X148699776Y-111802465D01*
X148692601Y-111828337D01*
X148655121Y-111888634D01*
X148590991Y-111919096D01*
X148520573Y-111910052D01*
X148466224Y-111864372D01*
X148456989Y-111847912D01*
X148372479Y-111666677D01*
X148367001Y-111657189D01*
X148345689Y-111626752D01*
X148335212Y-111618377D01*
X148321764Y-111625446D01*
X147692022Y-112255188D01*
X147684408Y-112269132D01*
X147684539Y-112270965D01*
X147688790Y-112277580D01*
X148322486Y-112911276D01*
X148334261Y-112917706D01*
X148346276Y-112908410D01*
X148367001Y-112878811D01*
X148372479Y-112869323D01*
X148456595Y-112688933D01*
X148503512Y-112635647D01*
X148571789Y-112616186D01*
X148639749Y-112636727D01*
X148687533Y-112694778D01*
X148761770Y-112877603D01*
X148766413Y-112886794D01*
X148877694Y-113068388D01*
X148883777Y-113076699D01*
X149023213Y-113237667D01*
X149030577Y-113244879D01*
X149035522Y-113248985D01*
X149075156Y-113307889D01*
X149076653Y-113378870D01*
X149039537Y-113439392D01*
X148999264Y-113463910D01*
X148891705Y-113504232D01*
X148891704Y-113504233D01*
X148883295Y-113507385D01*
X148766739Y-113594739D01*
X148679385Y-113711295D01*
X148628255Y-113847684D01*
X148621500Y-113909866D01*
X148621500Y-114048500D01*
X148601498Y-114116621D01*
X148547842Y-114163114D01*
X148495500Y-114174500D01*
X148417315Y-114174500D01*
X148349194Y-114154498D01*
X148314102Y-114120770D01*
X148252460Y-114032736D01*
X148249301Y-114028224D01*
X148099776Y-113878699D01*
X147926558Y-113757411D01*
X147921580Y-113755090D01*
X147921577Y-113755088D01*
X147739892Y-113670367D01*
X147739891Y-113670366D01*
X147734910Y-113668044D01*
X147729603Y-113666622D01*
X147729592Y-113666618D01*
X147702829Y-113659447D01*
X147642207Y-113622496D01*
X147611185Y-113558635D01*
X147619614Y-113488140D01*
X147664818Y-113433394D01*
X147702830Y-113416034D01*
X147729426Y-113408908D01*
X147739723Y-113405159D01*
X147921323Y-113320479D01*
X147930811Y-113315001D01*
X147961248Y-113293689D01*
X147969623Y-113283212D01*
X147962554Y-113269764D01*
X147332812Y-112640022D01*
X147318868Y-112632408D01*
X147317035Y-112632539D01*
X147310420Y-112636790D01*
X146676724Y-113270486D01*
X146670294Y-113282261D01*
X146679590Y-113294276D01*
X146709189Y-113315001D01*
X146718677Y-113320479D01*
X146900277Y-113405159D01*
X146910574Y-113408908D01*
X146937170Y-113416034D01*
X146997793Y-113452986D01*
X147028814Y-113516846D01*
X147020386Y-113587341D01*
X146975183Y-113642088D01*
X146937171Y-113659447D01*
X146910408Y-113666618D01*
X146910397Y-113666622D01*
X146905090Y-113668044D01*
X146900109Y-113670366D01*
X146900108Y-113670367D01*
X146718423Y-113755088D01*
X146718420Y-113755090D01*
X146713442Y-113757411D01*
X146540224Y-113878699D01*
X146390699Y-114028224D01*
X146269411Y-114201442D01*
X146267090Y-114206420D01*
X146267088Y-114206423D01*
X146193551Y-114364124D01*
X146180044Y-114393090D01*
X146178622Y-114398398D01*
X146178621Y-114398400D01*
X146138500Y-114548135D01*
X146125314Y-114597345D01*
X146106884Y-114808000D01*
X143718500Y-114808000D01*
X143718500Y-113909866D01*
X143711745Y-113847684D01*
X143660615Y-113711295D01*
X143573261Y-113594739D01*
X143456705Y-113507385D01*
X143400421Y-113486285D01*
X143337687Y-113462767D01*
X143280923Y-113420125D01*
X143256223Y-113353564D01*
X143271430Y-113284215D01*
X143292977Y-113255535D01*
X143394052Y-113154812D01*
X143400730Y-113146965D01*
X143525003Y-112974020D01*
X143530313Y-112965183D01*
X143624670Y-112774267D01*
X143628469Y-112764672D01*
X143690377Y-112560910D01*
X143692555Y-112550837D01*
X143693986Y-112539962D01*
X143691775Y-112525778D01*
X143678617Y-112522000D01*
X142232000Y-112522000D01*
X142163879Y-112501998D01*
X142117386Y-112448342D01*
X142106000Y-112396000D01*
X142106000Y-112273475D01*
X146107865Y-112273475D01*
X146125329Y-112473091D01*
X146127231Y-112483878D01*
X146179093Y-112677429D01*
X146182841Y-112687723D01*
X146267521Y-112869323D01*
X146272999Y-112878811D01*
X146294311Y-112909248D01*
X146304788Y-112917623D01*
X146318236Y-112910554D01*
X146947978Y-112280812D01*
X146955592Y-112266868D01*
X146955461Y-112265035D01*
X146951210Y-112258420D01*
X146317514Y-111624724D01*
X146305739Y-111618294D01*
X146293724Y-111627590D01*
X146272999Y-111657189D01*
X146267521Y-111666677D01*
X146182841Y-111848277D01*
X146179093Y-111858571D01*
X146127231Y-112052122D01*
X146125329Y-112062909D01*
X146107865Y-112262525D01*
X146107865Y-112273475D01*
X142106000Y-112273475D01*
X142106000Y-111995885D01*
X142614000Y-111995885D01*
X142618475Y-112011124D01*
X142619865Y-112012329D01*
X142627548Y-112014000D01*
X143678344Y-112014000D01*
X143691875Y-112010027D01*
X143693180Y-112000947D01*
X143651214Y-111833875D01*
X143647894Y-111824124D01*
X143562972Y-111628814D01*
X143558105Y-111619739D01*
X143442426Y-111440926D01*
X143436136Y-111432757D01*
X143292806Y-111275240D01*
X143285273Y-111268215D01*
X143265739Y-111252788D01*
X146670377Y-111252788D01*
X146677446Y-111266236D01*
X147307188Y-111895978D01*
X147321132Y-111903592D01*
X147322965Y-111903461D01*
X147329580Y-111899210D01*
X147963276Y-111265514D01*
X147969706Y-111253739D01*
X147960410Y-111241724D01*
X147930811Y-111220999D01*
X147921323Y-111215521D01*
X147739723Y-111130841D01*
X147729429Y-111127093D01*
X147535878Y-111075231D01*
X147525091Y-111073329D01*
X147325475Y-111055865D01*
X147314525Y-111055865D01*
X147114909Y-111073329D01*
X147104122Y-111075231D01*
X146910571Y-111127093D01*
X146900277Y-111130841D01*
X146718677Y-111215521D01*
X146709189Y-111220999D01*
X146678752Y-111242311D01*
X146670377Y-111252788D01*
X143265739Y-111252788D01*
X143118139Y-111136222D01*
X143109552Y-111130517D01*
X142923117Y-111027599D01*
X142913705Y-111023369D01*
X142712959Y-110952280D01*
X142702988Y-110949646D01*
X142631837Y-110936972D01*
X142618540Y-110938432D01*
X142614000Y-110952989D01*
X142614000Y-111995885D01*
X142106000Y-111995885D01*
X142106000Y-110951102D01*
X142102082Y-110937758D01*
X142087806Y-110935771D01*
X142049324Y-110941660D01*
X142039288Y-110944051D01*
X141836868Y-111010212D01*
X141827359Y-111014209D01*
X141638463Y-111112542D01*
X141629738Y-111118036D01*
X141459433Y-111245905D01*
X141451726Y-111252748D01*
X141304590Y-111406717D01*
X141298104Y-111414727D01*
X141178098Y-111590649D01*
X141173000Y-111599623D01*
X141083338Y-111792783D01*
X141079776Y-111802465D01*
X141072601Y-111828337D01*
X141035121Y-111888634D01*
X140970991Y-111919096D01*
X140900573Y-111910052D01*
X140846224Y-111864372D01*
X140836989Y-111847912D01*
X140752479Y-111666677D01*
X140747001Y-111657189D01*
X140725689Y-111626752D01*
X140715212Y-111618377D01*
X140701764Y-111625446D01*
X140072022Y-112255188D01*
X140064408Y-112269132D01*
X140064539Y-112270965D01*
X140068790Y-112277580D01*
X140702486Y-112911276D01*
X140714261Y-112917706D01*
X140726276Y-112908410D01*
X140747001Y-112878811D01*
X140752479Y-112869323D01*
X140836595Y-112688933D01*
X140883512Y-112635647D01*
X140951789Y-112616186D01*
X141019749Y-112636727D01*
X141067533Y-112694778D01*
X141141770Y-112877603D01*
X141146413Y-112886794D01*
X141257694Y-113068388D01*
X141263777Y-113076699D01*
X141403213Y-113237667D01*
X141410577Y-113244879D01*
X141415522Y-113248985D01*
X141455156Y-113307889D01*
X141456653Y-113378870D01*
X141419537Y-113439392D01*
X141379264Y-113463910D01*
X141271705Y-113504232D01*
X141271704Y-113504233D01*
X141263295Y-113507385D01*
X141146739Y-113594739D01*
X141059385Y-113711295D01*
X141008255Y-113847684D01*
X141001500Y-113909866D01*
X141001500Y-114048500D01*
X140981498Y-114116621D01*
X140927842Y-114163114D01*
X140875500Y-114174500D01*
X140797315Y-114174500D01*
X140729194Y-114154498D01*
X140694102Y-114120770D01*
X140632460Y-114032736D01*
X140629301Y-114028224D01*
X140479776Y-113878699D01*
X140306558Y-113757411D01*
X140301580Y-113755090D01*
X140301577Y-113755088D01*
X140119892Y-113670367D01*
X140119891Y-113670366D01*
X140114910Y-113668044D01*
X140109603Y-113666622D01*
X140109592Y-113666618D01*
X140082829Y-113659447D01*
X140022207Y-113622496D01*
X139991185Y-113558635D01*
X139999614Y-113488140D01*
X140044818Y-113433394D01*
X140082830Y-113416034D01*
X140109426Y-113408908D01*
X140119723Y-113405159D01*
X140301323Y-113320479D01*
X140310811Y-113315001D01*
X140341248Y-113293689D01*
X140349623Y-113283212D01*
X140342554Y-113269764D01*
X139712812Y-112640022D01*
X139698868Y-112632408D01*
X139697035Y-112632539D01*
X139690420Y-112636790D01*
X139056724Y-113270486D01*
X139050294Y-113282261D01*
X139059590Y-113294276D01*
X139089189Y-113315001D01*
X139098677Y-113320479D01*
X139280277Y-113405159D01*
X139290574Y-113408908D01*
X139317170Y-113416034D01*
X139377793Y-113452986D01*
X139408814Y-113516846D01*
X139400386Y-113587341D01*
X139355183Y-113642088D01*
X139317171Y-113659447D01*
X139290408Y-113666618D01*
X139290397Y-113666622D01*
X139285090Y-113668044D01*
X139280109Y-113670366D01*
X139280108Y-113670367D01*
X139098423Y-113755088D01*
X139098420Y-113755090D01*
X139093442Y-113757411D01*
X138920224Y-113878699D01*
X138770699Y-114028224D01*
X138649411Y-114201442D01*
X138647090Y-114206420D01*
X138647088Y-114206423D01*
X138573551Y-114364124D01*
X138560044Y-114393090D01*
X138558622Y-114398398D01*
X138558621Y-114398400D01*
X138518500Y-114548135D01*
X138505314Y-114597345D01*
X138486884Y-114808000D01*
X136098500Y-114808000D01*
X136098500Y-113909866D01*
X136091745Y-113847684D01*
X136040615Y-113711295D01*
X135953261Y-113594739D01*
X135836705Y-113507385D01*
X135780421Y-113486285D01*
X135717687Y-113462767D01*
X135660923Y-113420125D01*
X135636223Y-113353564D01*
X135651430Y-113284215D01*
X135672977Y-113255535D01*
X135774052Y-113154812D01*
X135780730Y-113146965D01*
X135905003Y-112974020D01*
X135910313Y-112965183D01*
X136004670Y-112774267D01*
X136008469Y-112764672D01*
X136070377Y-112560910D01*
X136072555Y-112550837D01*
X136073986Y-112539962D01*
X136071775Y-112525778D01*
X136058617Y-112522000D01*
X134612000Y-112522000D01*
X134543879Y-112501998D01*
X134497386Y-112448342D01*
X134486000Y-112396000D01*
X134486000Y-112273475D01*
X138487865Y-112273475D01*
X138505329Y-112473091D01*
X138507231Y-112483878D01*
X138559093Y-112677429D01*
X138562841Y-112687723D01*
X138647521Y-112869323D01*
X138652999Y-112878811D01*
X138674311Y-112909248D01*
X138684788Y-112917623D01*
X138698236Y-112910554D01*
X139327978Y-112280812D01*
X139335592Y-112266868D01*
X139335461Y-112265035D01*
X139331210Y-112258420D01*
X138697514Y-111624724D01*
X138685739Y-111618294D01*
X138673724Y-111627590D01*
X138652999Y-111657189D01*
X138647521Y-111666677D01*
X138562841Y-111848277D01*
X138559093Y-111858571D01*
X138507231Y-112052122D01*
X138505329Y-112062909D01*
X138487865Y-112262525D01*
X138487865Y-112273475D01*
X134486000Y-112273475D01*
X134486000Y-111995885D01*
X134994000Y-111995885D01*
X134998475Y-112011124D01*
X134999865Y-112012329D01*
X135007548Y-112014000D01*
X136058344Y-112014000D01*
X136071875Y-112010027D01*
X136073180Y-112000947D01*
X136031214Y-111833875D01*
X136027894Y-111824124D01*
X135942972Y-111628814D01*
X135938105Y-111619739D01*
X135822426Y-111440926D01*
X135816136Y-111432757D01*
X135672806Y-111275240D01*
X135665273Y-111268215D01*
X135645739Y-111252788D01*
X139050377Y-111252788D01*
X139057446Y-111266236D01*
X139687188Y-111895978D01*
X139701132Y-111903592D01*
X139702965Y-111903461D01*
X139709580Y-111899210D01*
X140343276Y-111265514D01*
X140349706Y-111253739D01*
X140340410Y-111241724D01*
X140310811Y-111220999D01*
X140301323Y-111215521D01*
X140119723Y-111130841D01*
X140109429Y-111127093D01*
X139915878Y-111075231D01*
X139905091Y-111073329D01*
X139705475Y-111055865D01*
X139694525Y-111055865D01*
X139494909Y-111073329D01*
X139484122Y-111075231D01*
X139290571Y-111127093D01*
X139280277Y-111130841D01*
X139098677Y-111215521D01*
X139089189Y-111220999D01*
X139058752Y-111242311D01*
X139050377Y-111252788D01*
X135645739Y-111252788D01*
X135498139Y-111136222D01*
X135489552Y-111130517D01*
X135303117Y-111027599D01*
X135293705Y-111023369D01*
X135092959Y-110952280D01*
X135082988Y-110949646D01*
X135011837Y-110936972D01*
X134998540Y-110938432D01*
X134994000Y-110952989D01*
X134994000Y-111995885D01*
X134486000Y-111995885D01*
X134486000Y-110951102D01*
X134482082Y-110937758D01*
X134467806Y-110935771D01*
X134429324Y-110941660D01*
X134419288Y-110944051D01*
X134216868Y-111010212D01*
X134207359Y-111014209D01*
X134018463Y-111112542D01*
X134009738Y-111118036D01*
X133839433Y-111245905D01*
X133831726Y-111252748D01*
X133684590Y-111406717D01*
X133678104Y-111414727D01*
X133558098Y-111590649D01*
X133553000Y-111599623D01*
X133463338Y-111792783D01*
X133459776Y-111802465D01*
X133452601Y-111828337D01*
X133415121Y-111888634D01*
X133350991Y-111919096D01*
X133280573Y-111910052D01*
X133226224Y-111864372D01*
X133216989Y-111847912D01*
X133132479Y-111666677D01*
X133127001Y-111657189D01*
X133105689Y-111626752D01*
X133095212Y-111618377D01*
X133081764Y-111625446D01*
X132452022Y-112255188D01*
X132444408Y-112269132D01*
X132444539Y-112270965D01*
X132448790Y-112277580D01*
X133082486Y-112911276D01*
X133094261Y-112917706D01*
X133106276Y-112908410D01*
X133127001Y-112878811D01*
X133132479Y-112869323D01*
X133216595Y-112688933D01*
X133263512Y-112635647D01*
X133331789Y-112616186D01*
X133399749Y-112636727D01*
X133447533Y-112694778D01*
X133521770Y-112877603D01*
X133526413Y-112886794D01*
X133637694Y-113068388D01*
X133643777Y-113076699D01*
X133783213Y-113237667D01*
X133790577Y-113244879D01*
X133795522Y-113248985D01*
X133835156Y-113307889D01*
X133836653Y-113378870D01*
X133799537Y-113439392D01*
X133759264Y-113463910D01*
X133651705Y-113504232D01*
X133651704Y-113504233D01*
X133643295Y-113507385D01*
X133526739Y-113594739D01*
X133439385Y-113711295D01*
X133388255Y-113847684D01*
X133381500Y-113909866D01*
X133381500Y-114048500D01*
X133361498Y-114116621D01*
X133307842Y-114163114D01*
X133255500Y-114174500D01*
X133177315Y-114174500D01*
X133109194Y-114154498D01*
X133074102Y-114120770D01*
X133012460Y-114032736D01*
X133009301Y-114028224D01*
X132859776Y-113878699D01*
X132686558Y-113757411D01*
X132681580Y-113755090D01*
X132681577Y-113755088D01*
X132499892Y-113670367D01*
X132499891Y-113670366D01*
X132494910Y-113668044D01*
X132489603Y-113666622D01*
X132489592Y-113666618D01*
X132462829Y-113659447D01*
X132402207Y-113622496D01*
X132371185Y-113558635D01*
X132379614Y-113488140D01*
X132424818Y-113433394D01*
X132462830Y-113416034D01*
X132489426Y-113408908D01*
X132499723Y-113405159D01*
X132681323Y-113320479D01*
X132690811Y-113315001D01*
X132721248Y-113293689D01*
X132729623Y-113283212D01*
X132722554Y-113269764D01*
X132092812Y-112640022D01*
X132078868Y-112632408D01*
X132077035Y-112632539D01*
X132070420Y-112636790D01*
X131436724Y-113270486D01*
X131430294Y-113282261D01*
X131439590Y-113294276D01*
X131469189Y-113315001D01*
X131478677Y-113320479D01*
X131660277Y-113405159D01*
X131670574Y-113408908D01*
X131697170Y-113416034D01*
X131757793Y-113452986D01*
X131788814Y-113516846D01*
X131780386Y-113587341D01*
X131735183Y-113642088D01*
X131697171Y-113659447D01*
X131670408Y-113666618D01*
X131670397Y-113666622D01*
X131665090Y-113668044D01*
X131660109Y-113670366D01*
X131660108Y-113670367D01*
X131478423Y-113755088D01*
X131478420Y-113755090D01*
X131473442Y-113757411D01*
X131300224Y-113878699D01*
X131150699Y-114028224D01*
X131029411Y-114201442D01*
X131027090Y-114206420D01*
X131027088Y-114206423D01*
X130953551Y-114364124D01*
X130940044Y-114393090D01*
X130938622Y-114398398D01*
X130938621Y-114398400D01*
X130898500Y-114548135D01*
X130885314Y-114597345D01*
X130866884Y-114808000D01*
X128478500Y-114808000D01*
X128478500Y-113909866D01*
X128471745Y-113847684D01*
X128420615Y-113711295D01*
X128333261Y-113594739D01*
X128216705Y-113507385D01*
X128160421Y-113486285D01*
X128097687Y-113462767D01*
X128040923Y-113420125D01*
X128016223Y-113353564D01*
X128031430Y-113284215D01*
X128052977Y-113255535D01*
X128154052Y-113154812D01*
X128160730Y-113146965D01*
X128285003Y-112974020D01*
X128290313Y-112965183D01*
X128384670Y-112774267D01*
X128388469Y-112764672D01*
X128450377Y-112560910D01*
X128452555Y-112550837D01*
X128453986Y-112539962D01*
X128451775Y-112525778D01*
X128438617Y-112522000D01*
X126992000Y-112522000D01*
X126923879Y-112501998D01*
X126877386Y-112448342D01*
X126866000Y-112396000D01*
X126866000Y-112273475D01*
X130867865Y-112273475D01*
X130885329Y-112473091D01*
X130887231Y-112483878D01*
X130939093Y-112677429D01*
X130942841Y-112687723D01*
X131027521Y-112869323D01*
X131032999Y-112878811D01*
X131054311Y-112909248D01*
X131064788Y-112917623D01*
X131078236Y-112910554D01*
X131707978Y-112280812D01*
X131715592Y-112266868D01*
X131715461Y-112265035D01*
X131711210Y-112258420D01*
X131077514Y-111624724D01*
X131065739Y-111618294D01*
X131053724Y-111627590D01*
X131032999Y-111657189D01*
X131027521Y-111666677D01*
X130942841Y-111848277D01*
X130939093Y-111858571D01*
X130887231Y-112052122D01*
X130885329Y-112062909D01*
X130867865Y-112262525D01*
X130867865Y-112273475D01*
X126866000Y-112273475D01*
X126866000Y-111995885D01*
X127374000Y-111995885D01*
X127378475Y-112011124D01*
X127379865Y-112012329D01*
X127387548Y-112014000D01*
X128438344Y-112014000D01*
X128451875Y-112010027D01*
X128453180Y-112000947D01*
X128411214Y-111833875D01*
X128407894Y-111824124D01*
X128322972Y-111628814D01*
X128318105Y-111619739D01*
X128202426Y-111440926D01*
X128196136Y-111432757D01*
X128052806Y-111275240D01*
X128045273Y-111268215D01*
X128025739Y-111252788D01*
X131430377Y-111252788D01*
X131437446Y-111266236D01*
X132067188Y-111895978D01*
X132081132Y-111903592D01*
X132082965Y-111903461D01*
X132089580Y-111899210D01*
X132723276Y-111265514D01*
X132729706Y-111253739D01*
X132720410Y-111241724D01*
X132690811Y-111220999D01*
X132681323Y-111215521D01*
X132499723Y-111130841D01*
X132489429Y-111127093D01*
X132295878Y-111075231D01*
X132285091Y-111073329D01*
X132085475Y-111055865D01*
X132074525Y-111055865D01*
X131874909Y-111073329D01*
X131864122Y-111075231D01*
X131670571Y-111127093D01*
X131660277Y-111130841D01*
X131478677Y-111215521D01*
X131469189Y-111220999D01*
X131438752Y-111242311D01*
X131430377Y-111252788D01*
X128025739Y-111252788D01*
X127878139Y-111136222D01*
X127869552Y-111130517D01*
X127683117Y-111027599D01*
X127673705Y-111023369D01*
X127472959Y-110952280D01*
X127462988Y-110949646D01*
X127391837Y-110936972D01*
X127378540Y-110938432D01*
X127374000Y-110952989D01*
X127374000Y-111995885D01*
X126866000Y-111995885D01*
X126866000Y-110951102D01*
X126862082Y-110937758D01*
X126847806Y-110935771D01*
X126809324Y-110941660D01*
X126799288Y-110944051D01*
X126596868Y-111010212D01*
X126587359Y-111014209D01*
X126398463Y-111112542D01*
X126389738Y-111118036D01*
X126219433Y-111245905D01*
X126211726Y-111252748D01*
X126064590Y-111406717D01*
X126058104Y-111414727D01*
X125938098Y-111590649D01*
X125933000Y-111599623D01*
X125843338Y-111792783D01*
X125839776Y-111802465D01*
X125832601Y-111828337D01*
X125795121Y-111888634D01*
X125730991Y-111919096D01*
X125660573Y-111910052D01*
X125606224Y-111864372D01*
X125596989Y-111847912D01*
X125512479Y-111666677D01*
X125507001Y-111657189D01*
X125485689Y-111626752D01*
X125475212Y-111618377D01*
X125461764Y-111625446D01*
X124832022Y-112255188D01*
X124824408Y-112269132D01*
X124824539Y-112270965D01*
X124828790Y-112277580D01*
X125462486Y-112911276D01*
X125474261Y-112917706D01*
X125486276Y-112908410D01*
X125507001Y-112878811D01*
X125512479Y-112869323D01*
X125596595Y-112688933D01*
X125643512Y-112635647D01*
X125711789Y-112616186D01*
X125779749Y-112636727D01*
X125827533Y-112694778D01*
X125901770Y-112877603D01*
X125906413Y-112886794D01*
X126017694Y-113068388D01*
X126023777Y-113076699D01*
X126163213Y-113237667D01*
X126170577Y-113244879D01*
X126175522Y-113248985D01*
X126215156Y-113307889D01*
X126216653Y-113378870D01*
X126179537Y-113439392D01*
X126139264Y-113463910D01*
X126031705Y-113504232D01*
X126031704Y-113504233D01*
X126023295Y-113507385D01*
X125906739Y-113594739D01*
X125819385Y-113711295D01*
X125768255Y-113847684D01*
X125761500Y-113909866D01*
X125761500Y-114171173D01*
X125741498Y-114239294D01*
X125687842Y-114285787D01*
X125617568Y-114295891D01*
X125552988Y-114266397D01*
X125521305Y-114224422D01*
X125512914Y-114206427D01*
X125512912Y-114206423D01*
X125510589Y-114201442D01*
X125389301Y-114028224D01*
X125239776Y-113878699D01*
X125066558Y-113757411D01*
X125061580Y-113755090D01*
X125061577Y-113755088D01*
X124879892Y-113670367D01*
X124879891Y-113670366D01*
X124874910Y-113668044D01*
X124869603Y-113666622D01*
X124869592Y-113666618D01*
X124842829Y-113659447D01*
X124782207Y-113622496D01*
X124751185Y-113558635D01*
X124759614Y-113488140D01*
X124804818Y-113433394D01*
X124842830Y-113416034D01*
X124869426Y-113408908D01*
X124879723Y-113405159D01*
X125061323Y-113320479D01*
X125070811Y-113315001D01*
X125101248Y-113293689D01*
X125109623Y-113283212D01*
X125102554Y-113269764D01*
X124472812Y-112640022D01*
X124458868Y-112632408D01*
X124457035Y-112632539D01*
X124450420Y-112636790D01*
X123816724Y-113270486D01*
X123810294Y-113282261D01*
X123819590Y-113294276D01*
X123849189Y-113315001D01*
X123858677Y-113320479D01*
X124040277Y-113405159D01*
X124050574Y-113408908D01*
X124077170Y-113416034D01*
X124137793Y-113452986D01*
X124168814Y-113516846D01*
X124160386Y-113587341D01*
X124115183Y-113642088D01*
X124077171Y-113659447D01*
X124050408Y-113666618D01*
X124050397Y-113666622D01*
X124045090Y-113668044D01*
X124040109Y-113670366D01*
X124040108Y-113670367D01*
X123858423Y-113755088D01*
X123858420Y-113755090D01*
X123853442Y-113757411D01*
X123680224Y-113878699D01*
X123530699Y-114028224D01*
X123409411Y-114201442D01*
X123407090Y-114206420D01*
X123407088Y-114206423D01*
X123333551Y-114364124D01*
X123320044Y-114393090D01*
X123318622Y-114398398D01*
X123318621Y-114398400D01*
X123278500Y-114548135D01*
X123265314Y-114597345D01*
X123246884Y-114808000D01*
X109728500Y-114808000D01*
X109728500Y-113162669D01*
X118022001Y-113162669D01*
X118022371Y-113169490D01*
X118027895Y-113220352D01*
X118031521Y-113235604D01*
X118076676Y-113356054D01*
X118085214Y-113371649D01*
X118161715Y-113473724D01*
X118174276Y-113486285D01*
X118276351Y-113562786D01*
X118291946Y-113571324D01*
X118401337Y-113612333D01*
X118458101Y-113654975D01*
X118482801Y-113721536D01*
X118467594Y-113790885D01*
X118448201Y-113817366D01*
X118324590Y-113946717D01*
X118318104Y-113954727D01*
X118198098Y-114130649D01*
X118193000Y-114139623D01*
X118103338Y-114332783D01*
X118099775Y-114342470D01*
X118044389Y-114542183D01*
X118045912Y-114550607D01*
X118058292Y-114554000D01*
X119107885Y-114554000D01*
X119123124Y-114549525D01*
X119124329Y-114548135D01*
X119126000Y-114540452D01*
X119126000Y-114535885D01*
X119634000Y-114535885D01*
X119638475Y-114551124D01*
X119639865Y-114552329D01*
X119647548Y-114554000D01*
X120698344Y-114554000D01*
X120711875Y-114550027D01*
X120713180Y-114540947D01*
X120671214Y-114373875D01*
X120667894Y-114364124D01*
X120582972Y-114168814D01*
X120578105Y-114159739D01*
X120462426Y-113980926D01*
X120456136Y-113972757D01*
X120311931Y-113814279D01*
X120280879Y-113750433D01*
X120289273Y-113679934D01*
X120334450Y-113625166D01*
X120360894Y-113611497D01*
X120468054Y-113571324D01*
X120483649Y-113562786D01*
X120585724Y-113486285D01*
X120598285Y-113473724D01*
X120674786Y-113371649D01*
X120683324Y-113356054D01*
X120728478Y-113235606D01*
X120732105Y-113220351D01*
X120737631Y-113169486D01*
X120738000Y-113162672D01*
X120738000Y-112540115D01*
X120733525Y-112524876D01*
X120732135Y-112523671D01*
X120724452Y-112522000D01*
X119652115Y-112522000D01*
X119636876Y-112526475D01*
X119635671Y-112527865D01*
X119634000Y-112535548D01*
X119634000Y-114535885D01*
X119126000Y-114535885D01*
X119126000Y-112540115D01*
X119121525Y-112524876D01*
X119120135Y-112523671D01*
X119112452Y-112522000D01*
X118040116Y-112522000D01*
X118024877Y-112526475D01*
X118023672Y-112527865D01*
X118022001Y-112535548D01*
X118022001Y-113162669D01*
X109728500Y-113162669D01*
X109728500Y-112273475D01*
X123247865Y-112273475D01*
X123265329Y-112473091D01*
X123267231Y-112483878D01*
X123319093Y-112677429D01*
X123322841Y-112687723D01*
X123407521Y-112869323D01*
X123412999Y-112878811D01*
X123434311Y-112909248D01*
X123444788Y-112917623D01*
X123458236Y-112910554D01*
X124087978Y-112280812D01*
X124095592Y-112266868D01*
X124095461Y-112265035D01*
X124091210Y-112258420D01*
X123457514Y-111624724D01*
X123445739Y-111618294D01*
X123433724Y-111627590D01*
X123412999Y-111657189D01*
X123407521Y-111666677D01*
X123322841Y-111848277D01*
X123319093Y-111858571D01*
X123267231Y-112052122D01*
X123265329Y-112062909D01*
X123247865Y-112262525D01*
X123247865Y-112273475D01*
X109728500Y-112273475D01*
X109728500Y-111995885D01*
X118022000Y-111995885D01*
X118026475Y-112011124D01*
X118027865Y-112012329D01*
X118035548Y-112014000D01*
X119107885Y-112014000D01*
X119123124Y-112009525D01*
X119124329Y-112008135D01*
X119126000Y-112000452D01*
X119126000Y-111995885D01*
X119634000Y-111995885D01*
X119638475Y-112011124D01*
X119639865Y-112012329D01*
X119647548Y-112014000D01*
X120719884Y-112014000D01*
X120735123Y-112009525D01*
X120736328Y-112008135D01*
X120737999Y-112000452D01*
X120737999Y-111373331D01*
X120737629Y-111366510D01*
X120732105Y-111315648D01*
X120728479Y-111300396D01*
X120710631Y-111252788D01*
X123810377Y-111252788D01*
X123817446Y-111266236D01*
X124447188Y-111895978D01*
X124461132Y-111903592D01*
X124462965Y-111903461D01*
X124469580Y-111899210D01*
X125103276Y-111265514D01*
X125109706Y-111253739D01*
X125100410Y-111241724D01*
X125070811Y-111220999D01*
X125061323Y-111215521D01*
X124879723Y-111130841D01*
X124869429Y-111127093D01*
X124675878Y-111075231D01*
X124665091Y-111073329D01*
X124465475Y-111055865D01*
X124454525Y-111055865D01*
X124254909Y-111073329D01*
X124244122Y-111075231D01*
X124050571Y-111127093D01*
X124040277Y-111130841D01*
X123858677Y-111215521D01*
X123849189Y-111220999D01*
X123818752Y-111242311D01*
X123810377Y-111252788D01*
X120710631Y-111252788D01*
X120683324Y-111179946D01*
X120674786Y-111164351D01*
X120598285Y-111062276D01*
X120585724Y-111049715D01*
X120483649Y-110973214D01*
X120468054Y-110964676D01*
X120347606Y-110919522D01*
X120332351Y-110915895D01*
X120281486Y-110910369D01*
X120274672Y-110910000D01*
X119652115Y-110910000D01*
X119636876Y-110914475D01*
X119635671Y-110915865D01*
X119634000Y-110923548D01*
X119634000Y-111995885D01*
X119126000Y-111995885D01*
X119126000Y-110928116D01*
X119121525Y-110912877D01*
X119120135Y-110911672D01*
X119112452Y-110910001D01*
X118485331Y-110910001D01*
X118478510Y-110910371D01*
X118427648Y-110915895D01*
X118412396Y-110919521D01*
X118291946Y-110964676D01*
X118276351Y-110973214D01*
X118174276Y-111049715D01*
X118161715Y-111062276D01*
X118085214Y-111164351D01*
X118076676Y-111179946D01*
X118031522Y-111300394D01*
X118027895Y-111315649D01*
X118022369Y-111366514D01*
X118022000Y-111373328D01*
X118022000Y-111995885D01*
X109728500Y-111995885D01*
X109728500Y-98705695D01*
X121844853Y-98705695D01*
X121845150Y-98710848D01*
X121845150Y-98710851D01*
X121854686Y-98876233D01*
X121857712Y-98928715D01*
X121858849Y-98933761D01*
X121858850Y-98933767D01*
X121866281Y-98966739D01*
X121906824Y-99146639D01*
X121990868Y-99353616D01*
X121993567Y-99358020D01*
X122057343Y-99462093D01*
X122107589Y-99544088D01*
X122253852Y-99712938D01*
X122257832Y-99716242D01*
X122262583Y-99720187D01*
X122302218Y-99779090D01*
X122303715Y-99850071D01*
X122266599Y-99910593D01*
X122226326Y-99935112D01*
X122110897Y-99978385D01*
X121994341Y-100065739D01*
X121906987Y-100182295D01*
X121855857Y-100318684D01*
X121849102Y-100380866D01*
X121849102Y-102177134D01*
X121855857Y-102239316D01*
X121906987Y-102375705D01*
X121994341Y-102492261D01*
X122110897Y-102579615D01*
X122247286Y-102630745D01*
X122309468Y-102637500D01*
X124105736Y-102637500D01*
X124167918Y-102630745D01*
X124304307Y-102579615D01*
X124420863Y-102492261D01*
X124508217Y-102375705D01*
X124559347Y-102239316D01*
X124566102Y-102177134D01*
X124566102Y-101562670D01*
X127499762Y-101562670D01*
X127505489Y-101570320D01*
X127676644Y-101675205D01*
X127685439Y-101679687D01*
X127895590Y-101766734D01*
X127904975Y-101769783D01*
X128126156Y-101822885D01*
X128135903Y-101824428D01*
X128362672Y-101842275D01*
X128372532Y-101842275D01*
X128599301Y-101824428D01*
X128609048Y-101822885D01*
X128830229Y-101769783D01*
X128839614Y-101766734D01*
X129049765Y-101679687D01*
X129058560Y-101675205D01*
X129226047Y-101572568D01*
X129235509Y-101562110D01*
X129231726Y-101553334D01*
X129056526Y-101378134D01*
X131859102Y-101378134D01*
X131865857Y-101440316D01*
X131916987Y-101576705D01*
X132004341Y-101693261D01*
X132120897Y-101780615D01*
X132257286Y-101831745D01*
X132319468Y-101838500D01*
X132405246Y-101838500D01*
X132473367Y-101858502D01*
X132519860Y-101912158D01*
X132531246Y-101964500D01*
X132531246Y-103378134D01*
X132538001Y-103440316D01*
X132589131Y-103576705D01*
X132676485Y-103693261D01*
X132793041Y-103780615D01*
X132929430Y-103831745D01*
X132991612Y-103838500D01*
X135087880Y-103838500D01*
X135150062Y-103831745D01*
X135286451Y-103780615D01*
X135403007Y-103693261D01*
X135490361Y-103576705D01*
X135541491Y-103440316D01*
X135548246Y-103378134D01*
X135548246Y-101562670D01*
X138929762Y-101562670D01*
X138935489Y-101570320D01*
X139106644Y-101675205D01*
X139115439Y-101679687D01*
X139325590Y-101766734D01*
X139334975Y-101769783D01*
X139556156Y-101822885D01*
X139565903Y-101824428D01*
X139792672Y-101842275D01*
X139802532Y-101842275D01*
X140029301Y-101824428D01*
X140039048Y-101822885D01*
X140260229Y-101769783D01*
X140269614Y-101766734D01*
X140479765Y-101679687D01*
X140488560Y-101675205D01*
X140656047Y-101572568D01*
X140665509Y-101562110D01*
X140661726Y-101553334D01*
X140486526Y-101378134D01*
X143289102Y-101378134D01*
X143295857Y-101440316D01*
X143346987Y-101576705D01*
X143434341Y-101693261D01*
X143550897Y-101780615D01*
X143687286Y-101831745D01*
X143749468Y-101838500D01*
X143835246Y-101838500D01*
X143903367Y-101858502D01*
X143949860Y-101912158D01*
X143961246Y-101964500D01*
X143961246Y-103378134D01*
X143968001Y-103440316D01*
X144019131Y-103576705D01*
X144106485Y-103693261D01*
X144223041Y-103780615D01*
X144359430Y-103831745D01*
X144421612Y-103838500D01*
X146517880Y-103838500D01*
X146580062Y-103831745D01*
X146716451Y-103780615D01*
X146833007Y-103693261D01*
X146920361Y-103576705D01*
X146971491Y-103440316D01*
X146978246Y-103378134D01*
X146978246Y-101562670D01*
X150359762Y-101562670D01*
X150365489Y-101570320D01*
X150536644Y-101675205D01*
X150545439Y-101679687D01*
X150755590Y-101766734D01*
X150764975Y-101769783D01*
X150986156Y-101822885D01*
X150995903Y-101824428D01*
X151222672Y-101842275D01*
X151232532Y-101842275D01*
X151459301Y-101824428D01*
X151469048Y-101822885D01*
X151690229Y-101769783D01*
X151699614Y-101766734D01*
X151909765Y-101679687D01*
X151918560Y-101675205D01*
X152086047Y-101572568D01*
X152095509Y-101562110D01*
X152091726Y-101553334D01*
X151916526Y-101378134D01*
X154719102Y-101378134D01*
X154725857Y-101440316D01*
X154776987Y-101576705D01*
X154864341Y-101693261D01*
X154980897Y-101780615D01*
X155117286Y-101831745D01*
X155179468Y-101838500D01*
X155265246Y-101838500D01*
X155333367Y-101858502D01*
X155379860Y-101912158D01*
X155391246Y-101964500D01*
X155391246Y-103378134D01*
X155398001Y-103440316D01*
X155449131Y-103576705D01*
X155536485Y-103693261D01*
X155653041Y-103780615D01*
X155789430Y-103831745D01*
X155851612Y-103838500D01*
X157947880Y-103838500D01*
X158010062Y-103831745D01*
X158146451Y-103780615D01*
X158263007Y-103693261D01*
X158350361Y-103576705D01*
X158401491Y-103440316D01*
X158408246Y-103378134D01*
X158408246Y-101281866D01*
X158401491Y-101219684D01*
X158350361Y-101083295D01*
X158263007Y-100966739D01*
X158146451Y-100879385D01*
X158010062Y-100828255D01*
X157947880Y-100821500D01*
X157862102Y-100821500D01*
X157793981Y-100801498D01*
X157747488Y-100747842D01*
X157736102Y-100695500D01*
X157736102Y-99281866D01*
X157729347Y-99219684D01*
X157678217Y-99083295D01*
X157590863Y-98966739D01*
X157474307Y-98879385D01*
X157337918Y-98828255D01*
X157275736Y-98821500D01*
X155179468Y-98821500D01*
X155117286Y-98828255D01*
X154980897Y-98879385D01*
X154864341Y-98966739D01*
X154776987Y-99083295D01*
X154725857Y-99219684D01*
X154719102Y-99281866D01*
X154719102Y-101378134D01*
X151916526Y-101378134D01*
X151240414Y-100702022D01*
X151226470Y-100694408D01*
X151224637Y-100694539D01*
X151218022Y-100698790D01*
X150366522Y-101550290D01*
X150359762Y-101562670D01*
X146978246Y-101562670D01*
X146978246Y-101281866D01*
X146971491Y-101219684D01*
X146920361Y-101083295D01*
X146833007Y-100966739D01*
X146716451Y-100879385D01*
X146580062Y-100828255D01*
X146517880Y-100821500D01*
X146432102Y-100821500D01*
X146363981Y-100801498D01*
X146317488Y-100747842D01*
X146306102Y-100695500D01*
X146306102Y-99562670D01*
X149687618Y-99562670D01*
X149693344Y-99570319D01*
X149774403Y-99619993D01*
X149822034Y-99672641D01*
X149833640Y-99742682D01*
X149824976Y-99775642D01*
X149790870Y-99857983D01*
X149787819Y-99867373D01*
X149734717Y-100088554D01*
X149733174Y-100098301D01*
X149715327Y-100325070D01*
X149715327Y-100334930D01*
X149733174Y-100561699D01*
X149734717Y-100571446D01*
X149787819Y-100792627D01*
X149790868Y-100802012D01*
X149877915Y-101012163D01*
X149882397Y-101020958D01*
X149985034Y-101188445D01*
X149995492Y-101197907D01*
X150004268Y-101194124D01*
X150867260Y-100331132D01*
X151592010Y-100331132D01*
X151592141Y-100332965D01*
X151596392Y-100339580D01*
X152447892Y-101191080D01*
X152460272Y-101197840D01*
X152467922Y-101192113D01*
X152572807Y-101020958D01*
X152577289Y-101012163D01*
X152664336Y-100802012D01*
X152667385Y-100792627D01*
X152720487Y-100571446D01*
X152722030Y-100561699D01*
X152739877Y-100334930D01*
X152739877Y-100325070D01*
X152722030Y-100098301D01*
X152720487Y-100088554D01*
X152667385Y-99867373D01*
X152664336Y-99857988D01*
X152577289Y-99647837D01*
X152572807Y-99639042D01*
X152470170Y-99471555D01*
X152459712Y-99462093D01*
X152450936Y-99465876D01*
X151599624Y-100317188D01*
X151592010Y-100331132D01*
X150867260Y-100331132D01*
X152088682Y-99109710D01*
X152095442Y-99097330D01*
X152089716Y-99089681D01*
X152008657Y-99040007D01*
X151961026Y-98987359D01*
X151949420Y-98917318D01*
X151958084Y-98884358D01*
X151992190Y-98802017D01*
X151995241Y-98792627D01*
X152048343Y-98571446D01*
X152049886Y-98561699D01*
X152067733Y-98334930D01*
X152067733Y-98325070D01*
X152049886Y-98098301D01*
X152048343Y-98088554D01*
X151995241Y-97867373D01*
X151992192Y-97857988D01*
X151905145Y-97647837D01*
X151900663Y-97639042D01*
X151798026Y-97471555D01*
X151787568Y-97462093D01*
X151778792Y-97465876D01*
X149694378Y-99550290D01*
X149687618Y-99562670D01*
X146306102Y-99562670D01*
X146306102Y-99281866D01*
X146299347Y-99219684D01*
X146248217Y-99083295D01*
X146160863Y-98966739D01*
X146044307Y-98879385D01*
X145907918Y-98828255D01*
X145845736Y-98821500D01*
X143749468Y-98821500D01*
X143687286Y-98828255D01*
X143550897Y-98879385D01*
X143434341Y-98966739D01*
X143346987Y-99083295D01*
X143295857Y-99219684D01*
X143289102Y-99281866D01*
X143289102Y-101378134D01*
X140486526Y-101378134D01*
X139810414Y-100702022D01*
X139796470Y-100694408D01*
X139794637Y-100694539D01*
X139788022Y-100698790D01*
X138936522Y-101550290D01*
X138929762Y-101562670D01*
X135548246Y-101562670D01*
X135548246Y-101281866D01*
X135541491Y-101219684D01*
X135490361Y-101083295D01*
X135403007Y-100966739D01*
X135286451Y-100879385D01*
X135150062Y-100828255D01*
X135087880Y-100821500D01*
X135002102Y-100821500D01*
X134933981Y-100801498D01*
X134887488Y-100747842D01*
X134876102Y-100695500D01*
X134876102Y-99562670D01*
X138257618Y-99562670D01*
X138263344Y-99570319D01*
X138344403Y-99619993D01*
X138392034Y-99672641D01*
X138403640Y-99742682D01*
X138394976Y-99775642D01*
X138360870Y-99857983D01*
X138357819Y-99867373D01*
X138304717Y-100088554D01*
X138303174Y-100098301D01*
X138285327Y-100325070D01*
X138285327Y-100334930D01*
X138303174Y-100561699D01*
X138304717Y-100571446D01*
X138357819Y-100792627D01*
X138360868Y-100802012D01*
X138447915Y-101012163D01*
X138452397Y-101020958D01*
X138555034Y-101188445D01*
X138565492Y-101197907D01*
X138574268Y-101194124D01*
X139437260Y-100331132D01*
X140162010Y-100331132D01*
X140162141Y-100332965D01*
X140166392Y-100339580D01*
X141017892Y-101191080D01*
X141030272Y-101197840D01*
X141037922Y-101192113D01*
X141142807Y-101020958D01*
X141147289Y-101012163D01*
X141234336Y-100802012D01*
X141237385Y-100792627D01*
X141290487Y-100571446D01*
X141292030Y-100561699D01*
X141309877Y-100334930D01*
X141309877Y-100325070D01*
X141292030Y-100098301D01*
X141290487Y-100088554D01*
X141237385Y-99867373D01*
X141234336Y-99857988D01*
X141147289Y-99647837D01*
X141142807Y-99639042D01*
X141040170Y-99471555D01*
X141029712Y-99462093D01*
X141020936Y-99465876D01*
X140169624Y-100317188D01*
X140162010Y-100331132D01*
X139437260Y-100331132D01*
X140658682Y-99109710D01*
X140665442Y-99097330D01*
X140659716Y-99089681D01*
X140578657Y-99040007D01*
X140531026Y-98987359D01*
X140519420Y-98917318D01*
X140528084Y-98884358D01*
X140562190Y-98802017D01*
X140565241Y-98792627D01*
X140618343Y-98571446D01*
X140619886Y-98561699D01*
X140637733Y-98334930D01*
X149043183Y-98334930D01*
X149061030Y-98561699D01*
X149062573Y-98571446D01*
X149115675Y-98792627D01*
X149118724Y-98802012D01*
X149205771Y-99012163D01*
X149210253Y-99020958D01*
X149312890Y-99188445D01*
X149323348Y-99197907D01*
X149332124Y-99194124D01*
X150183436Y-98342812D01*
X150191050Y-98328868D01*
X150190919Y-98327035D01*
X150186668Y-98320420D01*
X149335168Y-97468920D01*
X149322788Y-97462160D01*
X149315138Y-97467887D01*
X149210253Y-97639042D01*
X149205771Y-97647837D01*
X149118724Y-97857988D01*
X149115675Y-97867373D01*
X149062573Y-98088554D01*
X149061030Y-98098301D01*
X149043183Y-98325070D01*
X149043183Y-98334930D01*
X140637733Y-98334930D01*
X140637733Y-98325070D01*
X140619886Y-98098301D01*
X140618343Y-98088554D01*
X140565241Y-97867373D01*
X140562192Y-97857988D01*
X140475145Y-97647837D01*
X140470663Y-97639042D01*
X140368026Y-97471555D01*
X140357568Y-97462093D01*
X140348792Y-97465876D01*
X138264378Y-99550290D01*
X138257618Y-99562670D01*
X134876102Y-99562670D01*
X134876102Y-99281866D01*
X134869347Y-99219684D01*
X134818217Y-99083295D01*
X134730863Y-98966739D01*
X134614307Y-98879385D01*
X134477918Y-98828255D01*
X134415736Y-98821500D01*
X132319468Y-98821500D01*
X132257286Y-98828255D01*
X132120897Y-98879385D01*
X132004341Y-98966739D01*
X131916987Y-99083295D01*
X131865857Y-99219684D01*
X131859102Y-99281866D01*
X131859102Y-101378134D01*
X129056526Y-101378134D01*
X128380414Y-100702022D01*
X128366470Y-100694408D01*
X128364637Y-100694539D01*
X128358022Y-100698790D01*
X127506522Y-101550290D01*
X127499762Y-101562670D01*
X124566102Y-101562670D01*
X124566102Y-100380866D01*
X124559347Y-100318684D01*
X124508217Y-100182295D01*
X124420863Y-100065739D01*
X124304307Y-99978385D01*
X124291734Y-99973672D01*
X124185805Y-99933960D01*
X124129041Y-99891318D01*
X124104341Y-99824756D01*
X124119549Y-99755408D01*
X124141095Y-99726727D01*
X124242037Y-99626137D01*
X124245698Y-99622489D01*
X124288682Y-99562670D01*
X126827618Y-99562670D01*
X126833344Y-99570319D01*
X126914403Y-99619993D01*
X126962034Y-99672641D01*
X126973640Y-99742682D01*
X126964976Y-99775642D01*
X126930870Y-99857983D01*
X126927819Y-99867373D01*
X126874717Y-100088554D01*
X126873174Y-100098301D01*
X126855327Y-100325070D01*
X126855327Y-100334930D01*
X126873174Y-100561699D01*
X126874717Y-100571446D01*
X126927819Y-100792627D01*
X126930868Y-100802012D01*
X127017915Y-101012163D01*
X127022397Y-101020958D01*
X127125034Y-101188445D01*
X127135492Y-101197907D01*
X127144268Y-101194124D01*
X128007260Y-100331132D01*
X128732010Y-100331132D01*
X128732141Y-100332965D01*
X128736392Y-100339580D01*
X129587892Y-101191080D01*
X129600272Y-101197840D01*
X129607922Y-101192113D01*
X129712807Y-101020958D01*
X129717289Y-101012163D01*
X129804336Y-100802012D01*
X129807385Y-100792627D01*
X129860487Y-100571446D01*
X129862030Y-100561699D01*
X129879877Y-100334930D01*
X129879877Y-100325070D01*
X129862030Y-100098301D01*
X129860487Y-100088554D01*
X129807385Y-99867373D01*
X129804336Y-99857988D01*
X129717289Y-99647837D01*
X129712807Y-99639042D01*
X129610170Y-99471555D01*
X129599712Y-99462093D01*
X129590936Y-99465876D01*
X128739624Y-100317188D01*
X128732010Y-100331132D01*
X128007260Y-100331132D01*
X129228682Y-99109710D01*
X129235442Y-99097330D01*
X129229716Y-99089681D01*
X129148657Y-99040007D01*
X129101026Y-98987359D01*
X129089420Y-98917318D01*
X129098084Y-98884358D01*
X129132190Y-98802017D01*
X129135241Y-98792627D01*
X129188343Y-98571446D01*
X129189886Y-98561699D01*
X129207733Y-98334930D01*
X137613183Y-98334930D01*
X137631030Y-98561699D01*
X137632573Y-98571446D01*
X137685675Y-98792627D01*
X137688724Y-98802012D01*
X137775771Y-99012163D01*
X137780253Y-99020958D01*
X137882890Y-99188445D01*
X137893348Y-99197907D01*
X137902124Y-99194124D01*
X138753436Y-98342812D01*
X138761050Y-98328868D01*
X138760919Y-98327035D01*
X138756668Y-98320420D01*
X137905168Y-97468920D01*
X137892788Y-97462160D01*
X137885138Y-97467887D01*
X137780253Y-97639042D01*
X137775771Y-97647837D01*
X137688724Y-97857988D01*
X137685675Y-97867373D01*
X137632573Y-98088554D01*
X137631030Y-98098301D01*
X137613183Y-98325070D01*
X137613183Y-98334930D01*
X129207733Y-98334930D01*
X129207733Y-98325070D01*
X129189886Y-98098301D01*
X129188343Y-98088554D01*
X129135241Y-97867373D01*
X129132192Y-97857988D01*
X129045145Y-97647837D01*
X129040663Y-97639042D01*
X128938026Y-97471555D01*
X128927568Y-97462093D01*
X128918792Y-97465876D01*
X126834378Y-99550290D01*
X126827618Y-99562670D01*
X124288682Y-99562670D01*
X124305196Y-99539689D01*
X124373037Y-99445277D01*
X124376055Y-99441077D01*
X124454742Y-99281866D01*
X124472738Y-99245453D01*
X124472739Y-99245451D01*
X124475032Y-99240811D01*
X124522889Y-99083295D01*
X124538467Y-99032023D01*
X124538467Y-99032021D01*
X124539972Y-99027069D01*
X124569131Y-98805590D01*
X124569218Y-98802017D01*
X124570676Y-98742365D01*
X124570676Y-98742361D01*
X124570758Y-98739000D01*
X124552454Y-98516361D01*
X124506882Y-98334930D01*
X126183183Y-98334930D01*
X126201030Y-98561699D01*
X126202573Y-98571446D01*
X126255675Y-98792627D01*
X126258724Y-98802012D01*
X126345771Y-99012163D01*
X126350253Y-99020958D01*
X126452890Y-99188445D01*
X126463348Y-99197907D01*
X126472124Y-99194124D01*
X127323436Y-98342812D01*
X127331050Y-98328868D01*
X127330919Y-98327035D01*
X127326668Y-98320420D01*
X126475168Y-97468920D01*
X126462788Y-97462160D01*
X126455138Y-97467887D01*
X126350253Y-97639042D01*
X126345771Y-97647837D01*
X126258724Y-97857988D01*
X126255675Y-97867373D01*
X126202573Y-98088554D01*
X126201030Y-98098301D01*
X126183183Y-98325070D01*
X126183183Y-98334930D01*
X124506882Y-98334930D01*
X124498033Y-98299702D01*
X124408956Y-98094840D01*
X124287616Y-97907277D01*
X124137272Y-97742051D01*
X124133221Y-97738852D01*
X124133217Y-97738848D01*
X123966016Y-97606800D01*
X123966012Y-97606798D01*
X123961961Y-97603598D01*
X123766391Y-97495638D01*
X123761522Y-97493914D01*
X123761518Y-97493912D01*
X123560689Y-97422795D01*
X123560685Y-97422794D01*
X123555814Y-97421069D01*
X123550721Y-97420162D01*
X123550718Y-97420161D01*
X123340975Y-97382800D01*
X123340969Y-97382799D01*
X123335886Y-97381894D01*
X123262054Y-97380992D01*
X123117683Y-97379228D01*
X123117681Y-97379228D01*
X123112513Y-97379165D01*
X122891693Y-97412955D01*
X122679358Y-97482357D01*
X122481209Y-97585507D01*
X122477076Y-97588610D01*
X122477073Y-97588612D01*
X122398193Y-97647837D01*
X122302567Y-97719635D01*
X122148231Y-97881138D01*
X122022345Y-98065680D01*
X121928290Y-98268305D01*
X121868591Y-98483570D01*
X121844853Y-98705695D01*
X109728500Y-98705695D01*
X109728500Y-97097890D01*
X126827551Y-97097890D01*
X126831334Y-97106666D01*
X127682646Y-97957978D01*
X127696590Y-97965592D01*
X127698423Y-97965461D01*
X127705038Y-97961210D01*
X128556538Y-97109710D01*
X128562992Y-97097890D01*
X138257551Y-97097890D01*
X138261334Y-97106666D01*
X139112646Y-97957978D01*
X139126590Y-97965592D01*
X139128423Y-97965461D01*
X139135038Y-97961210D01*
X139986538Y-97109710D01*
X139992992Y-97097890D01*
X149687551Y-97097890D01*
X149691334Y-97106666D01*
X150542646Y-97957978D01*
X150556590Y-97965592D01*
X150558423Y-97965461D01*
X150565038Y-97961210D01*
X151416538Y-97109710D01*
X151423298Y-97097330D01*
X151417571Y-97089680D01*
X151246416Y-96984795D01*
X151237621Y-96980313D01*
X151027470Y-96893266D01*
X151018085Y-96890217D01*
X150796904Y-96837115D01*
X150787157Y-96835572D01*
X150560388Y-96817725D01*
X150550528Y-96817725D01*
X150323759Y-96835572D01*
X150314012Y-96837115D01*
X150092831Y-96890217D01*
X150083446Y-96893266D01*
X149873295Y-96980313D01*
X149864500Y-96984795D01*
X149697013Y-97087432D01*
X149687551Y-97097890D01*
X139992992Y-97097890D01*
X139993298Y-97097330D01*
X139987571Y-97089680D01*
X139816416Y-96984795D01*
X139807621Y-96980313D01*
X139597470Y-96893266D01*
X139588085Y-96890217D01*
X139366904Y-96837115D01*
X139357157Y-96835572D01*
X139130388Y-96817725D01*
X139120528Y-96817725D01*
X138893759Y-96835572D01*
X138884012Y-96837115D01*
X138662831Y-96890217D01*
X138653446Y-96893266D01*
X138443295Y-96980313D01*
X138434500Y-96984795D01*
X138267013Y-97087432D01*
X138257551Y-97097890D01*
X128562992Y-97097890D01*
X128563298Y-97097330D01*
X128557571Y-97089680D01*
X128386416Y-96984795D01*
X128377621Y-96980313D01*
X128167470Y-96893266D01*
X128158085Y-96890217D01*
X127936904Y-96837115D01*
X127927157Y-96835572D01*
X127700388Y-96817725D01*
X127690528Y-96817725D01*
X127463759Y-96835572D01*
X127454012Y-96837115D01*
X127232831Y-96890217D01*
X127223446Y-96893266D01*
X127013295Y-96980313D01*
X127004500Y-96984795D01*
X126837013Y-97087432D01*
X126827551Y-97097890D01*
X109728500Y-97097890D01*
X109728500Y-92338134D01*
X126652500Y-92338134D01*
X126659255Y-92400316D01*
X126710385Y-92536705D01*
X126797739Y-92653261D01*
X126914295Y-92740615D01*
X127050684Y-92791745D01*
X127112866Y-92798500D01*
X128909134Y-92798500D01*
X128971316Y-92791745D01*
X129107705Y-92740615D01*
X129224261Y-92653261D01*
X129311615Y-92536705D01*
X129333799Y-92477529D01*
X129355598Y-92419382D01*
X129398240Y-92362618D01*
X129464802Y-92337918D01*
X129534150Y-92353126D01*
X129568817Y-92381114D01*
X129597250Y-92413938D01*
X129769126Y-92556632D01*
X129962000Y-92669338D01*
X129966825Y-92671180D01*
X129966826Y-92671181D01*
X130039612Y-92698975D01*
X130170692Y-92749030D01*
X130175760Y-92750061D01*
X130175763Y-92750062D01*
X130283017Y-92771883D01*
X130389597Y-92793567D01*
X130394772Y-92793757D01*
X130394774Y-92793757D01*
X130607673Y-92801564D01*
X130607677Y-92801564D01*
X130612837Y-92801753D01*
X130617957Y-92801097D01*
X130617959Y-92801097D01*
X130829288Y-92774025D01*
X130829289Y-92774025D01*
X130834416Y-92773368D01*
X130900646Y-92753498D01*
X131043429Y-92710661D01*
X131043434Y-92710659D01*
X131048384Y-92709174D01*
X131248994Y-92610896D01*
X131430860Y-92481173D01*
X131462788Y-92449357D01*
X131574616Y-92337918D01*
X131589096Y-92323489D01*
X131620498Y-92279789D01*
X131716435Y-92146277D01*
X131719453Y-92142077D01*
X131739628Y-92101257D01*
X131816136Y-91946453D01*
X131816137Y-91946451D01*
X131818430Y-91941811D01*
X131876405Y-91750994D01*
X131881865Y-91733023D01*
X131881865Y-91733021D01*
X131883370Y-91728069D01*
X131912529Y-91506590D01*
X131914156Y-91440000D01*
X140926502Y-91440000D01*
X140946457Y-91668087D01*
X140947881Y-91673400D01*
X140947881Y-91673402D01*
X140961155Y-91722939D01*
X141005716Y-91889243D01*
X141008039Y-91894224D01*
X141008039Y-91894225D01*
X141100151Y-92091762D01*
X141100154Y-92091767D01*
X141102477Y-92096749D01*
X141233802Y-92284300D01*
X141395700Y-92446198D01*
X141400208Y-92449355D01*
X141400211Y-92449357D01*
X141440445Y-92477529D01*
X141583251Y-92577523D01*
X141588233Y-92579846D01*
X141588238Y-92579849D01*
X141785775Y-92671961D01*
X141790757Y-92674284D01*
X141796065Y-92675706D01*
X141796067Y-92675707D01*
X142006598Y-92732119D01*
X142006600Y-92732119D01*
X142011913Y-92733543D01*
X142240000Y-92753498D01*
X142468087Y-92733543D01*
X142473400Y-92732119D01*
X142473402Y-92732119D01*
X142683933Y-92675707D01*
X142683935Y-92675706D01*
X142689243Y-92674284D01*
X142694225Y-92671961D01*
X142891762Y-92579849D01*
X142891767Y-92579846D01*
X142896749Y-92577523D01*
X143039555Y-92477529D01*
X143079789Y-92449357D01*
X143079792Y-92449355D01*
X143084300Y-92446198D01*
X143246198Y-92284300D01*
X143377523Y-92096749D01*
X143379846Y-92091767D01*
X143379849Y-92091762D01*
X143471961Y-91894225D01*
X143471961Y-91894224D01*
X143474284Y-91889243D01*
X143518846Y-91722939D01*
X143532119Y-91673402D01*
X143532119Y-91673400D01*
X143533543Y-91668087D01*
X143553498Y-91440000D01*
X152356502Y-91440000D01*
X152376457Y-91668087D01*
X152377881Y-91673400D01*
X152377881Y-91673402D01*
X152391155Y-91722939D01*
X152435716Y-91889243D01*
X152438039Y-91894224D01*
X152438039Y-91894225D01*
X152530151Y-92091762D01*
X152530154Y-92091767D01*
X152532477Y-92096749D01*
X152663802Y-92284300D01*
X152825700Y-92446198D01*
X152830208Y-92449355D01*
X152830211Y-92449357D01*
X152870445Y-92477529D01*
X153013251Y-92577523D01*
X153018233Y-92579846D01*
X153018238Y-92579849D01*
X153215775Y-92671961D01*
X153220757Y-92674284D01*
X153226065Y-92675706D01*
X153226067Y-92675707D01*
X153436598Y-92732119D01*
X153436600Y-92732119D01*
X153441913Y-92733543D01*
X153670000Y-92753498D01*
X153898087Y-92733543D01*
X153903400Y-92732119D01*
X153903402Y-92732119D01*
X154113933Y-92675707D01*
X154113935Y-92675706D01*
X154119243Y-92674284D01*
X154124225Y-92671961D01*
X154321762Y-92579849D01*
X154321767Y-92579846D01*
X154326749Y-92577523D01*
X154469555Y-92477529D01*
X154509789Y-92449357D01*
X154509792Y-92449355D01*
X154514300Y-92446198D01*
X154676198Y-92284300D01*
X154807523Y-92096749D01*
X154809846Y-92091767D01*
X154809849Y-92091762D01*
X154901961Y-91894225D01*
X154901961Y-91894224D01*
X154904284Y-91889243D01*
X154948846Y-91722939D01*
X154962119Y-91673402D01*
X154962119Y-91673400D01*
X154963543Y-91668087D01*
X154983498Y-91440000D01*
X154963543Y-91211913D01*
X154962119Y-91206598D01*
X154905707Y-90996067D01*
X154905706Y-90996065D01*
X154904284Y-90990757D01*
X154901961Y-90985775D01*
X154809849Y-90788238D01*
X154809846Y-90788233D01*
X154807523Y-90783251D01*
X154734098Y-90678389D01*
X154679357Y-90600211D01*
X154679355Y-90600208D01*
X154676198Y-90595700D01*
X154514300Y-90433802D01*
X154509792Y-90430645D01*
X154509789Y-90430643D01*
X154374780Y-90336109D01*
X154326749Y-90302477D01*
X154321767Y-90300154D01*
X154321762Y-90300151D01*
X154124225Y-90208039D01*
X154124224Y-90208039D01*
X154119243Y-90205716D01*
X154113935Y-90204294D01*
X154113933Y-90204293D01*
X153903402Y-90147881D01*
X153903400Y-90147881D01*
X153898087Y-90146457D01*
X153670000Y-90126502D01*
X153441913Y-90146457D01*
X153436600Y-90147881D01*
X153436598Y-90147881D01*
X153226067Y-90204293D01*
X153226065Y-90204294D01*
X153220757Y-90205716D01*
X153215776Y-90208039D01*
X153215775Y-90208039D01*
X153018238Y-90300151D01*
X153018233Y-90300154D01*
X153013251Y-90302477D01*
X152965220Y-90336109D01*
X152830211Y-90430643D01*
X152830208Y-90430645D01*
X152825700Y-90433802D01*
X152663802Y-90595700D01*
X152660645Y-90600208D01*
X152660643Y-90600211D01*
X152605902Y-90678389D01*
X152532477Y-90783251D01*
X152530154Y-90788233D01*
X152530151Y-90788238D01*
X152438039Y-90985775D01*
X152435716Y-90990757D01*
X152434294Y-90996065D01*
X152434293Y-90996067D01*
X152377881Y-91206598D01*
X152376457Y-91211913D01*
X152356502Y-91440000D01*
X143553498Y-91440000D01*
X143533543Y-91211913D01*
X143532119Y-91206598D01*
X143475707Y-90996067D01*
X143475706Y-90996065D01*
X143474284Y-90990757D01*
X143471961Y-90985775D01*
X143379849Y-90788238D01*
X143379846Y-90788233D01*
X143377523Y-90783251D01*
X143304098Y-90678389D01*
X143249357Y-90600211D01*
X143249355Y-90600208D01*
X143246198Y-90595700D01*
X143084300Y-90433802D01*
X143079792Y-90430645D01*
X143079789Y-90430643D01*
X142944780Y-90336109D01*
X142896749Y-90302477D01*
X142891767Y-90300154D01*
X142891762Y-90300151D01*
X142694225Y-90208039D01*
X142694224Y-90208039D01*
X142689243Y-90205716D01*
X142683935Y-90204294D01*
X142683933Y-90204293D01*
X142473402Y-90147881D01*
X142473400Y-90147881D01*
X142468087Y-90146457D01*
X142240000Y-90126502D01*
X142011913Y-90146457D01*
X142006600Y-90147881D01*
X142006598Y-90147881D01*
X141796067Y-90204293D01*
X141796065Y-90204294D01*
X141790757Y-90205716D01*
X141785776Y-90208039D01*
X141785775Y-90208039D01*
X141588238Y-90300151D01*
X141588233Y-90300154D01*
X141583251Y-90302477D01*
X141535220Y-90336109D01*
X141400211Y-90430643D01*
X141400208Y-90430645D01*
X141395700Y-90433802D01*
X141233802Y-90595700D01*
X141230645Y-90600208D01*
X141230643Y-90600211D01*
X141175902Y-90678389D01*
X141102477Y-90783251D01*
X141100154Y-90788233D01*
X141100151Y-90788238D01*
X141008039Y-90985775D01*
X141005716Y-90990757D01*
X141004294Y-90996065D01*
X141004293Y-90996067D01*
X140947881Y-91206598D01*
X140946457Y-91211913D01*
X140926502Y-91440000D01*
X131914156Y-91440000D01*
X131895852Y-91217361D01*
X131841431Y-91000702D01*
X131752354Y-90795840D01*
X131631014Y-90608277D01*
X131480670Y-90443051D01*
X131476619Y-90439852D01*
X131476615Y-90439848D01*
X131309414Y-90307800D01*
X131309410Y-90307798D01*
X131305359Y-90304598D01*
X131297304Y-90300151D01*
X131253136Y-90275769D01*
X131109789Y-90196638D01*
X131104920Y-90194914D01*
X131104916Y-90194912D01*
X130904087Y-90123795D01*
X130904083Y-90123794D01*
X130899212Y-90122069D01*
X130894119Y-90121162D01*
X130894116Y-90121161D01*
X130684373Y-90083800D01*
X130684367Y-90083799D01*
X130679284Y-90082894D01*
X130605452Y-90081992D01*
X130461081Y-90080228D01*
X130461079Y-90080228D01*
X130455911Y-90080165D01*
X130235091Y-90113955D01*
X130022756Y-90183357D01*
X129824607Y-90286507D01*
X129820474Y-90289610D01*
X129820471Y-90289612D01*
X129650100Y-90417530D01*
X129645965Y-90420635D01*
X129589537Y-90479684D01*
X129565283Y-90505064D01*
X129503759Y-90540494D01*
X129432846Y-90537037D01*
X129375060Y-90495791D01*
X129356207Y-90462243D01*
X129314767Y-90351703D01*
X129311615Y-90343295D01*
X129224261Y-90226739D01*
X129107705Y-90139385D01*
X128971316Y-90088255D01*
X128909134Y-90081500D01*
X127112866Y-90081500D01*
X127050684Y-90088255D01*
X126914295Y-90139385D01*
X126797739Y-90226739D01*
X126710385Y-90343295D01*
X126659255Y-90479684D01*
X126652500Y-90541866D01*
X126652500Y-92338134D01*
X109728500Y-92338134D01*
X109728500Y-78740000D01*
X111466502Y-78740000D01*
X111486457Y-78968087D01*
X111545716Y-79189243D01*
X111548039Y-79194224D01*
X111548039Y-79194225D01*
X111640151Y-79391762D01*
X111640154Y-79391767D01*
X111642477Y-79396749D01*
X111773802Y-79584300D01*
X111935700Y-79746198D01*
X111940208Y-79749355D01*
X111940211Y-79749357D01*
X112018389Y-79804098D01*
X112123251Y-79877523D01*
X112128233Y-79879846D01*
X112128238Y-79879849D01*
X112324765Y-79971490D01*
X112330757Y-79974284D01*
X112336065Y-79975706D01*
X112336067Y-79975707D01*
X112546598Y-80032119D01*
X112546600Y-80032119D01*
X112551913Y-80033543D01*
X112780000Y-80053498D01*
X113008087Y-80033543D01*
X113013400Y-80032119D01*
X113013402Y-80032119D01*
X113223933Y-79975707D01*
X113223935Y-79975706D01*
X113229243Y-79974284D01*
X113235235Y-79971490D01*
X113431762Y-79879849D01*
X113431767Y-79879846D01*
X113436749Y-79877523D01*
X113541611Y-79804098D01*
X113619789Y-79749357D01*
X113619792Y-79749355D01*
X113624300Y-79746198D01*
X113786198Y-79584300D01*
X113917523Y-79396749D01*
X113919846Y-79391767D01*
X113919849Y-79391762D01*
X113935805Y-79357543D01*
X113982722Y-79304258D01*
X114050999Y-79284797D01*
X114118959Y-79305339D01*
X114164195Y-79357543D01*
X114180151Y-79391762D01*
X114180154Y-79391767D01*
X114182477Y-79396749D01*
X114313802Y-79584300D01*
X114475700Y-79746198D01*
X114480208Y-79749355D01*
X114480211Y-79749357D01*
X114558389Y-79804098D01*
X114663251Y-79877523D01*
X114668233Y-79879846D01*
X114668238Y-79879849D01*
X114864765Y-79971490D01*
X114870757Y-79974284D01*
X114876065Y-79975706D01*
X114876067Y-79975707D01*
X115086598Y-80032119D01*
X115086600Y-80032119D01*
X115091913Y-80033543D01*
X115320000Y-80053498D01*
X115548087Y-80033543D01*
X115553400Y-80032119D01*
X115553402Y-80032119D01*
X115763933Y-79975707D01*
X115763935Y-79975706D01*
X115769243Y-79974284D01*
X115775235Y-79971490D01*
X115971762Y-79879849D01*
X115971767Y-79879846D01*
X115976749Y-79877523D01*
X116081611Y-79804098D01*
X116159789Y-79749357D01*
X116159792Y-79749355D01*
X116164300Y-79746198D01*
X116326198Y-79584300D01*
X116457523Y-79396749D01*
X116459846Y-79391767D01*
X116459849Y-79391762D01*
X116475805Y-79357543D01*
X116522722Y-79304258D01*
X116590999Y-79284797D01*
X116658959Y-79305339D01*
X116704195Y-79357543D01*
X116720151Y-79391762D01*
X116720154Y-79391767D01*
X116722477Y-79396749D01*
X116853802Y-79584300D01*
X117015700Y-79746198D01*
X117020208Y-79749355D01*
X117020211Y-79749357D01*
X117098389Y-79804098D01*
X117203251Y-79877523D01*
X117208233Y-79879846D01*
X117208238Y-79879849D01*
X117404765Y-79971490D01*
X117410757Y-79974284D01*
X117416065Y-79975706D01*
X117416067Y-79975707D01*
X117626598Y-80032119D01*
X117626600Y-80032119D01*
X117631913Y-80033543D01*
X117860000Y-80053498D01*
X118088087Y-80033543D01*
X118093400Y-80032119D01*
X118093402Y-80032119D01*
X118303933Y-79975707D01*
X118303935Y-79975706D01*
X118309243Y-79974284D01*
X118315235Y-79971490D01*
X118511762Y-79879849D01*
X118511767Y-79879846D01*
X118516749Y-79877523D01*
X118621611Y-79804098D01*
X118699789Y-79749357D01*
X118699792Y-79749355D01*
X118704300Y-79746198D01*
X118866198Y-79584300D01*
X118997523Y-79396749D01*
X118999846Y-79391767D01*
X118999849Y-79391762D01*
X119016081Y-79356951D01*
X119062998Y-79303666D01*
X119131275Y-79284205D01*
X119199235Y-79304747D01*
X119244471Y-79356951D01*
X119260586Y-79391511D01*
X119266069Y-79401007D01*
X119391028Y-79579467D01*
X119398084Y-79587875D01*
X119552125Y-79741916D01*
X119560533Y-79748972D01*
X119738993Y-79873931D01*
X119748489Y-79879414D01*
X119945947Y-79971490D01*
X119956239Y-79975236D01*
X120128503Y-80021394D01*
X120142599Y-80021058D01*
X120146000Y-80013116D01*
X120146000Y-80007967D01*
X120654000Y-80007967D01*
X120657973Y-80021498D01*
X120666522Y-80022727D01*
X120843761Y-79975236D01*
X120854053Y-79971490D01*
X121051511Y-79879414D01*
X121061007Y-79873931D01*
X121239467Y-79748972D01*
X121247875Y-79741916D01*
X121401916Y-79587875D01*
X121408972Y-79579467D01*
X121533931Y-79401007D01*
X121539414Y-79391511D01*
X121555529Y-79356951D01*
X121602446Y-79303666D01*
X121670723Y-79284205D01*
X121738683Y-79304747D01*
X121783919Y-79356951D01*
X121800151Y-79391762D01*
X121800154Y-79391767D01*
X121802477Y-79396749D01*
X121933802Y-79584300D01*
X122095700Y-79746198D01*
X122100208Y-79749355D01*
X122100211Y-79749357D01*
X122178389Y-79804098D01*
X122283251Y-79877523D01*
X122288233Y-79879846D01*
X122288238Y-79879849D01*
X122484765Y-79971490D01*
X122490757Y-79974284D01*
X122496065Y-79975706D01*
X122496067Y-79975707D01*
X122706598Y-80032119D01*
X122706600Y-80032119D01*
X122711913Y-80033543D01*
X122940000Y-80053498D01*
X123168087Y-80033543D01*
X123173400Y-80032119D01*
X123173402Y-80032119D01*
X123383933Y-79975707D01*
X123383935Y-79975706D01*
X123389243Y-79974284D01*
X123395235Y-79971490D01*
X123591762Y-79879849D01*
X123591767Y-79879846D01*
X123596749Y-79877523D01*
X123701611Y-79804098D01*
X123779789Y-79749357D01*
X123779792Y-79749355D01*
X123784300Y-79746198D01*
X123946198Y-79584300D01*
X124077523Y-79396749D01*
X124079846Y-79391767D01*
X124079849Y-79391762D01*
X124095805Y-79357543D01*
X124142722Y-79304258D01*
X124210999Y-79284797D01*
X124278959Y-79305339D01*
X124324195Y-79357543D01*
X124340151Y-79391762D01*
X124340154Y-79391767D01*
X124342477Y-79396749D01*
X124473802Y-79584300D01*
X124635700Y-79746198D01*
X124640208Y-79749355D01*
X124640211Y-79749357D01*
X124718389Y-79804098D01*
X124823251Y-79877523D01*
X124828233Y-79879846D01*
X124828238Y-79879849D01*
X125024765Y-79971490D01*
X125030757Y-79974284D01*
X125036065Y-79975706D01*
X125036067Y-79975707D01*
X125246598Y-80032119D01*
X125246600Y-80032119D01*
X125251913Y-80033543D01*
X125480000Y-80053498D01*
X125708087Y-80033543D01*
X125713400Y-80032119D01*
X125713402Y-80032119D01*
X125923933Y-79975707D01*
X125923935Y-79975706D01*
X125929243Y-79974284D01*
X125935235Y-79971490D01*
X126131762Y-79879849D01*
X126131767Y-79879846D01*
X126136749Y-79877523D01*
X126241611Y-79804098D01*
X126319789Y-79749357D01*
X126319792Y-79749355D01*
X126324300Y-79746198D01*
X126486198Y-79584300D01*
X126617523Y-79396749D01*
X126619846Y-79391767D01*
X126619849Y-79391762D01*
X126635805Y-79357543D01*
X126682722Y-79304258D01*
X126750999Y-79284797D01*
X126818959Y-79305339D01*
X126864195Y-79357543D01*
X126880151Y-79391762D01*
X126880154Y-79391767D01*
X126882477Y-79396749D01*
X127013802Y-79584300D01*
X127175700Y-79746198D01*
X127180208Y-79749355D01*
X127180211Y-79749357D01*
X127258389Y-79804098D01*
X127363251Y-79877523D01*
X127368233Y-79879846D01*
X127368238Y-79879849D01*
X127564765Y-79971490D01*
X127570757Y-79974284D01*
X127576065Y-79975706D01*
X127576067Y-79975707D01*
X127786598Y-80032119D01*
X127786600Y-80032119D01*
X127791913Y-80033543D01*
X128020000Y-80053498D01*
X128248087Y-80033543D01*
X128253400Y-80032119D01*
X128253402Y-80032119D01*
X128463933Y-79975707D01*
X128463935Y-79975706D01*
X128469243Y-79974284D01*
X128475235Y-79971490D01*
X128671762Y-79879849D01*
X128671767Y-79879846D01*
X128676749Y-79877523D01*
X128781611Y-79804098D01*
X128859789Y-79749357D01*
X128859792Y-79749355D01*
X128864300Y-79746198D01*
X129026198Y-79584300D01*
X129157523Y-79396749D01*
X129159846Y-79391767D01*
X129159849Y-79391762D01*
X129175805Y-79357543D01*
X129222722Y-79304258D01*
X129290999Y-79284797D01*
X129358959Y-79305339D01*
X129404195Y-79357543D01*
X129420151Y-79391762D01*
X129420154Y-79391767D01*
X129422477Y-79396749D01*
X129553802Y-79584300D01*
X129715700Y-79746198D01*
X129720208Y-79749355D01*
X129720211Y-79749357D01*
X129798389Y-79804098D01*
X129903251Y-79877523D01*
X129908233Y-79879846D01*
X129908238Y-79879849D01*
X130104765Y-79971490D01*
X130110757Y-79974284D01*
X130116065Y-79975706D01*
X130116067Y-79975707D01*
X130326598Y-80032119D01*
X130326600Y-80032119D01*
X130331913Y-80033543D01*
X130560000Y-80053498D01*
X130788087Y-80033543D01*
X130793400Y-80032119D01*
X130793402Y-80032119D01*
X131003933Y-79975707D01*
X131003935Y-79975706D01*
X131009243Y-79974284D01*
X131015235Y-79971490D01*
X131211762Y-79879849D01*
X131211767Y-79879846D01*
X131216749Y-79877523D01*
X131321611Y-79804098D01*
X131399789Y-79749357D01*
X131399792Y-79749355D01*
X131404300Y-79746198D01*
X131566198Y-79584300D01*
X131697523Y-79396749D01*
X131699846Y-79391767D01*
X131699849Y-79391762D01*
X131715805Y-79357543D01*
X131762722Y-79304258D01*
X131830999Y-79284797D01*
X131898959Y-79305339D01*
X131944195Y-79357543D01*
X131960151Y-79391762D01*
X131960154Y-79391767D01*
X131962477Y-79396749D01*
X132093802Y-79584300D01*
X132255700Y-79746198D01*
X132260208Y-79749355D01*
X132260211Y-79749357D01*
X132338389Y-79804098D01*
X132443251Y-79877523D01*
X132448233Y-79879846D01*
X132448238Y-79879849D01*
X132644765Y-79971490D01*
X132650757Y-79974284D01*
X132656065Y-79975706D01*
X132656067Y-79975707D01*
X132866598Y-80032119D01*
X132866600Y-80032119D01*
X132871913Y-80033543D01*
X133100000Y-80053498D01*
X133328087Y-80033543D01*
X133333400Y-80032119D01*
X133333402Y-80032119D01*
X133543933Y-79975707D01*
X133543935Y-79975706D01*
X133549243Y-79974284D01*
X133555235Y-79971490D01*
X133751762Y-79879849D01*
X133751767Y-79879846D01*
X133756749Y-79877523D01*
X133861611Y-79804098D01*
X133939789Y-79749357D01*
X133939792Y-79749355D01*
X133944300Y-79746198D01*
X134106198Y-79584300D01*
X134237523Y-79396749D01*
X134239846Y-79391767D01*
X134239849Y-79391762D01*
X134255805Y-79357543D01*
X134302722Y-79304258D01*
X134370999Y-79284797D01*
X134438959Y-79305339D01*
X134484195Y-79357543D01*
X134500151Y-79391762D01*
X134500154Y-79391767D01*
X134502477Y-79396749D01*
X134633802Y-79584300D01*
X134795700Y-79746198D01*
X134800208Y-79749355D01*
X134800211Y-79749357D01*
X134878389Y-79804098D01*
X134983251Y-79877523D01*
X134988233Y-79879846D01*
X134988238Y-79879849D01*
X135184765Y-79971490D01*
X135190757Y-79974284D01*
X135196065Y-79975706D01*
X135196067Y-79975707D01*
X135406598Y-80032119D01*
X135406600Y-80032119D01*
X135411913Y-80033543D01*
X135640000Y-80053498D01*
X135868087Y-80033543D01*
X135873400Y-80032119D01*
X135873402Y-80032119D01*
X136083933Y-79975707D01*
X136083935Y-79975706D01*
X136089243Y-79974284D01*
X136095235Y-79971490D01*
X136291762Y-79879849D01*
X136291767Y-79879846D01*
X136296749Y-79877523D01*
X136401611Y-79804098D01*
X136479789Y-79749357D01*
X136479792Y-79749355D01*
X136484300Y-79746198D01*
X136646198Y-79584300D01*
X136777523Y-79396749D01*
X136779846Y-79391767D01*
X136779849Y-79391762D01*
X136871961Y-79194225D01*
X136871961Y-79194224D01*
X136874284Y-79189243D01*
X136933543Y-78968087D01*
X136953498Y-78740000D01*
X138386502Y-78740000D01*
X138406457Y-78968087D01*
X138465716Y-79189243D01*
X138468039Y-79194224D01*
X138468039Y-79194225D01*
X138560151Y-79391762D01*
X138560154Y-79391767D01*
X138562477Y-79396749D01*
X138693802Y-79584300D01*
X138855700Y-79746198D01*
X138860208Y-79749355D01*
X138860211Y-79749357D01*
X138938389Y-79804098D01*
X139043251Y-79877523D01*
X139048233Y-79879846D01*
X139048238Y-79879849D01*
X139244765Y-79971490D01*
X139250757Y-79974284D01*
X139256065Y-79975706D01*
X139256067Y-79975707D01*
X139466598Y-80032119D01*
X139466600Y-80032119D01*
X139471913Y-80033543D01*
X139700000Y-80053498D01*
X139928087Y-80033543D01*
X139933400Y-80032119D01*
X139933402Y-80032119D01*
X140143933Y-79975707D01*
X140143935Y-79975706D01*
X140149243Y-79974284D01*
X140155235Y-79971490D01*
X140351762Y-79879849D01*
X140351767Y-79879846D01*
X140356749Y-79877523D01*
X140461611Y-79804098D01*
X140539789Y-79749357D01*
X140539792Y-79749355D01*
X140544300Y-79746198D01*
X140706198Y-79584300D01*
X140837523Y-79396749D01*
X140839846Y-79391767D01*
X140839849Y-79391762D01*
X140855805Y-79357543D01*
X140902722Y-79304258D01*
X140970999Y-79284797D01*
X141038959Y-79305339D01*
X141084195Y-79357543D01*
X141100151Y-79391762D01*
X141100154Y-79391767D01*
X141102477Y-79396749D01*
X141233802Y-79584300D01*
X141395700Y-79746198D01*
X141400208Y-79749355D01*
X141400211Y-79749357D01*
X141478389Y-79804098D01*
X141583251Y-79877523D01*
X141588233Y-79879846D01*
X141588238Y-79879849D01*
X141622457Y-79895805D01*
X141675742Y-79942722D01*
X141695203Y-80010999D01*
X141674661Y-80078959D01*
X141622457Y-80124195D01*
X141588238Y-80140151D01*
X141588233Y-80140154D01*
X141583251Y-80142477D01*
X141488668Y-80208705D01*
X141400211Y-80270643D01*
X141400208Y-80270645D01*
X141395700Y-80273802D01*
X141233802Y-80435700D01*
X141102477Y-80623251D01*
X141100154Y-80628233D01*
X141100151Y-80628238D01*
X141008039Y-80825775D01*
X141005716Y-80830757D01*
X140946457Y-81051913D01*
X140926502Y-81280000D01*
X140946457Y-81508087D01*
X141005716Y-81729243D01*
X141008039Y-81734224D01*
X141008039Y-81734225D01*
X141100151Y-81931762D01*
X141100154Y-81931767D01*
X141102477Y-81936749D01*
X141233802Y-82124300D01*
X141395700Y-82286198D01*
X141400208Y-82289355D01*
X141400211Y-82289357D01*
X141478389Y-82344098D01*
X141583251Y-82417523D01*
X141588233Y-82419846D01*
X141588238Y-82419849D01*
X141785775Y-82511961D01*
X141790757Y-82514284D01*
X141796065Y-82515706D01*
X141796067Y-82515707D01*
X142006598Y-82572119D01*
X142006600Y-82572119D01*
X142011913Y-82573543D01*
X142240000Y-82593498D01*
X142468087Y-82573543D01*
X142473400Y-82572119D01*
X142473402Y-82572119D01*
X142683933Y-82515707D01*
X142683935Y-82515706D01*
X142689243Y-82514284D01*
X142694225Y-82511961D01*
X142891762Y-82419849D01*
X142891767Y-82419846D01*
X142896749Y-82417523D01*
X143001611Y-82344098D01*
X143079789Y-82289357D01*
X143079792Y-82289355D01*
X143084300Y-82286198D01*
X143246198Y-82124300D01*
X143377523Y-81936749D01*
X143379846Y-81931767D01*
X143379849Y-81931762D01*
X143471961Y-81734225D01*
X143471961Y-81734224D01*
X143474284Y-81729243D01*
X143533543Y-81508087D01*
X143553498Y-81280000D01*
X143533543Y-81051913D01*
X143474284Y-80830757D01*
X143471961Y-80825775D01*
X143379849Y-80628238D01*
X143379846Y-80628233D01*
X143377523Y-80623251D01*
X143246198Y-80435700D01*
X143084300Y-80273802D01*
X143079792Y-80270645D01*
X143079789Y-80270643D01*
X142991332Y-80208705D01*
X142896749Y-80142477D01*
X142891767Y-80140154D01*
X142891762Y-80140151D01*
X142857543Y-80124195D01*
X142804258Y-80077278D01*
X142784797Y-80009001D01*
X142805339Y-79941041D01*
X142857543Y-79895805D01*
X142891762Y-79879849D01*
X142891767Y-79879846D01*
X142896749Y-79877523D01*
X143001611Y-79804098D01*
X143079789Y-79749357D01*
X143079792Y-79749355D01*
X143084300Y-79746198D01*
X143246198Y-79584300D01*
X143377523Y-79396749D01*
X143379846Y-79391767D01*
X143379849Y-79391762D01*
X143395805Y-79357543D01*
X143442722Y-79304258D01*
X143510999Y-79284797D01*
X143578959Y-79305339D01*
X143624195Y-79357543D01*
X143640151Y-79391762D01*
X143640154Y-79391767D01*
X143642477Y-79396749D01*
X143773802Y-79584300D01*
X143935700Y-79746198D01*
X143940208Y-79749355D01*
X143940211Y-79749357D01*
X144018389Y-79804098D01*
X144123251Y-79877523D01*
X144128233Y-79879846D01*
X144128238Y-79879849D01*
X144324765Y-79971490D01*
X144330757Y-79974284D01*
X144336065Y-79975706D01*
X144336067Y-79975707D01*
X144546598Y-80032119D01*
X144546600Y-80032119D01*
X144551913Y-80033543D01*
X144780000Y-80053498D01*
X145008087Y-80033543D01*
X145013400Y-80032119D01*
X145013402Y-80032119D01*
X145223933Y-79975707D01*
X145223935Y-79975706D01*
X145229243Y-79974284D01*
X145235235Y-79971490D01*
X145431762Y-79879849D01*
X145431767Y-79879846D01*
X145436749Y-79877523D01*
X145541611Y-79804098D01*
X145619789Y-79749357D01*
X145619792Y-79749355D01*
X145624300Y-79746198D01*
X145786198Y-79584300D01*
X145917523Y-79396749D01*
X145919846Y-79391767D01*
X145919849Y-79391762D01*
X145935805Y-79357543D01*
X145982722Y-79304258D01*
X146050999Y-79284797D01*
X146118959Y-79305339D01*
X146164195Y-79357543D01*
X146180151Y-79391762D01*
X146180154Y-79391767D01*
X146182477Y-79396749D01*
X146313802Y-79584300D01*
X146475700Y-79746198D01*
X146480208Y-79749355D01*
X146480211Y-79749357D01*
X146558389Y-79804098D01*
X146663251Y-79877523D01*
X146668233Y-79879846D01*
X146668238Y-79879849D01*
X146864765Y-79971490D01*
X146870757Y-79974284D01*
X146876065Y-79975706D01*
X146876067Y-79975707D01*
X147086598Y-80032119D01*
X147086600Y-80032119D01*
X147091913Y-80033543D01*
X147320000Y-80053498D01*
X147548087Y-80033543D01*
X147553400Y-80032119D01*
X147553402Y-80032119D01*
X147763933Y-79975707D01*
X147763935Y-79975706D01*
X147769243Y-79974284D01*
X147775235Y-79971490D01*
X147971762Y-79879849D01*
X147971767Y-79879846D01*
X147976749Y-79877523D01*
X148081611Y-79804098D01*
X148159789Y-79749357D01*
X148159792Y-79749355D01*
X148164300Y-79746198D01*
X148326198Y-79584300D01*
X148457523Y-79396749D01*
X148459846Y-79391767D01*
X148459849Y-79391762D01*
X148475805Y-79357543D01*
X148522722Y-79304258D01*
X148590999Y-79284797D01*
X148658959Y-79305339D01*
X148704195Y-79357543D01*
X148720151Y-79391762D01*
X148720154Y-79391767D01*
X148722477Y-79396749D01*
X148853802Y-79584300D01*
X149015700Y-79746198D01*
X149020208Y-79749355D01*
X149020211Y-79749357D01*
X149098389Y-79804098D01*
X149203251Y-79877523D01*
X149208233Y-79879846D01*
X149208238Y-79879849D01*
X149404765Y-79971490D01*
X149410757Y-79974284D01*
X149416065Y-79975706D01*
X149416067Y-79975707D01*
X149626598Y-80032119D01*
X149626600Y-80032119D01*
X149631913Y-80033543D01*
X149860000Y-80053498D01*
X150088087Y-80033543D01*
X150093400Y-80032119D01*
X150093402Y-80032119D01*
X150303933Y-79975707D01*
X150303935Y-79975706D01*
X150309243Y-79974284D01*
X150315235Y-79971490D01*
X150511762Y-79879849D01*
X150511767Y-79879846D01*
X150516749Y-79877523D01*
X150621611Y-79804098D01*
X150699789Y-79749357D01*
X150699792Y-79749355D01*
X150704300Y-79746198D01*
X150866198Y-79584300D01*
X150997523Y-79396749D01*
X150999846Y-79391767D01*
X150999849Y-79391762D01*
X151015805Y-79357543D01*
X151062722Y-79304258D01*
X151130999Y-79284797D01*
X151198959Y-79305339D01*
X151244195Y-79357543D01*
X151260151Y-79391762D01*
X151260154Y-79391767D01*
X151262477Y-79396749D01*
X151393802Y-79584300D01*
X151555700Y-79746198D01*
X151560208Y-79749355D01*
X151560211Y-79749357D01*
X151638389Y-79804098D01*
X151743251Y-79877523D01*
X151748233Y-79879846D01*
X151748238Y-79879849D01*
X151944765Y-79971490D01*
X151950757Y-79974284D01*
X151956065Y-79975706D01*
X151956067Y-79975707D01*
X152166598Y-80032119D01*
X152166600Y-80032119D01*
X152171913Y-80033543D01*
X152400000Y-80053498D01*
X152628087Y-80033543D01*
X152633400Y-80032119D01*
X152633402Y-80032119D01*
X152813786Y-79983785D01*
X152884762Y-79985475D01*
X152943558Y-80025269D01*
X152971506Y-80090533D01*
X152959733Y-80160547D01*
X152918668Y-80208705D01*
X152830211Y-80270643D01*
X152830208Y-80270645D01*
X152825700Y-80273802D01*
X152663802Y-80435700D01*
X152532477Y-80623251D01*
X152530154Y-80628233D01*
X152530151Y-80628238D01*
X152438039Y-80825775D01*
X152435716Y-80830757D01*
X152376457Y-81051913D01*
X152356502Y-81280000D01*
X152376457Y-81508087D01*
X152435716Y-81729243D01*
X152438039Y-81734224D01*
X152438039Y-81734225D01*
X152530151Y-81931762D01*
X152530154Y-81931767D01*
X152532477Y-81936749D01*
X152663802Y-82124300D01*
X152825700Y-82286198D01*
X152830208Y-82289355D01*
X152830211Y-82289357D01*
X152908389Y-82344098D01*
X153013251Y-82417523D01*
X153018233Y-82419846D01*
X153018238Y-82419849D01*
X153215775Y-82511961D01*
X153220757Y-82514284D01*
X153226065Y-82515706D01*
X153226067Y-82515707D01*
X153436598Y-82572119D01*
X153436600Y-82572119D01*
X153441913Y-82573543D01*
X153670000Y-82593498D01*
X153898087Y-82573543D01*
X153903400Y-82572119D01*
X153903402Y-82572119D01*
X154113933Y-82515707D01*
X154113935Y-82515706D01*
X154119243Y-82514284D01*
X154124225Y-82511961D01*
X154321762Y-82419849D01*
X154321767Y-82419846D01*
X154326749Y-82417523D01*
X154431611Y-82344098D01*
X154509789Y-82289357D01*
X154509792Y-82289355D01*
X154514300Y-82286198D01*
X154676198Y-82124300D01*
X154807523Y-81936749D01*
X154809846Y-81931767D01*
X154809849Y-81931762D01*
X154901961Y-81734225D01*
X154901961Y-81734224D01*
X154904284Y-81729243D01*
X154963543Y-81508087D01*
X154983498Y-81280000D01*
X154963543Y-81051913D01*
X154904284Y-80830757D01*
X154901961Y-80825775D01*
X154809849Y-80628238D01*
X154809846Y-80628233D01*
X154807523Y-80623251D01*
X154676198Y-80435700D01*
X154514300Y-80273802D01*
X154509792Y-80270645D01*
X154509789Y-80270643D01*
X154421332Y-80208705D01*
X154377004Y-80153248D01*
X154369695Y-80082629D01*
X154401726Y-80019268D01*
X154462927Y-79983283D01*
X154526214Y-79983785D01*
X154706598Y-80032119D01*
X154706600Y-80032119D01*
X154711913Y-80033543D01*
X154940000Y-80053498D01*
X155168087Y-80033543D01*
X155173400Y-80032119D01*
X155173402Y-80032119D01*
X155383933Y-79975707D01*
X155383935Y-79975706D01*
X155389243Y-79974284D01*
X155395235Y-79971490D01*
X155591762Y-79879849D01*
X155591767Y-79879846D01*
X155596749Y-79877523D01*
X155701611Y-79804098D01*
X155779789Y-79749357D01*
X155779792Y-79749355D01*
X155784300Y-79746198D01*
X155946198Y-79584300D01*
X156077523Y-79396749D01*
X156079846Y-79391767D01*
X156079849Y-79391762D01*
X156095805Y-79357543D01*
X156142722Y-79304258D01*
X156210999Y-79284797D01*
X156278959Y-79305339D01*
X156324195Y-79357543D01*
X156340151Y-79391762D01*
X156340154Y-79391767D01*
X156342477Y-79396749D01*
X156473802Y-79584300D01*
X156635700Y-79746198D01*
X156640208Y-79749355D01*
X156640211Y-79749357D01*
X156718389Y-79804098D01*
X156823251Y-79877523D01*
X156828233Y-79879846D01*
X156828238Y-79879849D01*
X157024765Y-79971490D01*
X157030757Y-79974284D01*
X157036065Y-79975706D01*
X157036067Y-79975707D01*
X157246598Y-80032119D01*
X157246600Y-80032119D01*
X157251913Y-80033543D01*
X157480000Y-80053498D01*
X157708087Y-80033543D01*
X157713400Y-80032119D01*
X157713402Y-80032119D01*
X157923933Y-79975707D01*
X157923935Y-79975706D01*
X157929243Y-79974284D01*
X157935235Y-79971490D01*
X158131762Y-79879849D01*
X158131767Y-79879846D01*
X158136749Y-79877523D01*
X158241611Y-79804098D01*
X158319789Y-79749357D01*
X158319792Y-79749355D01*
X158324300Y-79746198D01*
X158486198Y-79584300D01*
X158617523Y-79396749D01*
X158619846Y-79391767D01*
X158619849Y-79391762D01*
X158711961Y-79194225D01*
X158711961Y-79194224D01*
X158714284Y-79189243D01*
X158773543Y-78968087D01*
X158793498Y-78740000D01*
X158773543Y-78511913D01*
X158714284Y-78290757D01*
X158619966Y-78088489D01*
X158619849Y-78088238D01*
X158619846Y-78088233D01*
X158617523Y-78083251D01*
X158486198Y-77895700D01*
X158324300Y-77733802D01*
X158319792Y-77730645D01*
X158319789Y-77730643D01*
X158161520Y-77619822D01*
X158136749Y-77602477D01*
X158131767Y-77600154D01*
X158131762Y-77600151D01*
X157934225Y-77508039D01*
X157934224Y-77508039D01*
X157929243Y-77505716D01*
X157923935Y-77504294D01*
X157923933Y-77504293D01*
X157713402Y-77447881D01*
X157713400Y-77447881D01*
X157708087Y-77446457D01*
X157480000Y-77426502D01*
X157251913Y-77446457D01*
X157246600Y-77447881D01*
X157246598Y-77447881D01*
X157036067Y-77504293D01*
X157036065Y-77504294D01*
X157030757Y-77505716D01*
X157025776Y-77508039D01*
X157025775Y-77508039D01*
X156828238Y-77600151D01*
X156828233Y-77600154D01*
X156823251Y-77602477D01*
X156798480Y-77619822D01*
X156640211Y-77730643D01*
X156640208Y-77730645D01*
X156635700Y-77733802D01*
X156473802Y-77895700D01*
X156342477Y-78083251D01*
X156340154Y-78088233D01*
X156340151Y-78088238D01*
X156324195Y-78122457D01*
X156277278Y-78175742D01*
X156209001Y-78195203D01*
X156141041Y-78174661D01*
X156095805Y-78122457D01*
X156079849Y-78088238D01*
X156079846Y-78088233D01*
X156077523Y-78083251D01*
X155946198Y-77895700D01*
X155784300Y-77733802D01*
X155779792Y-77730645D01*
X155779789Y-77730643D01*
X155621520Y-77619822D01*
X155596749Y-77602477D01*
X155591767Y-77600154D01*
X155591762Y-77600151D01*
X155394225Y-77508039D01*
X155394224Y-77508039D01*
X155389243Y-77505716D01*
X155383935Y-77504294D01*
X155383933Y-77504293D01*
X155173402Y-77447881D01*
X155173400Y-77447881D01*
X155168087Y-77446457D01*
X154940000Y-77426502D01*
X154711913Y-77446457D01*
X154706600Y-77447881D01*
X154706598Y-77447881D01*
X154496067Y-77504293D01*
X154496065Y-77504294D01*
X154490757Y-77505716D01*
X154485776Y-77508039D01*
X154485775Y-77508039D01*
X154288238Y-77600151D01*
X154288233Y-77600154D01*
X154283251Y-77602477D01*
X154258480Y-77619822D01*
X154100211Y-77730643D01*
X154100208Y-77730645D01*
X154095700Y-77733802D01*
X153933802Y-77895700D01*
X153802477Y-78083251D01*
X153800154Y-78088233D01*
X153800151Y-78088238D01*
X153784195Y-78122457D01*
X153737278Y-78175742D01*
X153669001Y-78195203D01*
X153601041Y-78174661D01*
X153555805Y-78122457D01*
X153539849Y-78088238D01*
X153539846Y-78088233D01*
X153537523Y-78083251D01*
X153406198Y-77895700D01*
X153244300Y-77733802D01*
X153239792Y-77730645D01*
X153239789Y-77730643D01*
X153081520Y-77619822D01*
X153056749Y-77602477D01*
X153051767Y-77600154D01*
X153051762Y-77600151D01*
X152854225Y-77508039D01*
X152854224Y-77508039D01*
X152849243Y-77505716D01*
X152843935Y-77504294D01*
X152843933Y-77504293D01*
X152633402Y-77447881D01*
X152633400Y-77447881D01*
X152628087Y-77446457D01*
X152400000Y-77426502D01*
X152171913Y-77446457D01*
X152166600Y-77447881D01*
X152166598Y-77447881D01*
X151956067Y-77504293D01*
X151956065Y-77504294D01*
X151950757Y-77505716D01*
X151945776Y-77508039D01*
X151945775Y-77508039D01*
X151748238Y-77600151D01*
X151748233Y-77600154D01*
X151743251Y-77602477D01*
X151718480Y-77619822D01*
X151560211Y-77730643D01*
X151560208Y-77730645D01*
X151555700Y-77733802D01*
X151393802Y-77895700D01*
X151262477Y-78083251D01*
X151260154Y-78088233D01*
X151260151Y-78088238D01*
X151244195Y-78122457D01*
X151197278Y-78175742D01*
X151129001Y-78195203D01*
X151061041Y-78174661D01*
X151015805Y-78122457D01*
X150999849Y-78088238D01*
X150999846Y-78088233D01*
X150997523Y-78083251D01*
X150866198Y-77895700D01*
X150704300Y-77733802D01*
X150699792Y-77730645D01*
X150699789Y-77730643D01*
X150541520Y-77619822D01*
X150516749Y-77602477D01*
X150511767Y-77600154D01*
X150511762Y-77600151D01*
X150314225Y-77508039D01*
X150314224Y-77508039D01*
X150309243Y-77505716D01*
X150303935Y-77504294D01*
X150303933Y-77504293D01*
X150093402Y-77447881D01*
X150093400Y-77447881D01*
X150088087Y-77446457D01*
X149860000Y-77426502D01*
X149631913Y-77446457D01*
X149626600Y-77447881D01*
X149626598Y-77447881D01*
X149416067Y-77504293D01*
X149416065Y-77504294D01*
X149410757Y-77505716D01*
X149405776Y-77508039D01*
X149405775Y-77508039D01*
X149208238Y-77600151D01*
X149208233Y-77600154D01*
X149203251Y-77602477D01*
X149178480Y-77619822D01*
X149020211Y-77730643D01*
X149020208Y-77730645D01*
X149015700Y-77733802D01*
X148853802Y-77895700D01*
X148722477Y-78083251D01*
X148720154Y-78088233D01*
X148720151Y-78088238D01*
X148704195Y-78122457D01*
X148657278Y-78175742D01*
X148589001Y-78195203D01*
X148521041Y-78174661D01*
X148475805Y-78122457D01*
X148459849Y-78088238D01*
X148459846Y-78088233D01*
X148457523Y-78083251D01*
X148326198Y-77895700D01*
X148164300Y-77733802D01*
X148159792Y-77730645D01*
X148159789Y-77730643D01*
X148001520Y-77619822D01*
X147976749Y-77602477D01*
X147971767Y-77600154D01*
X147971762Y-77600151D01*
X147774225Y-77508039D01*
X147774224Y-77508039D01*
X147769243Y-77505716D01*
X147763935Y-77504294D01*
X147763933Y-77504293D01*
X147553402Y-77447881D01*
X147553400Y-77447881D01*
X147548087Y-77446457D01*
X147320000Y-77426502D01*
X147091913Y-77446457D01*
X147086600Y-77447881D01*
X147086598Y-77447881D01*
X146876067Y-77504293D01*
X146876065Y-77504294D01*
X146870757Y-77505716D01*
X146865776Y-77508039D01*
X146865775Y-77508039D01*
X146668238Y-77600151D01*
X146668233Y-77600154D01*
X146663251Y-77602477D01*
X146638480Y-77619822D01*
X146480211Y-77730643D01*
X146480208Y-77730645D01*
X146475700Y-77733802D01*
X146313802Y-77895700D01*
X146182477Y-78083251D01*
X146180154Y-78088233D01*
X146180151Y-78088238D01*
X146164195Y-78122457D01*
X146117278Y-78175742D01*
X146049001Y-78195203D01*
X145981041Y-78174661D01*
X145935805Y-78122457D01*
X145919849Y-78088238D01*
X145919846Y-78088233D01*
X145917523Y-78083251D01*
X145786198Y-77895700D01*
X145624300Y-77733802D01*
X145619792Y-77730645D01*
X145619789Y-77730643D01*
X145461520Y-77619822D01*
X145436749Y-77602477D01*
X145431767Y-77600154D01*
X145431762Y-77600151D01*
X145234225Y-77508039D01*
X145234224Y-77508039D01*
X145229243Y-77505716D01*
X145223935Y-77504294D01*
X145223933Y-77504293D01*
X145013402Y-77447881D01*
X145013400Y-77447881D01*
X145008087Y-77446457D01*
X144780000Y-77426502D01*
X144551913Y-77446457D01*
X144546600Y-77447881D01*
X144546598Y-77447881D01*
X144336067Y-77504293D01*
X144336065Y-77504294D01*
X144330757Y-77505716D01*
X144325776Y-77508039D01*
X144325775Y-77508039D01*
X144128238Y-77600151D01*
X144128233Y-77600154D01*
X144123251Y-77602477D01*
X144098480Y-77619822D01*
X143940211Y-77730643D01*
X143940208Y-77730645D01*
X143935700Y-77733802D01*
X143773802Y-77895700D01*
X143642477Y-78083251D01*
X143640154Y-78088233D01*
X143640151Y-78088238D01*
X143624195Y-78122457D01*
X143577278Y-78175742D01*
X143509001Y-78195203D01*
X143441041Y-78174661D01*
X143395805Y-78122457D01*
X143379849Y-78088238D01*
X143379846Y-78088233D01*
X143377523Y-78083251D01*
X143246198Y-77895700D01*
X143084300Y-77733802D01*
X143079792Y-77730645D01*
X143079789Y-77730643D01*
X142921520Y-77619822D01*
X142896749Y-77602477D01*
X142891767Y-77600154D01*
X142891762Y-77600151D01*
X142694225Y-77508039D01*
X142694224Y-77508039D01*
X142689243Y-77505716D01*
X142683935Y-77504294D01*
X142683933Y-77504293D01*
X142473402Y-77447881D01*
X142473400Y-77447881D01*
X142468087Y-77446457D01*
X142240000Y-77426502D01*
X142011913Y-77446457D01*
X142006600Y-77447881D01*
X142006598Y-77447881D01*
X141796067Y-77504293D01*
X141796065Y-77504294D01*
X141790757Y-77505716D01*
X141785776Y-77508039D01*
X141785775Y-77508039D01*
X141588238Y-77600151D01*
X141588233Y-77600154D01*
X141583251Y-77602477D01*
X141558480Y-77619822D01*
X141400211Y-77730643D01*
X141400208Y-77730645D01*
X141395700Y-77733802D01*
X141233802Y-77895700D01*
X141102477Y-78083251D01*
X141100154Y-78088233D01*
X141100151Y-78088238D01*
X141084195Y-78122457D01*
X141037278Y-78175742D01*
X140969001Y-78195203D01*
X140901041Y-78174661D01*
X140855805Y-78122457D01*
X140839849Y-78088238D01*
X140839846Y-78088233D01*
X140837523Y-78083251D01*
X140706198Y-77895700D01*
X140544300Y-77733802D01*
X140539792Y-77730645D01*
X140539789Y-77730643D01*
X140381520Y-77619822D01*
X140356749Y-77602477D01*
X140351767Y-77600154D01*
X140351762Y-77600151D01*
X140154225Y-77508039D01*
X140154224Y-77508039D01*
X140149243Y-77505716D01*
X140143935Y-77504294D01*
X140143933Y-77504293D01*
X139933402Y-77447881D01*
X139933400Y-77447881D01*
X139928087Y-77446457D01*
X139700000Y-77426502D01*
X139471913Y-77446457D01*
X139466600Y-77447881D01*
X139466598Y-77447881D01*
X139256067Y-77504293D01*
X139256065Y-77504294D01*
X139250757Y-77505716D01*
X139245776Y-77508039D01*
X139245775Y-77508039D01*
X139048238Y-77600151D01*
X139048233Y-77600154D01*
X139043251Y-77602477D01*
X139018480Y-77619822D01*
X138860211Y-77730643D01*
X138860208Y-77730645D01*
X138855700Y-77733802D01*
X138693802Y-77895700D01*
X138562477Y-78083251D01*
X138560154Y-78088233D01*
X138560151Y-78088238D01*
X138560034Y-78088489D01*
X138465716Y-78290757D01*
X138406457Y-78511913D01*
X138386502Y-78740000D01*
X136953498Y-78740000D01*
X136933543Y-78511913D01*
X136874284Y-78290757D01*
X136779966Y-78088489D01*
X136779849Y-78088238D01*
X136779846Y-78088233D01*
X136777523Y-78083251D01*
X136646198Y-77895700D01*
X136484300Y-77733802D01*
X136479792Y-77730645D01*
X136479789Y-77730643D01*
X136321520Y-77619822D01*
X136296749Y-77602477D01*
X136291767Y-77600154D01*
X136291762Y-77600151D01*
X136094225Y-77508039D01*
X136094224Y-77508039D01*
X136089243Y-77505716D01*
X136083935Y-77504294D01*
X136083933Y-77504293D01*
X135873402Y-77447881D01*
X135873400Y-77447881D01*
X135868087Y-77446457D01*
X135640000Y-77426502D01*
X135411913Y-77446457D01*
X135406600Y-77447881D01*
X135406598Y-77447881D01*
X135196067Y-77504293D01*
X135196065Y-77504294D01*
X135190757Y-77505716D01*
X135185776Y-77508039D01*
X135185775Y-77508039D01*
X134988238Y-77600151D01*
X134988233Y-77600154D01*
X134983251Y-77602477D01*
X134958480Y-77619822D01*
X134800211Y-77730643D01*
X134800208Y-77730645D01*
X134795700Y-77733802D01*
X134633802Y-77895700D01*
X134502477Y-78083251D01*
X134500154Y-78088233D01*
X134500151Y-78088238D01*
X134484195Y-78122457D01*
X134437278Y-78175742D01*
X134369001Y-78195203D01*
X134301041Y-78174661D01*
X134255805Y-78122457D01*
X134239849Y-78088238D01*
X134239846Y-78088233D01*
X134237523Y-78083251D01*
X134106198Y-77895700D01*
X133944300Y-77733802D01*
X133939792Y-77730645D01*
X133939789Y-77730643D01*
X133781520Y-77619822D01*
X133756749Y-77602477D01*
X133751767Y-77600154D01*
X133751762Y-77600151D01*
X133554225Y-77508039D01*
X133554224Y-77508039D01*
X133549243Y-77505716D01*
X133543935Y-77504294D01*
X133543933Y-77504293D01*
X133333402Y-77447881D01*
X133333400Y-77447881D01*
X133328087Y-77446457D01*
X133100000Y-77426502D01*
X132871913Y-77446457D01*
X132866600Y-77447881D01*
X132866598Y-77447881D01*
X132656067Y-77504293D01*
X132656065Y-77504294D01*
X132650757Y-77505716D01*
X132645776Y-77508039D01*
X132645775Y-77508039D01*
X132448238Y-77600151D01*
X132448233Y-77600154D01*
X132443251Y-77602477D01*
X132418480Y-77619822D01*
X132260211Y-77730643D01*
X132260208Y-77730645D01*
X132255700Y-77733802D01*
X132093802Y-77895700D01*
X131962477Y-78083251D01*
X131960154Y-78088233D01*
X131960151Y-78088238D01*
X131944195Y-78122457D01*
X131897278Y-78175742D01*
X131829001Y-78195203D01*
X131761041Y-78174661D01*
X131715805Y-78122457D01*
X131699849Y-78088238D01*
X131699846Y-78088233D01*
X131697523Y-78083251D01*
X131566198Y-77895700D01*
X131404300Y-77733802D01*
X131399792Y-77730645D01*
X131399789Y-77730643D01*
X131241520Y-77619822D01*
X131216749Y-77602477D01*
X131211767Y-77600154D01*
X131211762Y-77600151D01*
X131014225Y-77508039D01*
X131014224Y-77508039D01*
X131009243Y-77505716D01*
X131003935Y-77504294D01*
X131003933Y-77504293D01*
X130793402Y-77447881D01*
X130793400Y-77447881D01*
X130788087Y-77446457D01*
X130560000Y-77426502D01*
X130331913Y-77446457D01*
X130326600Y-77447881D01*
X130326598Y-77447881D01*
X130116067Y-77504293D01*
X130116065Y-77504294D01*
X130110757Y-77505716D01*
X130105776Y-77508039D01*
X130105775Y-77508039D01*
X129908238Y-77600151D01*
X129908233Y-77600154D01*
X129903251Y-77602477D01*
X129878480Y-77619822D01*
X129720211Y-77730643D01*
X129720208Y-77730645D01*
X129715700Y-77733802D01*
X129553802Y-77895700D01*
X129422477Y-78083251D01*
X129420154Y-78088233D01*
X129420151Y-78088238D01*
X129404195Y-78122457D01*
X129357278Y-78175742D01*
X129289001Y-78195203D01*
X129221041Y-78174661D01*
X129175805Y-78122457D01*
X129159849Y-78088238D01*
X129159846Y-78088233D01*
X129157523Y-78083251D01*
X129026198Y-77895700D01*
X128864300Y-77733802D01*
X128859792Y-77730645D01*
X128859789Y-77730643D01*
X128701520Y-77619822D01*
X128676749Y-77602477D01*
X128671767Y-77600154D01*
X128671762Y-77600151D01*
X128474225Y-77508039D01*
X128474224Y-77508039D01*
X128469243Y-77505716D01*
X128463935Y-77504294D01*
X128463933Y-77504293D01*
X128253402Y-77447881D01*
X128253400Y-77447881D01*
X128248087Y-77446457D01*
X128020000Y-77426502D01*
X127791913Y-77446457D01*
X127786600Y-77447881D01*
X127786598Y-77447881D01*
X127576067Y-77504293D01*
X127576065Y-77504294D01*
X127570757Y-77505716D01*
X127565776Y-77508039D01*
X127565775Y-77508039D01*
X127368238Y-77600151D01*
X127368233Y-77600154D01*
X127363251Y-77602477D01*
X127338480Y-77619822D01*
X127180211Y-77730643D01*
X127180208Y-77730645D01*
X127175700Y-77733802D01*
X127013802Y-77895700D01*
X126882477Y-78083251D01*
X126880154Y-78088233D01*
X126880151Y-78088238D01*
X126864195Y-78122457D01*
X126817278Y-78175742D01*
X126749001Y-78195203D01*
X126681041Y-78174661D01*
X126635805Y-78122457D01*
X126619849Y-78088238D01*
X126619846Y-78088233D01*
X126617523Y-78083251D01*
X126486198Y-77895700D01*
X126324300Y-77733802D01*
X126319792Y-77730645D01*
X126319789Y-77730643D01*
X126161520Y-77619822D01*
X126136749Y-77602477D01*
X126131767Y-77600154D01*
X126131762Y-77600151D01*
X125934225Y-77508039D01*
X125934224Y-77508039D01*
X125929243Y-77505716D01*
X125923935Y-77504294D01*
X125923933Y-77504293D01*
X125713402Y-77447881D01*
X125713400Y-77447881D01*
X125708087Y-77446457D01*
X125480000Y-77426502D01*
X125251913Y-77446457D01*
X125246600Y-77447881D01*
X125246598Y-77447881D01*
X125036067Y-77504293D01*
X125036065Y-77504294D01*
X125030757Y-77505716D01*
X125025776Y-77508039D01*
X125025775Y-77508039D01*
X124828238Y-77600151D01*
X124828233Y-77600154D01*
X124823251Y-77602477D01*
X124798480Y-77619822D01*
X124640211Y-77730643D01*
X124640208Y-77730645D01*
X124635700Y-77733802D01*
X124473802Y-77895700D01*
X124342477Y-78083251D01*
X124340154Y-78088233D01*
X124340151Y-78088238D01*
X124324195Y-78122457D01*
X124277278Y-78175742D01*
X124209001Y-78195203D01*
X124141041Y-78174661D01*
X124095805Y-78122457D01*
X124079849Y-78088238D01*
X124079846Y-78088233D01*
X124077523Y-78083251D01*
X123946198Y-77895700D01*
X123784300Y-77733802D01*
X123779792Y-77730645D01*
X123779789Y-77730643D01*
X123621520Y-77619822D01*
X123596749Y-77602477D01*
X123591767Y-77600154D01*
X123591762Y-77600151D01*
X123394225Y-77508039D01*
X123394224Y-77508039D01*
X123389243Y-77505716D01*
X123383935Y-77504294D01*
X123383933Y-77504293D01*
X123173402Y-77447881D01*
X123173400Y-77447881D01*
X123168087Y-77446457D01*
X122940000Y-77426502D01*
X122711913Y-77446457D01*
X122706600Y-77447881D01*
X122706598Y-77447881D01*
X122496067Y-77504293D01*
X122496065Y-77504294D01*
X122490757Y-77505716D01*
X122485776Y-77508039D01*
X122485775Y-77508039D01*
X122288238Y-77600151D01*
X122288233Y-77600154D01*
X122283251Y-77602477D01*
X122258480Y-77619822D01*
X122100211Y-77730643D01*
X122100208Y-77730645D01*
X122095700Y-77733802D01*
X121933802Y-77895700D01*
X121802477Y-78083251D01*
X121800154Y-78088233D01*
X121800151Y-78088238D01*
X121783919Y-78123049D01*
X121737002Y-78176334D01*
X121668725Y-78195795D01*
X121600765Y-78175253D01*
X121555529Y-78123049D01*
X121539414Y-78088489D01*
X121533931Y-78078993D01*
X121408972Y-77900533D01*
X121401916Y-77892125D01*
X121247875Y-77738084D01*
X121239467Y-77731028D01*
X121061007Y-77606069D01*
X121051511Y-77600586D01*
X120854053Y-77508510D01*
X120843761Y-77504764D01*
X120671497Y-77458606D01*
X120657401Y-77458942D01*
X120654000Y-77466884D01*
X120654000Y-80007967D01*
X120146000Y-80007967D01*
X120146000Y-77472033D01*
X120142027Y-77458502D01*
X120133478Y-77457273D01*
X119956239Y-77504764D01*
X119945947Y-77508510D01*
X119748489Y-77600586D01*
X119738993Y-77606069D01*
X119560533Y-77731028D01*
X119552125Y-77738084D01*
X119398084Y-77892125D01*
X119391028Y-77900533D01*
X119266069Y-78078993D01*
X119260586Y-78088489D01*
X119244471Y-78123049D01*
X119197554Y-78176334D01*
X119129277Y-78195795D01*
X119061317Y-78175253D01*
X119016081Y-78123049D01*
X118999849Y-78088238D01*
X118999846Y-78088233D01*
X118997523Y-78083251D01*
X118866198Y-77895700D01*
X118704300Y-77733802D01*
X118699792Y-77730645D01*
X118699789Y-77730643D01*
X118541520Y-77619822D01*
X118516749Y-77602477D01*
X118511767Y-77600154D01*
X118511762Y-77600151D01*
X118314225Y-77508039D01*
X118314224Y-77508039D01*
X118309243Y-77505716D01*
X118303935Y-77504294D01*
X118303933Y-77504293D01*
X118093402Y-77447881D01*
X118093400Y-77447881D01*
X118088087Y-77446457D01*
X117860000Y-77426502D01*
X117631913Y-77446457D01*
X117626600Y-77447881D01*
X117626598Y-77447881D01*
X117416067Y-77504293D01*
X117416065Y-77504294D01*
X117410757Y-77505716D01*
X117405776Y-77508039D01*
X117405775Y-77508039D01*
X117208238Y-77600151D01*
X117208233Y-77600154D01*
X117203251Y-77602477D01*
X117178480Y-77619822D01*
X117020211Y-77730643D01*
X117020208Y-77730645D01*
X117015700Y-77733802D01*
X116853802Y-77895700D01*
X116722477Y-78083251D01*
X116720154Y-78088233D01*
X116720151Y-78088238D01*
X116704195Y-78122457D01*
X116657278Y-78175742D01*
X116589001Y-78195203D01*
X116521041Y-78174661D01*
X116475805Y-78122457D01*
X116459849Y-78088238D01*
X116459846Y-78088233D01*
X116457523Y-78083251D01*
X116326198Y-77895700D01*
X116164300Y-77733802D01*
X116159792Y-77730645D01*
X116159789Y-77730643D01*
X116001520Y-77619822D01*
X115976749Y-77602477D01*
X115971767Y-77600154D01*
X115971762Y-77600151D01*
X115774225Y-77508039D01*
X115774224Y-77508039D01*
X115769243Y-77505716D01*
X115763935Y-77504294D01*
X115763933Y-77504293D01*
X115553402Y-77447881D01*
X115553400Y-77447881D01*
X115548087Y-77446457D01*
X115320000Y-77426502D01*
X115091913Y-77446457D01*
X115086600Y-77447881D01*
X115086598Y-77447881D01*
X114876067Y-77504293D01*
X114876065Y-77504294D01*
X114870757Y-77505716D01*
X114865776Y-77508039D01*
X114865775Y-77508039D01*
X114668238Y-77600151D01*
X114668233Y-77600154D01*
X114663251Y-77602477D01*
X114638480Y-77619822D01*
X114480211Y-77730643D01*
X114480208Y-77730645D01*
X114475700Y-77733802D01*
X114313802Y-77895700D01*
X114182477Y-78083251D01*
X114180154Y-78088233D01*
X114180151Y-78088238D01*
X114164195Y-78122457D01*
X114117278Y-78175742D01*
X114049001Y-78195203D01*
X113981041Y-78174661D01*
X113935805Y-78122457D01*
X113919849Y-78088238D01*
X113919846Y-78088233D01*
X113917523Y-78083251D01*
X113786198Y-77895700D01*
X113624300Y-77733802D01*
X113619792Y-77730645D01*
X113619789Y-77730643D01*
X113461520Y-77619822D01*
X113436749Y-77602477D01*
X113431767Y-77600154D01*
X113431762Y-77600151D01*
X113234225Y-77508039D01*
X113234224Y-77508039D01*
X113229243Y-77505716D01*
X113223935Y-77504294D01*
X113223933Y-77504293D01*
X113013402Y-77447881D01*
X113013400Y-77447881D01*
X113008087Y-77446457D01*
X112780000Y-77426502D01*
X112551913Y-77446457D01*
X112546600Y-77447881D01*
X112546598Y-77447881D01*
X112336067Y-77504293D01*
X112336065Y-77504294D01*
X112330757Y-77505716D01*
X112325776Y-77508039D01*
X112325775Y-77508039D01*
X112128238Y-77600151D01*
X112128233Y-77600154D01*
X112123251Y-77602477D01*
X112098480Y-77619822D01*
X111940211Y-77730643D01*
X111940208Y-77730645D01*
X111935700Y-77733802D01*
X111773802Y-77895700D01*
X111642477Y-78083251D01*
X111640154Y-78088233D01*
X111640151Y-78088238D01*
X111640034Y-78088489D01*
X111545716Y-78290757D01*
X111486457Y-78511913D01*
X111466502Y-78740000D01*
X109728500Y-78740000D01*
X109728500Y-76834500D01*
X109748502Y-76766379D01*
X109802158Y-76719886D01*
X109854500Y-76708500D01*
X158233183Y-76708500D01*
X158301304Y-76728502D01*
G37*
%TD.AperFunction*%
%TD*%
M02*
