%TF.GenerationSoftware,KiCad,Pcbnew,(6.0.11)*%
%TF.CreationDate,2023-02-17T08:24:59+01:00*%
%TF.ProjectId,dac-shield,6461632d-7368-4696-956c-642e6b696361,rev.0*%
%TF.SameCoordinates,Original*%
%TF.FileFunction,Legend,Top*%
%TF.FilePolarity,Positive*%
%FSLAX46Y46*%
G04 Gerber Fmt 4.6, Leading zero omitted, Abs format (unit mm)*
G04 Created by KiCad (PCBNEW (6.0.11)) date 2023-02-17 08:24:59*
%MOMM*%
%LPD*%
G01*
G04 APERTURE LIST*
G04 Aperture macros list*
%AMRoundRect*
0 Rectangle with rounded corners*
0 $1 Rounding radius*
0 $2 $3 $4 $5 $6 $7 $8 $9 X,Y pos of 4 corners*
0 Add a 4 corners polygon primitive as box body*
4,1,4,$2,$3,$4,$5,$6,$7,$8,$9,$2,$3,0*
0 Add four circle primitives for the rounded corners*
1,1,$1+$1,$2,$3*
1,1,$1+$1,$4,$5*
1,1,$1+$1,$6,$7*
1,1,$1+$1,$8,$9*
0 Add four rect primitives between the rounded corners*
20,1,$1+$1,$2,$3,$4,$5,0*
20,1,$1+$1,$4,$5,$6,$7,0*
20,1,$1+$1,$6,$7,$8,$9,0*
20,1,$1+$1,$8,$9,$2,$3,0*%
G04 Aperture macros list end*
%ADD10C,0.150000*%
%ADD11C,0.200000*%
%ADD12C,0.160000*%
%ADD13C,0.300000*%
%ADD14C,0.120000*%
%ADD15RoundRect,0.135000X0.135000X0.185000X-0.135000X0.185000X-0.135000X-0.185000X0.135000X-0.185000X0*%
%ADD16R,1.700000X1.700000*%
%ADD17O,1.700000X1.700000*%
%ADD18RoundRect,0.135000X-0.185000X0.135000X-0.185000X-0.135000X0.185000X-0.135000X0.185000X0.135000X0*%
%ADD19R,2.000000X2.000000*%
%ADD20C,2.000000*%
%ADD21RoundRect,0.225000X-0.225000X-0.250000X0.225000X-0.250000X0.225000X0.250000X-0.225000X0.250000X0*%
%ADD22C,1.600000*%
%ADD23O,1.600000X1.600000*%
%ADD24RoundRect,0.225000X0.225000X0.250000X-0.225000X0.250000X-0.225000X-0.250000X0.225000X-0.250000X0*%
%ADD25R,1.600000X1.600000*%
G04 APERTURE END LIST*
D10*
X121920000Y-80010000D02*
X121920000Y-77470000D01*
X130810000Y-125730000D02*
X123190000Y-125730000D01*
X148082000Y-84074000D02*
X148082000Y-107188000D01*
X146050000Y-125730000D02*
X130810000Y-125730000D01*
X146050000Y-80010000D02*
X136652000Y-80010000D01*
X136652000Y-77470000D02*
X136652000Y-95250000D01*
X148590000Y-77470000D02*
X151130000Y-77470000D01*
X146050000Y-77470000D02*
X148590000Y-77470000D01*
X161290000Y-92202000D02*
X161290000Y-123190000D01*
X136652000Y-107188000D02*
X130810000Y-107188000D01*
X161290000Y-123190000D02*
X158750000Y-125730000D01*
X123190000Y-125730000D02*
X123190000Y-107188000D01*
D11*
X115570000Y-89408000D02*
X134112000Y-89408000D01*
X134112000Y-89408000D02*
X134112000Y-93726000D01*
X134112000Y-93726000D02*
X115570000Y-93726000D01*
X115570000Y-93726000D02*
X115570000Y-89408000D01*
D10*
X123190000Y-107188000D02*
X115062000Y-107188000D01*
X130810000Y-107188000D02*
X130810000Y-125730000D01*
X158750000Y-125730000D02*
X146050000Y-125730000D01*
X151130000Y-80010000D02*
X159258000Y-80010000D01*
X159258000Y-90170000D02*
X161290000Y-92202000D01*
X148590000Y-77470000D02*
X148590000Y-82550000D01*
D11*
X117348000Y-105918000D02*
X125222000Y-105918000D01*
X125222000Y-105918000D02*
X125222000Y-94234000D01*
X125222000Y-94234000D02*
X117348000Y-94234000D01*
X117348000Y-94234000D02*
X117348000Y-105918000D01*
D10*
X136652000Y-77470000D02*
X121920000Y-77470000D01*
X146050000Y-77470000D02*
X146050000Y-80010000D01*
X146050000Y-107188000D02*
X146050000Y-125730000D01*
X115062000Y-80010000D02*
X121920000Y-80010000D01*
X136652000Y-95250000D02*
X136652000Y-107188000D01*
X115062000Y-107188000D02*
X115062000Y-80010000D01*
X159258000Y-80010000D02*
X159258000Y-90170000D01*
X148082000Y-107188000D02*
X146050000Y-107188000D01*
X148590000Y-82550000D02*
X148082000Y-84074000D01*
X151130000Y-77470000D02*
X151130000Y-80010000D01*
D12*
X155106666Y-125181523D02*
X155106666Y-124705333D01*
X155392380Y-125276761D02*
X154392380Y-124943428D01*
X155392380Y-124610095D01*
X154725714Y-123848190D02*
X155392380Y-123848190D01*
X154344761Y-124086285D02*
X155059047Y-124324380D01*
X155059047Y-123705333D01*
X150026666Y-125181523D02*
X150026666Y-124705333D01*
X150312380Y-125276761D02*
X149312380Y-124943428D01*
X150312380Y-124610095D01*
X149407619Y-124324380D02*
X149360000Y-124276761D01*
X149312380Y-124181523D01*
X149312380Y-123943428D01*
X149360000Y-123848190D01*
X149407619Y-123800571D01*
X149502857Y-123752952D01*
X149598095Y-123752952D01*
X149740952Y-123800571D01*
X150312380Y-124372000D01*
X150312380Y-123752952D01*
X123388380Y-83034666D02*
X122388380Y-83034666D01*
X122388380Y-82796571D01*
X122436000Y-82653714D01*
X122531238Y-82558476D01*
X122626476Y-82510857D01*
X122816952Y-82463238D01*
X122959809Y-82463238D01*
X123150285Y-82510857D01*
X123245523Y-82558476D01*
X123340761Y-82653714D01*
X123388380Y-82796571D01*
X123388380Y-83034666D01*
X123388380Y-81510857D02*
X123388380Y-82082285D01*
X123388380Y-81796571D02*
X122388380Y-81796571D01*
X122531238Y-81891809D01*
X122626476Y-81987047D01*
X122674095Y-82082285D01*
X122388380Y-81177523D02*
X122388380Y-80558476D01*
X122769333Y-80891809D01*
X122769333Y-80748952D01*
X122816952Y-80653714D01*
X122864571Y-80606095D01*
X122959809Y-80558476D01*
X123197904Y-80558476D01*
X123293142Y-80606095D01*
X123340761Y-80653714D01*
X123388380Y-80748952D01*
X123388380Y-81034666D01*
X123340761Y-81129904D01*
X123293142Y-81177523D01*
X143633666Y-123166190D02*
X143633666Y-122690000D01*
X143919380Y-123261428D02*
X142919380Y-122928095D01*
X143919380Y-122594761D01*
X143919380Y-122261428D02*
X142919380Y-122261428D01*
X142919380Y-122023333D01*
X142967000Y-121880476D01*
X143062238Y-121785238D01*
X143157476Y-121737619D01*
X143347952Y-121690000D01*
X143490809Y-121690000D01*
X143681285Y-121737619D01*
X143776523Y-121785238D01*
X143871761Y-121880476D01*
X143919380Y-122023333D01*
X143919380Y-122261428D01*
X143824142Y-120690000D02*
X143871761Y-120737619D01*
X143919380Y-120880476D01*
X143919380Y-120975714D01*
X143871761Y-121118571D01*
X143776523Y-121213809D01*
X143681285Y-121261428D01*
X143490809Y-121309047D01*
X143347952Y-121309047D01*
X143157476Y-121261428D01*
X143062238Y-121213809D01*
X142967000Y-121118571D01*
X142919380Y-120975714D01*
X142919380Y-120880476D01*
X142967000Y-120737619D01*
X143014619Y-120690000D01*
X143014619Y-120309047D02*
X142967000Y-120261428D01*
X142919380Y-120166190D01*
X142919380Y-119928095D01*
X142967000Y-119832857D01*
X143014619Y-119785238D01*
X143109857Y-119737619D01*
X143205095Y-119737619D01*
X143347952Y-119785238D01*
X143919380Y-120356666D01*
X143919380Y-119737619D01*
X142871761Y-118594761D02*
X144157476Y-119451904D01*
X143633666Y-118309047D02*
X143633666Y-117832857D01*
X143919380Y-118404285D02*
X142919380Y-118070952D01*
X143919380Y-117737619D01*
X143014619Y-117451904D02*
X142967000Y-117404285D01*
X142919380Y-117309047D01*
X142919380Y-117070952D01*
X142967000Y-116975714D01*
X143014619Y-116928095D01*
X143109857Y-116880476D01*
X143205095Y-116880476D01*
X143347952Y-116928095D01*
X143919380Y-117499523D01*
X143919380Y-116880476D01*
X145529380Y-118404285D02*
X144529380Y-118404285D01*
X144529380Y-118166190D01*
X144577000Y-118023333D01*
X144672238Y-117928095D01*
X144767476Y-117880476D01*
X144957952Y-117832857D01*
X145100809Y-117832857D01*
X145291285Y-117880476D01*
X145386523Y-117928095D01*
X145481761Y-118023333D01*
X145529380Y-118166190D01*
X145529380Y-118404285D01*
X144862714Y-116975714D02*
X145529380Y-116975714D01*
X144481761Y-117213809D02*
X145196047Y-117451904D01*
X145196047Y-116832857D01*
X112561714Y-111082476D02*
X113371238Y-111082476D01*
X113466476Y-111130095D01*
X113514095Y-111177714D01*
X113561714Y-111272952D01*
X113561714Y-111415809D01*
X113514095Y-111511047D01*
X113180761Y-111082476D02*
X113228380Y-111177714D01*
X113228380Y-111368190D01*
X113180761Y-111463428D01*
X113133142Y-111511047D01*
X113037904Y-111558666D01*
X112752190Y-111558666D01*
X112656952Y-111511047D01*
X112609333Y-111463428D01*
X112561714Y-111368190D01*
X112561714Y-111177714D01*
X112609333Y-111082476D01*
X113228380Y-110606285D02*
X112561714Y-110606285D01*
X112228380Y-110606285D02*
X112276000Y-110653904D01*
X112323619Y-110606285D01*
X112276000Y-110558666D01*
X112228380Y-110606285D01*
X112323619Y-110606285D01*
X112561714Y-110272952D02*
X112561714Y-109892000D01*
X112228380Y-110130095D02*
X113085523Y-110130095D01*
X113180761Y-110082476D01*
X113228380Y-109987238D01*
X113228380Y-109892000D01*
X113228380Y-109558666D02*
X112228380Y-109558666D01*
X113228380Y-109130095D02*
X112704571Y-109130095D01*
X112609333Y-109177714D01*
X112561714Y-109272952D01*
X112561714Y-109415809D01*
X112609333Y-109511047D01*
X112656952Y-109558666D01*
X112561714Y-108225333D02*
X113228380Y-108225333D01*
X112561714Y-108653904D02*
X113085523Y-108653904D01*
X113180761Y-108606285D01*
X113228380Y-108511047D01*
X113228380Y-108368190D01*
X113180761Y-108272952D01*
X113133142Y-108225333D01*
X113228380Y-107749142D02*
X112228380Y-107749142D01*
X112609333Y-107749142D02*
X112561714Y-107653904D01*
X112561714Y-107463428D01*
X112609333Y-107368190D01*
X112656952Y-107320571D01*
X112752190Y-107272952D01*
X113037904Y-107272952D01*
X113133142Y-107320571D01*
X113180761Y-107368190D01*
X113228380Y-107463428D01*
X113228380Y-107653904D01*
X113180761Y-107749142D01*
X113133142Y-106844380D02*
X113180761Y-106796761D01*
X113228380Y-106844380D01*
X113180761Y-106892000D01*
X113133142Y-106844380D01*
X113228380Y-106844380D01*
X113180761Y-105939619D02*
X113228380Y-106034857D01*
X113228380Y-106225333D01*
X113180761Y-106320571D01*
X113133142Y-106368190D01*
X113037904Y-106415809D01*
X112752190Y-106415809D01*
X112656952Y-106368190D01*
X112609333Y-106320571D01*
X112561714Y-106225333D01*
X112561714Y-106034857D01*
X112609333Y-105939619D01*
X113228380Y-105368190D02*
X113180761Y-105463428D01*
X113133142Y-105511047D01*
X113037904Y-105558666D01*
X112752190Y-105558666D01*
X112656952Y-105511047D01*
X112609333Y-105463428D01*
X112561714Y-105368190D01*
X112561714Y-105225333D01*
X112609333Y-105130095D01*
X112656952Y-105082476D01*
X112752190Y-105034857D01*
X113037904Y-105034857D01*
X113133142Y-105082476D01*
X113180761Y-105130095D01*
X113228380Y-105225333D01*
X113228380Y-105368190D01*
X113228380Y-104606285D02*
X112561714Y-104606285D01*
X112656952Y-104606285D02*
X112609333Y-104558666D01*
X112561714Y-104463428D01*
X112561714Y-104320571D01*
X112609333Y-104225333D01*
X112704571Y-104177714D01*
X113228380Y-104177714D01*
X112704571Y-104177714D02*
X112609333Y-104130095D01*
X112561714Y-104034857D01*
X112561714Y-103892000D01*
X112609333Y-103796761D01*
X112704571Y-103749142D01*
X113228380Y-103749142D01*
X112180761Y-102558666D02*
X113466476Y-103415809D01*
X113228380Y-102225333D02*
X112228380Y-102225333D01*
X113228380Y-101796761D02*
X112704571Y-101796761D01*
X112609333Y-101844380D01*
X112561714Y-101939619D01*
X112561714Y-102082476D01*
X112609333Y-102177714D01*
X112656952Y-102225333D01*
X112561714Y-101463428D02*
X112561714Y-101082476D01*
X112228380Y-101320571D02*
X113085523Y-101320571D01*
X113180761Y-101272952D01*
X113228380Y-101177714D01*
X113228380Y-101082476D01*
X113228380Y-100606285D02*
X113180761Y-100701523D01*
X113085523Y-100749142D01*
X112228380Y-100749142D01*
X112561714Y-100320571D02*
X113228380Y-100130095D01*
X112752190Y-99939619D01*
X113228380Y-99749142D01*
X112561714Y-99558666D01*
X113180761Y-98796761D02*
X113228380Y-98892000D01*
X113228380Y-99082476D01*
X113180761Y-99177714D01*
X113085523Y-99225333D01*
X112704571Y-99225333D01*
X112609333Y-99177714D01*
X112561714Y-99082476D01*
X112561714Y-98892000D01*
X112609333Y-98796761D01*
X112704571Y-98749142D01*
X112799809Y-98749142D01*
X112895047Y-99225333D01*
X113228380Y-98320571D02*
X112561714Y-98320571D01*
X112228380Y-98320571D02*
X112276000Y-98368190D01*
X112323619Y-98320571D01*
X112276000Y-98272952D01*
X112228380Y-98320571D01*
X112323619Y-98320571D01*
X112561714Y-97939619D02*
X112561714Y-97415809D01*
X113228380Y-97939619D01*
X113228380Y-97415809D01*
X112180761Y-96320571D02*
X113466476Y-97177714D01*
X113228380Y-95558666D02*
X112228380Y-95558666D01*
X113180761Y-95558666D02*
X113228380Y-95653904D01*
X113228380Y-95844380D01*
X113180761Y-95939619D01*
X113133142Y-95987238D01*
X113037904Y-96034857D01*
X112752190Y-96034857D01*
X112656952Y-95987238D01*
X112609333Y-95939619D01*
X112561714Y-95844380D01*
X112561714Y-95653904D01*
X112609333Y-95558666D01*
X113228380Y-94653904D02*
X112704571Y-94653904D01*
X112609333Y-94701523D01*
X112561714Y-94796761D01*
X112561714Y-94987238D01*
X112609333Y-95082476D01*
X113180761Y-94653904D02*
X113228380Y-94749142D01*
X113228380Y-94987238D01*
X113180761Y-95082476D01*
X113085523Y-95130095D01*
X112990285Y-95130095D01*
X112895047Y-95082476D01*
X112847428Y-94987238D01*
X112847428Y-94749142D01*
X112799809Y-94653904D01*
X113180761Y-93749142D02*
X113228380Y-93844380D01*
X113228380Y-94034857D01*
X113180761Y-94130095D01*
X113133142Y-94177714D01*
X113037904Y-94225333D01*
X112752190Y-94225333D01*
X112656952Y-94177714D01*
X112609333Y-94130095D01*
X112561714Y-94034857D01*
X112561714Y-93844380D01*
X112609333Y-93749142D01*
X112847428Y-93320571D02*
X112847428Y-92558666D01*
X113180761Y-92130095D02*
X113228380Y-92034857D01*
X113228380Y-91844380D01*
X113180761Y-91749142D01*
X113085523Y-91701523D01*
X113037904Y-91701523D01*
X112942666Y-91749142D01*
X112895047Y-91844380D01*
X112895047Y-91987238D01*
X112847428Y-92082476D01*
X112752190Y-92130095D01*
X112704571Y-92130095D01*
X112609333Y-92082476D01*
X112561714Y-91987238D01*
X112561714Y-91844380D01*
X112609333Y-91749142D01*
X113228380Y-91272952D02*
X112228380Y-91272952D01*
X113228380Y-90844380D02*
X112704571Y-90844380D01*
X112609333Y-90892000D01*
X112561714Y-90987238D01*
X112561714Y-91130095D01*
X112609333Y-91225333D01*
X112656952Y-91272952D01*
X113228380Y-90368190D02*
X112561714Y-90368190D01*
X112228380Y-90368190D02*
X112276000Y-90415809D01*
X112323619Y-90368190D01*
X112276000Y-90320571D01*
X112228380Y-90368190D01*
X112323619Y-90368190D01*
X113180761Y-89511047D02*
X113228380Y-89606285D01*
X113228380Y-89796761D01*
X113180761Y-89892000D01*
X113085523Y-89939619D01*
X112704571Y-89939619D01*
X112609333Y-89892000D01*
X112561714Y-89796761D01*
X112561714Y-89606285D01*
X112609333Y-89511047D01*
X112704571Y-89463428D01*
X112799809Y-89463428D01*
X112895047Y-89939619D01*
X113228380Y-88892000D02*
X113180761Y-88987238D01*
X113085523Y-89034857D01*
X112228380Y-89034857D01*
X113228380Y-88082476D02*
X112228380Y-88082476D01*
X113180761Y-88082476D02*
X113228380Y-88177714D01*
X113228380Y-88368190D01*
X113180761Y-88463428D01*
X113133142Y-88511047D01*
X113037904Y-88558666D01*
X112752190Y-88558666D01*
X112656952Y-88511047D01*
X112609333Y-88463428D01*
X112561714Y-88368190D01*
X112561714Y-88177714D01*
X112609333Y-88082476D01*
X113228380Y-85320571D02*
X112561714Y-85320571D01*
X112752190Y-85320571D02*
X112656952Y-85272952D01*
X112609333Y-85225333D01*
X112561714Y-85130095D01*
X112561714Y-85034857D01*
X113180761Y-84320571D02*
X113228380Y-84415809D01*
X113228380Y-84606285D01*
X113180761Y-84701523D01*
X113085523Y-84749142D01*
X112704571Y-84749142D01*
X112609333Y-84701523D01*
X112561714Y-84606285D01*
X112561714Y-84415809D01*
X112609333Y-84320571D01*
X112704571Y-84272952D01*
X112799809Y-84272952D01*
X112895047Y-84749142D01*
X112561714Y-83939619D02*
X113228380Y-83701523D01*
X112561714Y-83463428D01*
X113133142Y-83082476D02*
X113180761Y-83034857D01*
X113228380Y-83082476D01*
X113180761Y-83130095D01*
X113133142Y-83082476D01*
X113228380Y-83082476D01*
X112228380Y-82415809D02*
X112228380Y-82320571D01*
X112276000Y-82225333D01*
X112323619Y-82177714D01*
X112418857Y-82130095D01*
X112609333Y-82082476D01*
X112847428Y-82082476D01*
X113037904Y-82130095D01*
X113133142Y-82177714D01*
X113180761Y-82225333D01*
X113228380Y-82320571D01*
X113228380Y-82415809D01*
X113180761Y-82511047D01*
X113133142Y-82558666D01*
X113037904Y-82606285D01*
X112847428Y-82653904D01*
X112609333Y-82653904D01*
X112418857Y-82606285D01*
X112323619Y-82558666D01*
X112276000Y-82511047D01*
X112228380Y-82415809D01*
X153074666Y-123166190D02*
X153074666Y-122690000D01*
X153360380Y-123261428D02*
X152360380Y-122928095D01*
X153360380Y-122594761D01*
X153360380Y-122261428D02*
X152360380Y-122261428D01*
X152360380Y-122023333D01*
X152408000Y-121880476D01*
X152503238Y-121785238D01*
X152598476Y-121737619D01*
X152788952Y-121690000D01*
X152931809Y-121690000D01*
X153122285Y-121737619D01*
X153217523Y-121785238D01*
X153312761Y-121880476D01*
X153360380Y-122023333D01*
X153360380Y-122261428D01*
X153265142Y-120690000D02*
X153312761Y-120737619D01*
X153360380Y-120880476D01*
X153360380Y-120975714D01*
X153312761Y-121118571D01*
X153217523Y-121213809D01*
X153122285Y-121261428D01*
X152931809Y-121309047D01*
X152788952Y-121309047D01*
X152598476Y-121261428D01*
X152503238Y-121213809D01*
X152408000Y-121118571D01*
X152360380Y-120975714D01*
X152360380Y-120880476D01*
X152408000Y-120737619D01*
X152455619Y-120690000D01*
X152360380Y-120356666D02*
X152360380Y-119737619D01*
X152741333Y-120070952D01*
X152741333Y-119928095D01*
X152788952Y-119832857D01*
X152836571Y-119785238D01*
X152931809Y-119737619D01*
X153169904Y-119737619D01*
X153265142Y-119785238D01*
X153312761Y-119832857D01*
X153360380Y-119928095D01*
X153360380Y-120213809D01*
X153312761Y-120309047D01*
X153265142Y-120356666D01*
X152312761Y-118594761D02*
X153598476Y-119451904D01*
X153074666Y-118309047D02*
X153074666Y-117832857D01*
X153360380Y-118404285D02*
X152360380Y-118070952D01*
X153360380Y-117737619D01*
X152360380Y-117499523D02*
X152360380Y-116880476D01*
X152741333Y-117213809D01*
X152741333Y-117070952D01*
X152788952Y-116975714D01*
X152836571Y-116928095D01*
X152931809Y-116880476D01*
X153169904Y-116880476D01*
X153265142Y-116928095D01*
X153312761Y-116975714D01*
X153360380Y-117070952D01*
X153360380Y-117356666D01*
X153312761Y-117451904D01*
X153265142Y-117499523D01*
D13*
X118237142Y-108470000D02*
X118094285Y-108398571D01*
X117880000Y-108398571D01*
X117665714Y-108470000D01*
X117522857Y-108612857D01*
X117451428Y-108755714D01*
X117380000Y-109041428D01*
X117380000Y-109255714D01*
X117451428Y-109541428D01*
X117522857Y-109684285D01*
X117665714Y-109827142D01*
X117880000Y-109898571D01*
X118022857Y-109898571D01*
X118237142Y-109827142D01*
X118308571Y-109755714D01*
X118308571Y-109255714D01*
X118022857Y-109255714D01*
X118951428Y-109898571D02*
X118951428Y-108398571D01*
X119808571Y-109898571D01*
X119808571Y-108398571D01*
X120522857Y-109898571D02*
X120522857Y-108398571D01*
X120880000Y-108398571D01*
X121094285Y-108470000D01*
X121237142Y-108612857D01*
X121308571Y-108755714D01*
X121380000Y-109041428D01*
X121380000Y-109255714D01*
X121308571Y-109541428D01*
X121237142Y-109684285D01*
X121094285Y-109827142D01*
X120880000Y-109898571D01*
X120522857Y-109898571D01*
D12*
X147486666Y-125181523D02*
X147486666Y-124705333D01*
X147772380Y-125276761D02*
X146772380Y-124943428D01*
X147772380Y-124610095D01*
X147772380Y-123752952D02*
X147772380Y-124324380D01*
X147772380Y-124038666D02*
X146772380Y-124038666D01*
X146915238Y-124133904D01*
X147010476Y-124229142D01*
X147058095Y-124324380D01*
X125928380Y-83034666D02*
X124928380Y-83034666D01*
X124928380Y-82796571D01*
X124976000Y-82653714D01*
X125071238Y-82558476D01*
X125166476Y-82510857D01*
X125356952Y-82463238D01*
X125499809Y-82463238D01*
X125690285Y-82510857D01*
X125785523Y-82558476D01*
X125880761Y-82653714D01*
X125928380Y-82796571D01*
X125928380Y-83034666D01*
X125928380Y-81510857D02*
X125928380Y-82082285D01*
X125928380Y-81796571D02*
X124928380Y-81796571D01*
X125071238Y-81891809D01*
X125166476Y-81987047D01*
X125214095Y-82082285D01*
X125023619Y-81129904D02*
X124976000Y-81082285D01*
X124928380Y-80987047D01*
X124928380Y-80748952D01*
X124976000Y-80653714D01*
X125023619Y-80606095D01*
X125118857Y-80558476D01*
X125214095Y-80558476D01*
X125356952Y-80606095D01*
X125928380Y-81177523D01*
X125928380Y-80558476D01*
X158440380Y-95907714D02*
X157440380Y-95907714D01*
X157440380Y-95526761D01*
X157488000Y-95431523D01*
X157535619Y-95383904D01*
X157630857Y-95336285D01*
X157773714Y-95336285D01*
X157868952Y-95383904D01*
X157916571Y-95431523D01*
X157964190Y-95526761D01*
X157964190Y-95907714D01*
X157440380Y-95002952D02*
X158440380Y-94764857D01*
X157726095Y-94574380D01*
X158440380Y-94383904D01*
X157440380Y-94145809D01*
X158440380Y-93764857D02*
X157440380Y-93764857D01*
X158154666Y-93431523D01*
X157440380Y-93098190D01*
X158440380Y-93098190D01*
X158345142Y-92622000D02*
X158392761Y-92574380D01*
X158440380Y-92622000D01*
X158392761Y-92669619D01*
X158345142Y-92622000D01*
X158440380Y-92622000D01*
X157821333Y-92622000D02*
X157868952Y-92574380D01*
X157916571Y-92622000D01*
X157868952Y-92669619D01*
X157821333Y-92622000D01*
X157916571Y-92622000D01*
X158440380Y-91383904D02*
X157440380Y-91383904D01*
X157440380Y-91145809D01*
X157488000Y-91002952D01*
X157583238Y-90907714D01*
X157678476Y-90860095D01*
X157868952Y-90812476D01*
X158011809Y-90812476D01*
X158202285Y-90860095D01*
X158297523Y-90907714D01*
X158392761Y-91002952D01*
X158440380Y-91145809D01*
X158440380Y-91383904D01*
X157440380Y-90479142D02*
X157440380Y-89860095D01*
X157821333Y-90193428D01*
X157821333Y-90050571D01*
X157868952Y-89955333D01*
X157916571Y-89907714D01*
X158011809Y-89860095D01*
X158249904Y-89860095D01*
X158345142Y-89907714D01*
X158392761Y-89955333D01*
X158440380Y-90050571D01*
X158440380Y-90336285D01*
X158392761Y-90431523D01*
X158345142Y-90479142D01*
X157392761Y-88717238D02*
X158678476Y-89574380D01*
X158440380Y-88383904D02*
X157440380Y-88383904D01*
X157440380Y-88002952D01*
X157488000Y-87907714D01*
X157535619Y-87860095D01*
X157630857Y-87812476D01*
X157773714Y-87812476D01*
X157868952Y-87860095D01*
X157916571Y-87907714D01*
X157964190Y-88002952D01*
X157964190Y-88383904D01*
X158440380Y-87383904D02*
X157440380Y-87383904D01*
X157440380Y-87145809D01*
X157488000Y-87002952D01*
X157583238Y-86907714D01*
X157678476Y-86860095D01*
X157868952Y-86812476D01*
X158011809Y-86812476D01*
X158202285Y-86860095D01*
X158297523Y-86907714D01*
X158392761Y-87002952D01*
X158440380Y-87145809D01*
X158440380Y-87383904D01*
X157440380Y-86479142D02*
X157440380Y-85860095D01*
X157821333Y-86193428D01*
X157821333Y-86050571D01*
X157868952Y-85955333D01*
X157916571Y-85907714D01*
X158011809Y-85860095D01*
X158249904Y-85860095D01*
X158345142Y-85907714D01*
X158392761Y-85955333D01*
X158440380Y-86050571D01*
X158440380Y-86336285D01*
X158392761Y-86431523D01*
X158345142Y-86479142D01*
X157392761Y-84717238D02*
X158678476Y-85574380D01*
X157440380Y-84193428D02*
X157440380Y-84002952D01*
X157488000Y-83907714D01*
X157583238Y-83812476D01*
X157773714Y-83764857D01*
X158107047Y-83764857D01*
X158297523Y-83812476D01*
X158392761Y-83907714D01*
X158440380Y-84002952D01*
X158440380Y-84193428D01*
X158392761Y-84288666D01*
X158297523Y-84383904D01*
X158107047Y-84431523D01*
X157773714Y-84431523D01*
X157583238Y-84383904D01*
X157488000Y-84288666D01*
X157440380Y-84193428D01*
X158345142Y-82764857D02*
X158392761Y-82812476D01*
X158440380Y-82955333D01*
X158440380Y-83050571D01*
X158392761Y-83193428D01*
X158297523Y-83288666D01*
X158202285Y-83336285D01*
X158011809Y-83383904D01*
X157868952Y-83383904D01*
X157678476Y-83336285D01*
X157583238Y-83288666D01*
X157488000Y-83193428D01*
X157440380Y-83050571D01*
X157440380Y-82955333D01*
X157488000Y-82812476D01*
X157535619Y-82764857D01*
X157535619Y-82383904D02*
X157488000Y-82336285D01*
X157440380Y-82241047D01*
X157440380Y-82002952D01*
X157488000Y-81907714D01*
X157535619Y-81860095D01*
X157630857Y-81812476D01*
X157726095Y-81812476D01*
X157868952Y-81860095D01*
X158440380Y-82431523D01*
X158440380Y-81812476D01*
X157916571Y-81050571D02*
X157964190Y-80907714D01*
X158011809Y-80860095D01*
X158107047Y-80812476D01*
X158249904Y-80812476D01*
X158345142Y-80860095D01*
X158392761Y-80907714D01*
X158440380Y-81002952D01*
X158440380Y-81383904D01*
X157440380Y-81383904D01*
X157440380Y-81050571D01*
X157488000Y-80955333D01*
X157535619Y-80907714D01*
X157630857Y-80860095D01*
X157726095Y-80860095D01*
X157821333Y-80907714D01*
X157868952Y-80955333D01*
X157916571Y-81050571D01*
X157916571Y-81383904D01*
D13*
X148717142Y-108470000D02*
X148574285Y-108398571D01*
X148360000Y-108398571D01*
X148145714Y-108470000D01*
X148002857Y-108612857D01*
X147931428Y-108755714D01*
X147860000Y-109041428D01*
X147860000Y-109255714D01*
X147931428Y-109541428D01*
X148002857Y-109684285D01*
X148145714Y-109827142D01*
X148360000Y-109898571D01*
X148502857Y-109898571D01*
X148717142Y-109827142D01*
X148788571Y-109755714D01*
X148788571Y-109255714D01*
X148502857Y-109255714D01*
X149431428Y-109898571D02*
X149431428Y-108398571D01*
X150288571Y-109898571D01*
X150288571Y-108398571D01*
X151002857Y-109898571D02*
X151002857Y-108398571D01*
X151360000Y-108398571D01*
X151574285Y-108470000D01*
X151717142Y-108612857D01*
X151788571Y-108755714D01*
X151860000Y-109041428D01*
X151860000Y-109255714D01*
X151788571Y-109541428D01*
X151717142Y-109684285D01*
X151574285Y-109827142D01*
X151360000Y-109898571D01*
X151002857Y-109898571D01*
D12*
X119027380Y-87209428D02*
X118027380Y-87209428D01*
X118027380Y-86971333D01*
X118075000Y-86828476D01*
X118170238Y-86733238D01*
X118265476Y-86685619D01*
X118455952Y-86638000D01*
X118598809Y-86638000D01*
X118789285Y-86685619D01*
X118884523Y-86733238D01*
X118979761Y-86828476D01*
X119027380Y-86971333D01*
X119027380Y-87209428D01*
X118455952Y-86066571D02*
X118408333Y-86161809D01*
X118360714Y-86209428D01*
X118265476Y-86257047D01*
X118217857Y-86257047D01*
X118122619Y-86209428D01*
X118075000Y-86161809D01*
X118027380Y-86066571D01*
X118027380Y-85876095D01*
X118075000Y-85780857D01*
X118122619Y-85733238D01*
X118217857Y-85685619D01*
X118265476Y-85685619D01*
X118360714Y-85733238D01*
X118408333Y-85780857D01*
X118455952Y-85876095D01*
X118455952Y-86066571D01*
X118503571Y-86161809D01*
X118551190Y-86209428D01*
X118646428Y-86257047D01*
X118836904Y-86257047D01*
X118932142Y-86209428D01*
X118979761Y-86161809D01*
X119027380Y-86066571D01*
X119027380Y-85876095D01*
X118979761Y-85780857D01*
X118932142Y-85733238D01*
X118836904Y-85685619D01*
X118646428Y-85685619D01*
X118551190Y-85733238D01*
X118503571Y-85780857D01*
X118455952Y-85876095D01*
X118932142Y-85257047D02*
X118979761Y-85209428D01*
X119027380Y-85257047D01*
X118979761Y-85304666D01*
X118932142Y-85257047D01*
X119027380Y-85257047D01*
X118932142Y-84780857D02*
X118979761Y-84733238D01*
X119027380Y-84780857D01*
X118979761Y-84828476D01*
X118932142Y-84780857D01*
X119027380Y-84780857D01*
X119027380Y-84304666D02*
X118027380Y-84304666D01*
X118027380Y-84066571D01*
X118075000Y-83923714D01*
X118170238Y-83828476D01*
X118265476Y-83780857D01*
X118455952Y-83733238D01*
X118598809Y-83733238D01*
X118789285Y-83780857D01*
X118884523Y-83828476D01*
X118979761Y-83923714D01*
X119027380Y-84066571D01*
X119027380Y-84304666D01*
X119027380Y-82780857D02*
X119027380Y-83352285D01*
X119027380Y-83066571D02*
X118027380Y-83066571D01*
X118170238Y-83161809D01*
X118265476Y-83257047D01*
X118313095Y-83352285D01*
X118027380Y-82447523D02*
X118027380Y-81828476D01*
X118408333Y-82161809D01*
X118408333Y-82018952D01*
X118455952Y-81923714D01*
X118503571Y-81876095D01*
X118598809Y-81828476D01*
X118836904Y-81828476D01*
X118932142Y-81876095D01*
X118979761Y-81923714D01*
X119027380Y-82018952D01*
X119027380Y-82304666D01*
X118979761Y-82399904D01*
X118932142Y-82447523D01*
X120637380Y-88257047D02*
X119637380Y-88257047D01*
X119637380Y-87876095D01*
X119685000Y-87780857D01*
X119732619Y-87733238D01*
X119827857Y-87685619D01*
X119970714Y-87685619D01*
X120065952Y-87733238D01*
X120113571Y-87780857D01*
X120161190Y-87876095D01*
X120161190Y-88257047D01*
X120113571Y-86923714D02*
X120161190Y-86780857D01*
X120208809Y-86733238D01*
X120304047Y-86685619D01*
X120446904Y-86685619D01*
X120542142Y-86733238D01*
X120589761Y-86780857D01*
X120637380Y-86876095D01*
X120637380Y-87257047D01*
X119637380Y-87257047D01*
X119637380Y-86923714D01*
X119685000Y-86828476D01*
X119732619Y-86780857D01*
X119827857Y-86733238D01*
X119923095Y-86733238D01*
X120018333Y-86780857D01*
X120065952Y-86828476D01*
X120113571Y-86923714D01*
X120113571Y-87257047D01*
X119637380Y-86066571D02*
X119637380Y-85971333D01*
X119685000Y-85876095D01*
X119732619Y-85828476D01*
X119827857Y-85780857D01*
X120018333Y-85733238D01*
X120256428Y-85733238D01*
X120446904Y-85780857D01*
X120542142Y-85828476D01*
X120589761Y-85876095D01*
X120637380Y-85971333D01*
X120637380Y-86066571D01*
X120589761Y-86161809D01*
X120542142Y-86209428D01*
X120446904Y-86257047D01*
X120256428Y-86304666D01*
X120018333Y-86304666D01*
X119827857Y-86257047D01*
X119732619Y-86209428D01*
X119685000Y-86161809D01*
X119637380Y-86066571D01*
X120542142Y-85304666D02*
X120589761Y-85257047D01*
X120637380Y-85304666D01*
X120589761Y-85352285D01*
X120542142Y-85304666D01*
X120637380Y-85304666D01*
X120542142Y-84828476D02*
X120589761Y-84780857D01*
X120637380Y-84828476D01*
X120589761Y-84876095D01*
X120542142Y-84828476D01*
X120637380Y-84828476D01*
X120637380Y-84352285D02*
X119637380Y-84352285D01*
X119637380Y-83971333D01*
X119685000Y-83876095D01*
X119732619Y-83828476D01*
X119827857Y-83780857D01*
X119970714Y-83780857D01*
X120065952Y-83828476D01*
X120113571Y-83876095D01*
X120161190Y-83971333D01*
X120161190Y-84352285D01*
X120113571Y-83018952D02*
X120161190Y-82876095D01*
X120208809Y-82828476D01*
X120304047Y-82780857D01*
X120446904Y-82780857D01*
X120542142Y-82828476D01*
X120589761Y-82876095D01*
X120637380Y-82971333D01*
X120637380Y-83352285D01*
X119637380Y-83352285D01*
X119637380Y-83018952D01*
X119685000Y-82923714D01*
X119732619Y-82876095D01*
X119827857Y-82828476D01*
X119923095Y-82828476D01*
X120018333Y-82876095D01*
X120065952Y-82923714D01*
X120113571Y-83018952D01*
X120113571Y-83352285D01*
X119637380Y-81876095D02*
X119637380Y-82352285D01*
X120113571Y-82399904D01*
X120065952Y-82352285D01*
X120018333Y-82257047D01*
X120018333Y-82018952D01*
X120065952Y-81923714D01*
X120113571Y-81876095D01*
X120208809Y-81828476D01*
X120446904Y-81828476D01*
X120542142Y-81876095D01*
X120589761Y-81923714D01*
X120637380Y-82018952D01*
X120637380Y-82257047D01*
X120589761Y-82352285D01*
X120542142Y-82399904D01*
D13*
X125857142Y-108470000D02*
X125714285Y-108398571D01*
X125500000Y-108398571D01*
X125285714Y-108470000D01*
X125142857Y-108612857D01*
X125071428Y-108755714D01*
X125000000Y-109041428D01*
X125000000Y-109255714D01*
X125071428Y-109541428D01*
X125142857Y-109684285D01*
X125285714Y-109827142D01*
X125500000Y-109898571D01*
X125642857Y-109898571D01*
X125857142Y-109827142D01*
X125928571Y-109755714D01*
X125928571Y-109255714D01*
X125642857Y-109255714D01*
X126571428Y-109898571D02*
X126571428Y-108398571D01*
X127428571Y-109898571D01*
X127428571Y-108398571D01*
X128142857Y-109898571D02*
X128142857Y-108398571D01*
X128500000Y-108398571D01*
X128714285Y-108470000D01*
X128857142Y-108612857D01*
X128928571Y-108755714D01*
X129000000Y-109041428D01*
X129000000Y-109255714D01*
X128928571Y-109541428D01*
X128857142Y-109684285D01*
X128714285Y-109827142D01*
X128500000Y-109898571D01*
X128142857Y-109898571D01*
D12*
X147772380Y-82082285D02*
X146772380Y-82082285D01*
X146772380Y-81844190D01*
X146820000Y-81701333D01*
X146915238Y-81606095D01*
X147010476Y-81558476D01*
X147200952Y-81510857D01*
X147343809Y-81510857D01*
X147534285Y-81558476D01*
X147629523Y-81606095D01*
X147724761Y-81701333D01*
X147772380Y-81844190D01*
X147772380Y-82082285D01*
X147105714Y-80653714D02*
X147772380Y-80653714D01*
X146724761Y-80891809D02*
X147439047Y-81129904D01*
X147439047Y-80510857D01*
D13*
X142339142Y-119423857D02*
X142410571Y-119209571D01*
X142410571Y-118852428D01*
X142339142Y-118709571D01*
X142267714Y-118638142D01*
X142124857Y-118566714D01*
X141982000Y-118566714D01*
X141839142Y-118638142D01*
X141767714Y-118709571D01*
X141696285Y-118852428D01*
X141624857Y-119138142D01*
X141553428Y-119281000D01*
X141482000Y-119352428D01*
X141339142Y-119423857D01*
X141196285Y-119423857D01*
X141053428Y-119352428D01*
X140982000Y-119281000D01*
X140910571Y-119138142D01*
X140910571Y-118781000D01*
X140982000Y-118566714D01*
X141624857Y-117423857D02*
X141696285Y-117209571D01*
X141767714Y-117138142D01*
X141910571Y-117066714D01*
X142124857Y-117066714D01*
X142267714Y-117138142D01*
X142339142Y-117209571D01*
X142410571Y-117352428D01*
X142410571Y-117923857D01*
X140910571Y-117923857D01*
X140910571Y-117423857D01*
X140982000Y-117281000D01*
X141053428Y-117209571D01*
X141196285Y-117138142D01*
X141339142Y-117138142D01*
X141482000Y-117209571D01*
X141553428Y-117281000D01*
X141624857Y-117423857D01*
X141624857Y-117923857D01*
X134019642Y-119423857D02*
X134091071Y-119209571D01*
X134091071Y-118852428D01*
X134019642Y-118709571D01*
X133948214Y-118638142D01*
X133805357Y-118566714D01*
X133662500Y-118566714D01*
X133519642Y-118638142D01*
X133448214Y-118709571D01*
X133376785Y-118852428D01*
X133305357Y-119138142D01*
X133233928Y-119281000D01*
X133162500Y-119352428D01*
X133019642Y-119423857D01*
X132876785Y-119423857D01*
X132733928Y-119352428D01*
X132662500Y-119281000D01*
X132591071Y-119138142D01*
X132591071Y-118781000D01*
X132662500Y-118566714D01*
X133305357Y-117423857D02*
X133376785Y-117209571D01*
X133448214Y-117138142D01*
X133591071Y-117066714D01*
X133805357Y-117066714D01*
X133948214Y-117138142D01*
X134019642Y-117209571D01*
X134091071Y-117352428D01*
X134091071Y-117923857D01*
X132591071Y-117923857D01*
X132591071Y-117423857D01*
X132662500Y-117281000D01*
X132733928Y-117209571D01*
X132876785Y-117138142D01*
X133019642Y-117138142D01*
X133162500Y-117209571D01*
X133233928Y-117281000D01*
X133305357Y-117423857D01*
X133305357Y-117923857D01*
X135720357Y-120281000D02*
X135720357Y-120781000D01*
X136506071Y-120781000D02*
X135006071Y-120781000D01*
X135006071Y-120066714D01*
X136506071Y-119495285D02*
X135006071Y-119495285D01*
X136506071Y-118066714D02*
X136506071Y-118781000D01*
X135006071Y-118781000D01*
X135006071Y-117781000D02*
X135006071Y-116923857D01*
X136506071Y-117352428D02*
X135006071Y-117352428D01*
D12*
X119038761Y-90563571D02*
X118705428Y-90563571D01*
X118705428Y-91087380D02*
X118705428Y-90087380D01*
X119181619Y-90087380D01*
X119514952Y-90801666D02*
X119991142Y-90801666D01*
X119419714Y-91087380D02*
X119753047Y-90087380D01*
X120086380Y-91087380D01*
X120419714Y-90087380D02*
X120419714Y-90896904D01*
X120467333Y-90992142D01*
X120514952Y-91039761D01*
X120610190Y-91087380D01*
X120800666Y-91087380D01*
X120895904Y-91039761D01*
X120943523Y-90992142D01*
X120991142Y-90896904D01*
X120991142Y-90087380D01*
X121943523Y-91087380D02*
X121467333Y-91087380D01*
X121467333Y-90087380D01*
X122134000Y-90087380D02*
X122705428Y-90087380D01*
X122419714Y-91087380D02*
X122419714Y-90087380D01*
X124086380Y-91420714D02*
X123848285Y-91420714D01*
X123848285Y-89992142D01*
X124086380Y-89992142D01*
X124467333Y-90706428D02*
X125229238Y-90706428D01*
X125610190Y-91420714D02*
X125848285Y-91420714D01*
X125848285Y-89992142D01*
X125610190Y-89992142D01*
X116134000Y-92697380D02*
X116134000Y-91697380D01*
X116705428Y-92697380D01*
X116705428Y-91697380D01*
X117372095Y-91697380D02*
X117562571Y-91697380D01*
X117657809Y-91745000D01*
X117753047Y-91840238D01*
X117800666Y-92030714D01*
X117800666Y-92364047D01*
X117753047Y-92554523D01*
X117657809Y-92649761D01*
X117562571Y-92697380D01*
X117372095Y-92697380D01*
X117276857Y-92649761D01*
X117181619Y-92554523D01*
X117134000Y-92364047D01*
X117134000Y-92030714D01*
X117181619Y-91840238D01*
X117276857Y-91745000D01*
X117372095Y-91697380D01*
X119324476Y-92173571D02*
X118991142Y-92173571D01*
X118991142Y-92697380D02*
X118991142Y-91697380D01*
X119467333Y-91697380D01*
X119800666Y-92411666D02*
X120276857Y-92411666D01*
X119705428Y-92697380D02*
X120038761Y-91697380D01*
X120372095Y-92697380D01*
X120705428Y-91697380D02*
X120705428Y-92506904D01*
X120753047Y-92602142D01*
X120800666Y-92649761D01*
X120895904Y-92697380D01*
X121086380Y-92697380D01*
X121181619Y-92649761D01*
X121229238Y-92602142D01*
X121276857Y-92506904D01*
X121276857Y-91697380D01*
X122229238Y-92697380D02*
X121753047Y-92697380D01*
X121753047Y-91697380D01*
X122419714Y-91697380D02*
X122991142Y-91697380D01*
X122705428Y-92697380D02*
X122705428Y-91697380D01*
X124372095Y-93030714D02*
X124134000Y-93030714D01*
X124134000Y-91602142D01*
X124372095Y-91602142D01*
X124753047Y-92602142D02*
X124800666Y-92649761D01*
X124753047Y-92697380D01*
X124705428Y-92649761D01*
X124753047Y-92602142D01*
X124753047Y-92697380D01*
X125229238Y-92602142D02*
X125276857Y-92649761D01*
X125229238Y-92697380D01*
X125181619Y-92649761D01*
X125229238Y-92602142D01*
X125229238Y-92697380D01*
X125610190Y-93030714D02*
X125848285Y-93030714D01*
X125848285Y-91602142D01*
X125610190Y-91602142D01*
X158873666Y-123166190D02*
X158873666Y-122690000D01*
X159159380Y-123261428D02*
X158159380Y-122928095D01*
X159159380Y-122594761D01*
X159159380Y-122261428D02*
X158159380Y-122261428D01*
X158159380Y-122023333D01*
X158207000Y-121880476D01*
X158302238Y-121785238D01*
X158397476Y-121737619D01*
X158587952Y-121690000D01*
X158730809Y-121690000D01*
X158921285Y-121737619D01*
X159016523Y-121785238D01*
X159111761Y-121880476D01*
X159159380Y-122023333D01*
X159159380Y-122261428D01*
X159064142Y-120690000D02*
X159111761Y-120737619D01*
X159159380Y-120880476D01*
X159159380Y-120975714D01*
X159111761Y-121118571D01*
X159016523Y-121213809D01*
X158921285Y-121261428D01*
X158730809Y-121309047D01*
X158587952Y-121309047D01*
X158397476Y-121261428D01*
X158302238Y-121213809D01*
X158207000Y-121118571D01*
X158159380Y-120975714D01*
X158159380Y-120880476D01*
X158207000Y-120737619D01*
X158254619Y-120690000D01*
X158492714Y-119832857D02*
X159159380Y-119832857D01*
X158111761Y-120070952D02*
X158826047Y-120309047D01*
X158826047Y-119690000D01*
X158111761Y-118594761D02*
X159397476Y-119451904D01*
X158873666Y-118309047D02*
X158873666Y-117832857D01*
X159159380Y-118404285D02*
X158159380Y-118070952D01*
X159159380Y-117737619D01*
X158492714Y-116975714D02*
X159159380Y-116975714D01*
X158111761Y-117213809D02*
X158826047Y-117451904D01*
X158826047Y-116832857D01*
X160769380Y-118404285D02*
X159769380Y-118404285D01*
X159769380Y-118166190D01*
X159817000Y-118023333D01*
X159912238Y-117928095D01*
X160007476Y-117880476D01*
X160197952Y-117832857D01*
X160340809Y-117832857D01*
X160531285Y-117880476D01*
X160626523Y-117928095D01*
X160721761Y-118023333D01*
X160769380Y-118166190D01*
X160769380Y-118404285D01*
X159769380Y-117499523D02*
X159769380Y-116880476D01*
X160150333Y-117213809D01*
X160150333Y-117070952D01*
X160197952Y-116975714D01*
X160245571Y-116928095D01*
X160340809Y-116880476D01*
X160578904Y-116880476D01*
X160674142Y-116928095D01*
X160721761Y-116975714D01*
X160769380Y-117070952D01*
X160769380Y-117356666D01*
X160721761Y-117451904D01*
X160674142Y-117499523D01*
D13*
X156337142Y-108470000D02*
X156194285Y-108398571D01*
X155980000Y-108398571D01*
X155765714Y-108470000D01*
X155622857Y-108612857D01*
X155551428Y-108755714D01*
X155480000Y-109041428D01*
X155480000Y-109255714D01*
X155551428Y-109541428D01*
X155622857Y-109684285D01*
X155765714Y-109827142D01*
X155980000Y-109898571D01*
X156122857Y-109898571D01*
X156337142Y-109827142D01*
X156408571Y-109755714D01*
X156408571Y-109255714D01*
X156122857Y-109255714D01*
X157051428Y-109898571D02*
X157051428Y-108398571D01*
X157908571Y-109898571D01*
X157908571Y-108398571D01*
X158622857Y-109898571D02*
X158622857Y-108398571D01*
X158980000Y-108398571D01*
X159194285Y-108470000D01*
X159337142Y-108612857D01*
X159408571Y-108755714D01*
X159480000Y-109041428D01*
X159480000Y-109255714D01*
X159408571Y-109541428D01*
X159337142Y-109684285D01*
X159194285Y-109827142D01*
X158980000Y-109898571D01*
X158622857Y-109898571D01*
X141097142Y-108470000D02*
X140954285Y-108398571D01*
X140740000Y-108398571D01*
X140525714Y-108470000D01*
X140382857Y-108612857D01*
X140311428Y-108755714D01*
X140240000Y-109041428D01*
X140240000Y-109255714D01*
X140311428Y-109541428D01*
X140382857Y-109684285D01*
X140525714Y-109827142D01*
X140740000Y-109898571D01*
X140882857Y-109898571D01*
X141097142Y-109827142D01*
X141168571Y-109755714D01*
X141168571Y-109255714D01*
X140882857Y-109255714D01*
X141811428Y-109898571D02*
X141811428Y-108398571D01*
X142668571Y-109898571D01*
X142668571Y-108398571D01*
X143382857Y-109898571D02*
X143382857Y-108398571D01*
X143740000Y-108398571D01*
X143954285Y-108470000D01*
X144097142Y-108612857D01*
X144168571Y-108755714D01*
X144240000Y-109041428D01*
X144240000Y-109255714D01*
X144168571Y-109541428D01*
X144097142Y-109684285D01*
X143954285Y-109827142D01*
X143740000Y-109898571D01*
X143382857Y-109898571D01*
X149331071Y-121352428D02*
X147831071Y-121352428D01*
X147831071Y-120781000D01*
X147902500Y-120638142D01*
X147973928Y-120566714D01*
X148116785Y-120495285D01*
X148331071Y-120495285D01*
X148473928Y-120566714D01*
X148545357Y-120638142D01*
X148616785Y-120781000D01*
X148616785Y-121352428D01*
X147831071Y-119995285D02*
X149331071Y-119638142D01*
X148259642Y-119352428D01*
X149331071Y-119066714D01*
X147831071Y-118709571D01*
X149331071Y-118138142D02*
X147831071Y-118138142D01*
X148902500Y-117638142D01*
X147831071Y-117138142D01*
X149331071Y-117138142D01*
X150960357Y-120281000D02*
X150960357Y-120781000D01*
X151746071Y-120781000D02*
X150246071Y-120781000D01*
X150246071Y-120066714D01*
X151746071Y-119495285D02*
X150246071Y-119495285D01*
X151746071Y-118066714D02*
X151746071Y-118781000D01*
X150246071Y-118781000D01*
X150246071Y-117781000D02*
X150246071Y-116923857D01*
X151746071Y-117352428D02*
X150246071Y-117352428D01*
D12*
X144946666Y-125181523D02*
X144946666Y-124705333D01*
X145232380Y-125276761D02*
X144232380Y-124943428D01*
X145232380Y-124610095D01*
X144232380Y-124086285D02*
X144232380Y-123991047D01*
X144280000Y-123895809D01*
X144327619Y-123848190D01*
X144422857Y-123800571D01*
X144613333Y-123752952D01*
X144851428Y-123752952D01*
X145041904Y-123800571D01*
X145137142Y-123848190D01*
X145184761Y-123895809D01*
X145232380Y-123991047D01*
X145232380Y-124086285D01*
X145184761Y-124181523D01*
X145137142Y-124229142D01*
X145041904Y-124276761D01*
X144851428Y-124324380D01*
X144613333Y-124324380D01*
X144422857Y-124276761D01*
X144327619Y-124229142D01*
X144280000Y-124181523D01*
X144232380Y-124086285D01*
D13*
X127678571Y-119995285D02*
X126964285Y-120495285D01*
X127678571Y-120852428D02*
X126178571Y-120852428D01*
X126178571Y-120281000D01*
X126250000Y-120138142D01*
X126321428Y-120066714D01*
X126464285Y-119995285D01*
X126678571Y-119995285D01*
X126821428Y-120066714D01*
X126892857Y-120138142D01*
X126964285Y-120281000D01*
X126964285Y-120852428D01*
X126321428Y-119423857D02*
X126250000Y-119352428D01*
X126178571Y-119209571D01*
X126178571Y-118852428D01*
X126250000Y-118709571D01*
X126321428Y-118638142D01*
X126464285Y-118566714D01*
X126607142Y-118566714D01*
X126821428Y-118638142D01*
X127678571Y-119495285D01*
X127678571Y-118566714D01*
X127678571Y-117066714D02*
X126964285Y-117566714D01*
X127678571Y-117923857D02*
X126178571Y-117923857D01*
X126178571Y-117352428D01*
X126250000Y-117209571D01*
X126321428Y-117138142D01*
X126464285Y-117066714D01*
X126678571Y-117066714D01*
X126821428Y-117138142D01*
X126892857Y-117209571D01*
X126964285Y-117352428D01*
X126964285Y-117923857D01*
D12*
X128468380Y-83034666D02*
X127468380Y-83034666D01*
X127468380Y-82796571D01*
X127516000Y-82653714D01*
X127611238Y-82558476D01*
X127706476Y-82510857D01*
X127896952Y-82463238D01*
X128039809Y-82463238D01*
X128230285Y-82510857D01*
X128325523Y-82558476D01*
X128420761Y-82653714D01*
X128468380Y-82796571D01*
X128468380Y-83034666D01*
X128468380Y-81510857D02*
X128468380Y-82082285D01*
X128468380Y-81796571D02*
X127468380Y-81796571D01*
X127611238Y-81891809D01*
X127706476Y-81987047D01*
X127754095Y-82082285D01*
X128468380Y-80558476D02*
X128468380Y-81129904D01*
X128468380Y-80844190D02*
X127468380Y-80844190D01*
X127611238Y-80939428D01*
X127706476Y-81034666D01*
X127754095Y-81129904D01*
X137834666Y-123166190D02*
X137834666Y-122690000D01*
X138120380Y-123261428D02*
X137120380Y-122928095D01*
X138120380Y-122594761D01*
X138120380Y-122261428D02*
X137120380Y-122261428D01*
X137120380Y-122023333D01*
X137168000Y-121880476D01*
X137263238Y-121785238D01*
X137358476Y-121737619D01*
X137548952Y-121690000D01*
X137691809Y-121690000D01*
X137882285Y-121737619D01*
X137977523Y-121785238D01*
X138072761Y-121880476D01*
X138120380Y-122023333D01*
X138120380Y-122261428D01*
X138025142Y-120690000D02*
X138072761Y-120737619D01*
X138120380Y-120880476D01*
X138120380Y-120975714D01*
X138072761Y-121118571D01*
X137977523Y-121213809D01*
X137882285Y-121261428D01*
X137691809Y-121309047D01*
X137548952Y-121309047D01*
X137358476Y-121261428D01*
X137263238Y-121213809D01*
X137168000Y-121118571D01*
X137120380Y-120975714D01*
X137120380Y-120880476D01*
X137168000Y-120737619D01*
X137215619Y-120690000D01*
X138120380Y-119737619D02*
X138120380Y-120309047D01*
X138120380Y-120023333D02*
X137120380Y-120023333D01*
X137263238Y-120118571D01*
X137358476Y-120213809D01*
X137406095Y-120309047D01*
X137072761Y-118594761D02*
X138358476Y-119451904D01*
X137834666Y-118309047D02*
X137834666Y-117832857D01*
X138120380Y-118404285D02*
X137120380Y-118070952D01*
X138120380Y-117737619D01*
X138120380Y-116880476D02*
X138120380Y-117451904D01*
X138120380Y-117166190D02*
X137120380Y-117166190D01*
X137263238Y-117261428D01*
X137358476Y-117356666D01*
X137406095Y-117451904D01*
X128944666Y-123166190D02*
X128944666Y-122690000D01*
X129230380Y-123261428D02*
X128230380Y-122928095D01*
X129230380Y-122594761D01*
X129230380Y-122261428D02*
X128230380Y-122261428D01*
X128230380Y-122023333D01*
X128278000Y-121880476D01*
X128373238Y-121785238D01*
X128468476Y-121737619D01*
X128658952Y-121690000D01*
X128801809Y-121690000D01*
X128992285Y-121737619D01*
X129087523Y-121785238D01*
X129182761Y-121880476D01*
X129230380Y-122023333D01*
X129230380Y-122261428D01*
X129135142Y-120690000D02*
X129182761Y-120737619D01*
X129230380Y-120880476D01*
X129230380Y-120975714D01*
X129182761Y-121118571D01*
X129087523Y-121213809D01*
X128992285Y-121261428D01*
X128801809Y-121309047D01*
X128658952Y-121309047D01*
X128468476Y-121261428D01*
X128373238Y-121213809D01*
X128278000Y-121118571D01*
X128230380Y-120975714D01*
X128230380Y-120880476D01*
X128278000Y-120737619D01*
X128325619Y-120690000D01*
X128230380Y-120070952D02*
X128230380Y-119975714D01*
X128278000Y-119880476D01*
X128325619Y-119832857D01*
X128420857Y-119785238D01*
X128611333Y-119737619D01*
X128849428Y-119737619D01*
X129039904Y-119785238D01*
X129135142Y-119832857D01*
X129182761Y-119880476D01*
X129230380Y-119975714D01*
X129230380Y-120070952D01*
X129182761Y-120166190D01*
X129135142Y-120213809D01*
X129039904Y-120261428D01*
X128849428Y-120309047D01*
X128611333Y-120309047D01*
X128420857Y-120261428D01*
X128325619Y-120213809D01*
X128278000Y-120166190D01*
X128230380Y-120070952D01*
X128182761Y-118594761D02*
X129468476Y-119451904D01*
X128944666Y-118309047D02*
X128944666Y-117832857D01*
X129230380Y-118404285D02*
X128230380Y-118070952D01*
X129230380Y-117737619D01*
X128230380Y-117213809D02*
X128230380Y-117118571D01*
X128278000Y-117023333D01*
X128325619Y-116975714D01*
X128420857Y-116928095D01*
X128611333Y-116880476D01*
X128849428Y-116880476D01*
X129039904Y-116928095D01*
X129135142Y-116975714D01*
X129182761Y-117023333D01*
X129230380Y-117118571D01*
X129230380Y-117213809D01*
X129182761Y-117309047D01*
X129135142Y-117356666D01*
X129039904Y-117404285D01*
X128849428Y-117451904D01*
X128611333Y-117451904D01*
X128420857Y-117404285D01*
X128325619Y-117356666D01*
X128278000Y-117309047D01*
X128230380Y-117213809D01*
X133548380Y-82082285D02*
X132548380Y-82082285D01*
X132548380Y-81844190D01*
X132596000Y-81701333D01*
X132691238Y-81606095D01*
X132786476Y-81558476D01*
X132976952Y-81510857D01*
X133119809Y-81510857D01*
X133310285Y-81558476D01*
X133405523Y-81606095D01*
X133500761Y-81701333D01*
X133548380Y-81844190D01*
X133548380Y-82082285D01*
X133548380Y-81034666D02*
X133548380Y-80844190D01*
X133500761Y-80748952D01*
X133453142Y-80701333D01*
X133310285Y-80606095D01*
X133119809Y-80558476D01*
X132738857Y-80558476D01*
X132643619Y-80606095D01*
X132596000Y-80653714D01*
X132548380Y-80748952D01*
X132548380Y-80939428D01*
X132596000Y-81034666D01*
X132643619Y-81082285D01*
X132738857Y-81129904D01*
X132976952Y-81129904D01*
X133072190Y-81082285D01*
X133119809Y-81034666D01*
X133167428Y-80939428D01*
X133167428Y-80748952D01*
X133119809Y-80653714D01*
X133072190Y-80606095D01*
X132976952Y-80558476D01*
X139342761Y-95812476D02*
X139390380Y-95669619D01*
X139390380Y-95431523D01*
X139342761Y-95336285D01*
X139295142Y-95288666D01*
X139199904Y-95241047D01*
X139104666Y-95241047D01*
X139009428Y-95288666D01*
X138961809Y-95336285D01*
X138914190Y-95431523D01*
X138866571Y-95621999D01*
X138818952Y-95717238D01*
X138771333Y-95764857D01*
X138676095Y-95812476D01*
X138580857Y-95812476D01*
X138485619Y-95764857D01*
X138438000Y-95717238D01*
X138390380Y-95621999D01*
X138390380Y-95383904D01*
X138438000Y-95241047D01*
X139390380Y-94812476D02*
X138390380Y-94812476D01*
X139390380Y-94336285D02*
X138390380Y-94336285D01*
X139390380Y-93764857D01*
X138390380Y-93764857D01*
X138438000Y-92764857D02*
X138390380Y-92860095D01*
X138390380Y-93002952D01*
X138438000Y-93145809D01*
X138533238Y-93241047D01*
X138628476Y-93288666D01*
X138818952Y-93336285D01*
X138961809Y-93336285D01*
X139152285Y-93288666D01*
X139247523Y-93241047D01*
X139342761Y-93145809D01*
X139390380Y-93002952D01*
X139390380Y-92907714D01*
X139342761Y-92764857D01*
X139295142Y-92717238D01*
X138961809Y-92717238D01*
X138961809Y-92907714D01*
X139390380Y-91812476D02*
X139390380Y-92288666D01*
X138390380Y-92288666D01*
X138866571Y-91479142D02*
X138866571Y-91145809D01*
X139390380Y-91002952D02*
X139390380Y-91479142D01*
X138390380Y-91479142D01*
X138390380Y-91002952D01*
X138866571Y-89479142D02*
X138914190Y-89336285D01*
X138961809Y-89288666D01*
X139057047Y-89241047D01*
X139199904Y-89241047D01*
X139295142Y-89288666D01*
X139342761Y-89336285D01*
X139390380Y-89431523D01*
X139390380Y-89812476D01*
X138390380Y-89812476D01*
X138390380Y-89479142D01*
X138438000Y-89383904D01*
X138485619Y-89336285D01*
X138580857Y-89288666D01*
X138676095Y-89288666D01*
X138771333Y-89336285D01*
X138818952Y-89383904D01*
X138866571Y-89479142D01*
X138866571Y-89812476D01*
X139390380Y-88812476D02*
X138390380Y-88812476D01*
X138390380Y-88479142D02*
X138390380Y-87907714D01*
X139390380Y-88193428D02*
X138390380Y-88193428D01*
X139295142Y-87574380D02*
X139342761Y-87526761D01*
X139390380Y-87574380D01*
X139342761Y-87622000D01*
X139295142Y-87574380D01*
X139390380Y-87574380D01*
X138771333Y-87574380D02*
X138818952Y-87526761D01*
X138866571Y-87574380D01*
X138818952Y-87622000D01*
X138771333Y-87574380D01*
X138866571Y-87574380D01*
X139390380Y-86336285D02*
X138390380Y-86336285D01*
X138390380Y-86098190D01*
X138438000Y-85955333D01*
X138533238Y-85860095D01*
X138628476Y-85812476D01*
X138818952Y-85764857D01*
X138961809Y-85764857D01*
X139152285Y-85812476D01*
X139247523Y-85860095D01*
X139342761Y-85955333D01*
X139390380Y-86098190D01*
X139390380Y-86336285D01*
X138723714Y-84907714D02*
X139390380Y-84907714D01*
X138342761Y-85145809D02*
X139057047Y-85383904D01*
X139057047Y-84764857D01*
X138342761Y-83669619D02*
X139628476Y-84526761D01*
X139390380Y-83336285D02*
X138390380Y-83336285D01*
X138390380Y-82955333D01*
X138438000Y-82860095D01*
X138485619Y-82812476D01*
X138580857Y-82764857D01*
X138723714Y-82764857D01*
X138818952Y-82812476D01*
X138866571Y-82860095D01*
X138914190Y-82955333D01*
X138914190Y-83336285D01*
X139390380Y-82336285D02*
X138390380Y-82336285D01*
X138390380Y-82098190D01*
X138438000Y-81955333D01*
X138533238Y-81860095D01*
X138628476Y-81812476D01*
X138818952Y-81764857D01*
X138961809Y-81764857D01*
X139152285Y-81812476D01*
X139247523Y-81860095D01*
X139342761Y-81955333D01*
X139390380Y-82098190D01*
X139390380Y-82336285D01*
X138723714Y-80907714D02*
X139390380Y-80907714D01*
X138342761Y-81145809D02*
X139057047Y-81383904D01*
X139057047Y-80764857D01*
D13*
X118630000Y-120209571D02*
X118558571Y-120352428D01*
X118558571Y-120566714D01*
X118630000Y-120781000D01*
X118772857Y-120923857D01*
X118915714Y-120995285D01*
X119201428Y-121066714D01*
X119415714Y-121066714D01*
X119701428Y-120995285D01*
X119844285Y-120923857D01*
X119987142Y-120781000D01*
X120058571Y-120566714D01*
X120058571Y-120423857D01*
X119987142Y-120209571D01*
X119915714Y-120138142D01*
X119415714Y-120138142D01*
X119415714Y-120423857D01*
X120058571Y-119495285D02*
X118558571Y-119495285D01*
X120058571Y-118638142D01*
X118558571Y-118638142D01*
X120058571Y-117923857D02*
X118558571Y-117923857D01*
X118558571Y-117566714D01*
X118630000Y-117352428D01*
X118772857Y-117209571D01*
X118915714Y-117138142D01*
X119201428Y-117066714D01*
X119415714Y-117066714D01*
X119701428Y-117138142D01*
X119844285Y-117209571D01*
X119987142Y-117352428D01*
X120058571Y-117566714D01*
X120058571Y-117923857D01*
D12*
X119378316Y-104964190D02*
X119378316Y-105202285D01*
X117949744Y-105202285D01*
X117949744Y-104964190D01*
X118664030Y-104583238D02*
X118664030Y-103821333D01*
X119378316Y-103440380D02*
X119378316Y-103202285D01*
X117949744Y-103202285D01*
X117949744Y-103440380D01*
X119044982Y-101345142D02*
X118568792Y-101678476D01*
X119044982Y-101916571D02*
X118044982Y-101916571D01*
X118044982Y-101535619D01*
X118092602Y-101440380D01*
X118140221Y-101392761D01*
X118235459Y-101345142D01*
X118378316Y-101345142D01*
X118473554Y-101392761D01*
X118521173Y-101440380D01*
X118568792Y-101535619D01*
X118568792Y-101916571D01*
X118949744Y-100345142D02*
X118997363Y-100392761D01*
X119044982Y-100535619D01*
X119044982Y-100630857D01*
X118997363Y-100773714D01*
X118902125Y-100868952D01*
X118806887Y-100916571D01*
X118616411Y-100964190D01*
X118473554Y-100964190D01*
X118283078Y-100916571D01*
X118187840Y-100868952D01*
X118092602Y-100773714D01*
X118044982Y-100630857D01*
X118044982Y-100535619D01*
X118092602Y-100392761D01*
X118140221Y-100345142D01*
X118521173Y-98821333D02*
X118521173Y-99154666D01*
X119044982Y-99154666D02*
X118044982Y-99154666D01*
X118044982Y-98678476D01*
X119044982Y-98297523D02*
X118044982Y-98297523D01*
X119044982Y-97345142D02*
X119044982Y-97821333D01*
X118044982Y-97821333D01*
X118044982Y-97154666D02*
X118044982Y-96583238D01*
X119044982Y-96868952D02*
X118044982Y-96868952D01*
X118521173Y-96249904D02*
X118521173Y-95916571D01*
X119044982Y-95773714D02*
X119044982Y-96249904D01*
X118044982Y-96249904D01*
X118044982Y-95773714D01*
X119044982Y-94773714D02*
X118568792Y-95107047D01*
X119044982Y-95345142D02*
X118044982Y-95345142D01*
X118044982Y-94964190D01*
X118092602Y-94868952D01*
X118140221Y-94821333D01*
X118235459Y-94773714D01*
X118378316Y-94773714D01*
X118473554Y-94821333D01*
X118521173Y-94868952D01*
X118568792Y-94964190D01*
X118568792Y-95345142D01*
X120988316Y-104964190D02*
X120988316Y-105202285D01*
X119559744Y-105202285D01*
X119559744Y-104964190D01*
X120559744Y-104583238D02*
X120607363Y-104535619D01*
X120654982Y-104583238D01*
X120607363Y-104630857D01*
X120559744Y-104583238D01*
X120654982Y-104583238D01*
X120559744Y-104107047D02*
X120607363Y-104059428D01*
X120654982Y-104107047D01*
X120607363Y-104154666D01*
X120559744Y-104107047D01*
X120654982Y-104107047D01*
X120988316Y-103726095D02*
X120988316Y-103488000D01*
X119559744Y-103488000D01*
X119559744Y-103726095D01*
X120654982Y-102202285D02*
X119654982Y-102202285D01*
X120654982Y-101630857D01*
X119654982Y-101630857D01*
X119654982Y-100964190D02*
X119654982Y-100773714D01*
X119702602Y-100678476D01*
X119797840Y-100583238D01*
X119988316Y-100535619D01*
X120321649Y-100535619D01*
X120512125Y-100583238D01*
X120607363Y-100678476D01*
X120654982Y-100773714D01*
X120654982Y-100964190D01*
X120607363Y-101059428D01*
X120512125Y-101154666D01*
X120321649Y-101202285D01*
X119988316Y-101202285D01*
X119797840Y-101154666D01*
X119702602Y-101059428D01*
X119654982Y-100964190D01*
X120131173Y-99011809D02*
X120131173Y-99345142D01*
X120654982Y-99345142D02*
X119654982Y-99345142D01*
X119654982Y-98868952D01*
X120654982Y-98488000D02*
X119654982Y-98488000D01*
X120654982Y-97535619D02*
X120654982Y-98011809D01*
X119654982Y-98011809D01*
X119654982Y-97345142D02*
X119654982Y-96773714D01*
X120654982Y-97059428D02*
X119654982Y-97059428D01*
X120131173Y-96440380D02*
X120131173Y-96107047D01*
X120654982Y-95964190D02*
X120654982Y-96440380D01*
X119654982Y-96440380D01*
X119654982Y-95964190D01*
X120654982Y-94964190D02*
X120178792Y-95297523D01*
X120654982Y-95535619D02*
X119654982Y-95535619D01*
X119654982Y-95154666D01*
X119702602Y-95059428D01*
X119750221Y-95011809D01*
X119845459Y-94964190D01*
X119988316Y-94964190D01*
X120083554Y-95011809D01*
X120131173Y-95059428D01*
X120178792Y-95154666D01*
X120178792Y-95535619D01*
D13*
X133477142Y-108470000D02*
X133334285Y-108398571D01*
X133120000Y-108398571D01*
X132905714Y-108470000D01*
X132762857Y-108612857D01*
X132691428Y-108755714D01*
X132620000Y-109041428D01*
X132620000Y-109255714D01*
X132691428Y-109541428D01*
X132762857Y-109684285D01*
X132905714Y-109827142D01*
X133120000Y-109898571D01*
X133262857Y-109898571D01*
X133477142Y-109827142D01*
X133548571Y-109755714D01*
X133548571Y-109255714D01*
X133262857Y-109255714D01*
X134191428Y-109898571D02*
X134191428Y-108398571D01*
X135048571Y-109898571D01*
X135048571Y-108398571D01*
X135762857Y-109898571D02*
X135762857Y-108398571D01*
X136120000Y-108398571D01*
X136334285Y-108470000D01*
X136477142Y-108612857D01*
X136548571Y-108755714D01*
X136620000Y-109041428D01*
X136620000Y-109255714D01*
X136548571Y-109541428D01*
X136477142Y-109684285D01*
X136334285Y-109827142D01*
X136120000Y-109898571D01*
X135762857Y-109898571D01*
X157650571Y-121352428D02*
X156150571Y-121352428D01*
X156150571Y-120781000D01*
X156222000Y-120638142D01*
X156293428Y-120566714D01*
X156436285Y-120495285D01*
X156650571Y-120495285D01*
X156793428Y-120566714D01*
X156864857Y-120638142D01*
X156936285Y-120781000D01*
X156936285Y-121352428D01*
X156150571Y-119995285D02*
X157650571Y-119638142D01*
X156579142Y-119352428D01*
X157650571Y-119066714D01*
X156150571Y-118709571D01*
X157650571Y-118138142D02*
X156150571Y-118138142D01*
X157222000Y-117638142D01*
X156150571Y-117138142D01*
X157650571Y-117138142D01*
D12*
X136088380Y-82082285D02*
X135088380Y-82082285D01*
X135088380Y-81844190D01*
X135136000Y-81701333D01*
X135231238Y-81606095D01*
X135326476Y-81558476D01*
X135516952Y-81510857D01*
X135659809Y-81510857D01*
X135850285Y-81558476D01*
X135945523Y-81606095D01*
X136040761Y-81701333D01*
X136088380Y-81844190D01*
X136088380Y-82082285D01*
X135516952Y-80939428D02*
X135469333Y-81034666D01*
X135421714Y-81082285D01*
X135326476Y-81129904D01*
X135278857Y-81129904D01*
X135183619Y-81082285D01*
X135136000Y-81034666D01*
X135088380Y-80939428D01*
X135088380Y-80748952D01*
X135136000Y-80653714D01*
X135183619Y-80606095D01*
X135278857Y-80558476D01*
X135326476Y-80558476D01*
X135421714Y-80606095D01*
X135469333Y-80653714D01*
X135516952Y-80748952D01*
X135516952Y-80939428D01*
X135564571Y-81034666D01*
X135612190Y-81082285D01*
X135707428Y-81129904D01*
X135897904Y-81129904D01*
X135993142Y-81082285D01*
X136040761Y-81034666D01*
X136088380Y-80939428D01*
X136088380Y-80748952D01*
X136040761Y-80653714D01*
X135993142Y-80606095D01*
X135897904Y-80558476D01*
X135707428Y-80558476D01*
X135612190Y-80606095D01*
X135564571Y-80653714D01*
X135516952Y-80748952D01*
X150312380Y-82082285D02*
X149312380Y-82082285D01*
X149312380Y-81844190D01*
X149360000Y-81701333D01*
X149455238Y-81606095D01*
X149550476Y-81558476D01*
X149740952Y-81510857D01*
X149883809Y-81510857D01*
X150074285Y-81558476D01*
X150169523Y-81606095D01*
X150264761Y-81701333D01*
X150312380Y-81844190D01*
X150312380Y-82082285D01*
X149312380Y-81177523D02*
X149312380Y-80558476D01*
X149693333Y-80891809D01*
X149693333Y-80748952D01*
X149740952Y-80653714D01*
X149788571Y-80606095D01*
X149883809Y-80558476D01*
X150121904Y-80558476D01*
X150217142Y-80606095D01*
X150264761Y-80653714D01*
X150312380Y-80748952D01*
X150312380Y-81034666D01*
X150264761Y-81129904D01*
X150217142Y-81177523D01*
X131008380Y-83034666D02*
X130008380Y-83034666D01*
X130008380Y-82796571D01*
X130056000Y-82653714D01*
X130151238Y-82558476D01*
X130246476Y-82510857D01*
X130436952Y-82463238D01*
X130579809Y-82463238D01*
X130770285Y-82510857D01*
X130865523Y-82558476D01*
X130960761Y-82653714D01*
X131008380Y-82796571D01*
X131008380Y-83034666D01*
X131008380Y-81510857D02*
X131008380Y-82082285D01*
X131008380Y-81796571D02*
X130008380Y-81796571D01*
X130151238Y-81891809D01*
X130246476Y-81987047D01*
X130294095Y-82082285D01*
X130008380Y-80891809D02*
X130008380Y-80796571D01*
X130056000Y-80701333D01*
X130103619Y-80653714D01*
X130198857Y-80606095D01*
X130389333Y-80558476D01*
X130627428Y-80558476D01*
X130817904Y-80606095D01*
X130913142Y-80653714D01*
X130960761Y-80701333D01*
X131008380Y-80796571D01*
X131008380Y-80891809D01*
X130960761Y-80987047D01*
X130913142Y-81034666D01*
X130817904Y-81082285D01*
X130627428Y-81129904D01*
X130389333Y-81129904D01*
X130198857Y-81082285D01*
X130103619Y-81034666D01*
X130056000Y-80987047D01*
X130008380Y-80891809D01*
X152566666Y-125181523D02*
X152566666Y-124705333D01*
X152852380Y-125276761D02*
X151852380Y-124943428D01*
X152852380Y-124610095D01*
X151852380Y-124372000D02*
X151852380Y-123752952D01*
X152233333Y-124086285D01*
X152233333Y-123943428D01*
X152280952Y-123848190D01*
X152328571Y-123800571D01*
X152423809Y-123752952D01*
X152661904Y-123752952D01*
X152757142Y-123800571D01*
X152804761Y-123848190D01*
X152852380Y-123943428D01*
X152852380Y-124229142D01*
X152804761Y-124324380D01*
X152757142Y-124372000D01*
D14*
%TO.C,R23*%
X124359641Y-88844000D02*
X124052359Y-88844000D01*
X124359641Y-88084000D02*
X124052359Y-88084000D01*
%TO.C,J3*%
X143690000Y-113538000D02*
X143690000Y-110938000D01*
X143690000Y-113538000D02*
X141030000Y-113538000D01*
X143690000Y-110938000D02*
X141030000Y-110938000D01*
X143690000Y-114808000D02*
X143690000Y-116138000D01*
X141030000Y-113538000D02*
X141030000Y-110938000D01*
X143690000Y-116138000D02*
X142360000Y-116138000D01*
%TO.C,R4*%
X135256000Y-85010359D02*
X135256000Y-85317641D01*
X136016000Y-85010359D02*
X136016000Y-85317641D01*
%TO.C,R18*%
X128396000Y-85010359D02*
X128396000Y-85317641D01*
X127636000Y-85010359D02*
X127636000Y-85317641D01*
%TO.C,C6*%
X130307602Y-105380000D02*
X130307602Y-95280000D01*
X129226602Y-99089000D02*
X129226602Y-95519000D01*
X126506602Y-102975000D02*
X126506602Y-99570000D01*
X129426602Y-105204000D02*
X129426602Y-101571000D01*
X127586602Y-97090000D02*
X127586602Y-96438000D01*
X129146602Y-99089000D02*
X129146602Y-95547000D01*
X130707602Y-105408000D02*
X130707602Y-95252000D01*
X125786602Y-100929000D02*
X125786602Y-99731000D01*
X127226602Y-97090000D02*
X127226602Y-96769000D01*
X129266602Y-99089000D02*
X129266602Y-95506000D01*
X128026602Y-104551000D02*
X128026602Y-101571000D01*
X129506602Y-105227000D02*
X129506602Y-101571000D01*
X129586602Y-105248000D02*
X129586602Y-101571000D01*
X128666602Y-104914000D02*
X128666602Y-101571000D01*
X127626602Y-104255000D02*
X127626602Y-101571000D01*
X125866602Y-101392000D02*
X125866602Y-99268000D01*
X129546602Y-105237000D02*
X129546602Y-101571000D01*
X127506602Y-104154000D02*
X127506602Y-101571000D01*
X126026602Y-101960000D02*
X126026602Y-98700000D01*
X127226602Y-103891000D02*
X127226602Y-101571000D01*
X126346602Y-102695000D02*
X126346602Y-97965000D01*
X130867602Y-105410000D02*
X130867602Y-95250000D01*
X128746602Y-104951000D02*
X128746602Y-101571000D01*
X128906602Y-105020000D02*
X128906602Y-101571000D01*
X126186602Y-102367000D02*
X126186602Y-98293000D01*
X128666602Y-97090000D02*
X128666602Y-95746000D01*
X128386602Y-97090000D02*
X128386602Y-95890000D01*
X128786602Y-97090000D02*
X128786602Y-95691000D01*
X128626602Y-104894000D02*
X128626602Y-101571000D01*
X129746602Y-105286000D02*
X129746602Y-95374000D01*
X128426602Y-104792000D02*
X128426602Y-101571000D01*
X129386602Y-99089000D02*
X129386602Y-95468000D01*
X128466602Y-104813000D02*
X128466602Y-101571000D01*
X129346602Y-105180000D02*
X129346602Y-101571000D01*
X127426602Y-97090000D02*
X127426602Y-96577000D01*
X128066602Y-104577000D02*
X128066602Y-101571000D01*
X126746602Y-103330000D02*
X126746602Y-99570000D01*
X126986602Y-97090000D02*
X126986602Y-97029000D01*
X128786602Y-104969000D02*
X128786602Y-101571000D01*
X128946602Y-105037000D02*
X128946602Y-101571000D01*
X129826602Y-105304000D02*
X129826602Y-95356000D01*
X129666602Y-105268000D02*
X129666602Y-95392000D01*
X128906602Y-97090000D02*
X128906602Y-95640000D01*
X127306602Y-103970000D02*
X127306602Y-101571000D01*
X129986602Y-105334000D02*
X129986602Y-95326000D01*
X128106602Y-104603000D02*
X128106602Y-101571000D01*
X128746602Y-97090000D02*
X128746602Y-95709000D01*
X130427602Y-105392000D02*
X130427602Y-95268000D01*
X126786602Y-103384000D02*
X126786602Y-99570000D01*
X127146602Y-103808000D02*
X127146602Y-101571000D01*
X127986602Y-104524000D02*
X127986602Y-101571000D01*
X127626602Y-97090000D02*
X127626602Y-96405000D01*
X127706602Y-104319000D02*
X127706602Y-101571000D01*
X126426602Y-102840000D02*
X126426602Y-97820000D01*
X128346602Y-97090000D02*
X128346602Y-95913000D01*
X127346602Y-104009000D02*
X127346602Y-101571000D01*
X135847248Y-103705000D02*
X135847248Y-102705000D01*
X125986602Y-101840000D02*
X125986602Y-98820000D01*
X130267602Y-105375000D02*
X130267602Y-95285000D01*
X128546602Y-97090000D02*
X128546602Y-95805000D01*
X127666602Y-104287000D02*
X127666602Y-101571000D01*
X129146602Y-105113000D02*
X129146602Y-101571000D01*
X128866602Y-105004000D02*
X128866602Y-101571000D01*
X129866602Y-105312000D02*
X129866602Y-95348000D01*
X126146602Y-102274000D02*
X126146602Y-98386000D01*
X128626602Y-97090000D02*
X128626602Y-95766000D01*
X126306602Y-102619000D02*
X126306602Y-98041000D01*
X129586602Y-99089000D02*
X129586602Y-95412000D01*
X127546602Y-97090000D02*
X127546602Y-96472000D01*
X126626602Y-103160000D02*
X126626602Y-99570000D01*
X136347248Y-103205000D02*
X135347248Y-103205000D01*
X130227602Y-105370000D02*
X130227602Y-95290000D01*
X129506602Y-99089000D02*
X129506602Y-95433000D01*
X127386602Y-104046000D02*
X127386602Y-101571000D01*
X127706602Y-97090000D02*
X127706602Y-96341000D01*
X128346602Y-104747000D02*
X128346602Y-101571000D01*
X126866602Y-103486000D02*
X126866602Y-99570000D01*
X129466602Y-99089000D02*
X129466602Y-95445000D01*
X128946602Y-99089000D02*
X128946602Y-95623000D01*
X129306602Y-105167000D02*
X129306602Y-101571000D01*
X127186602Y-97090000D02*
X127186602Y-96810000D01*
X128106602Y-97090000D02*
X128106602Y-96057000D01*
X128266602Y-97090000D02*
X128266602Y-95959000D01*
X127946602Y-97090000D02*
X127946602Y-96164000D01*
X129106602Y-105098000D02*
X129106602Y-101571000D01*
X129186602Y-99089000D02*
X129186602Y-95533000D01*
X127866602Y-104440000D02*
X127866602Y-101571000D01*
X127266602Y-103931000D02*
X127266602Y-101571000D01*
X128586602Y-97090000D02*
X128586602Y-95785000D01*
X127066602Y-97090000D02*
X127066602Y-96938000D01*
X127026602Y-103677000D02*
X127026602Y-99570000D01*
X130787602Y-105410000D02*
X130787602Y-95250000D01*
X127786602Y-104380000D02*
X127786602Y-101571000D01*
X127386602Y-97090000D02*
X127386602Y-96614000D01*
X128306602Y-97090000D02*
X128306602Y-95935000D01*
X128226602Y-104677000D02*
X128226602Y-101571000D01*
X128186602Y-104653000D02*
X128186602Y-101571000D01*
X128706602Y-97090000D02*
X128706602Y-95727000D01*
X130827602Y-105410000D02*
X130827602Y-95250000D01*
X127466602Y-104119000D02*
X127466602Y-101571000D01*
X126946602Y-97090000D02*
X126946602Y-97076000D01*
X126546602Y-103039000D02*
X126546602Y-99570000D01*
X128506602Y-104834000D02*
X128506602Y-101571000D01*
X129426602Y-99089000D02*
X129426602Y-95456000D01*
X129106602Y-99089000D02*
X129106602Y-95562000D01*
X130187602Y-105365000D02*
X130187602Y-95295000D01*
X126586602Y-103100000D02*
X126586602Y-99570000D01*
X125826602Y-101192000D02*
X125826602Y-99468000D01*
X126666602Y-103219000D02*
X126666602Y-99570000D01*
X129266602Y-105154000D02*
X129266602Y-101571000D01*
X126826602Y-103436000D02*
X126826602Y-99570000D01*
X130547602Y-105400000D02*
X130547602Y-95260000D01*
X127826602Y-97090000D02*
X127826602Y-96250000D01*
X129466602Y-105215000D02*
X129466602Y-101571000D01*
X129066602Y-99089000D02*
X129066602Y-95576000D01*
X126106602Y-102176000D02*
X126106602Y-98484000D01*
X128426602Y-97090000D02*
X128426602Y-95868000D01*
X130467602Y-105395000D02*
X130467602Y-95265000D01*
X129226602Y-105141000D02*
X129226602Y-101571000D01*
X127666602Y-97090000D02*
X127666602Y-96373000D01*
X130627602Y-105405000D02*
X130627602Y-95255000D01*
X129026602Y-99089000D02*
X129026602Y-95592000D01*
X127426602Y-104083000D02*
X127426602Y-101571000D01*
X129626602Y-105258000D02*
X129626602Y-95402000D01*
X127786602Y-97090000D02*
X127786602Y-96280000D01*
X127986602Y-97090000D02*
X127986602Y-96136000D01*
X130387602Y-105388000D02*
X130387602Y-95272000D01*
X130347602Y-105384000D02*
X130347602Y-95276000D01*
X128466602Y-97090000D02*
X128466602Y-95847000D01*
X127146602Y-97090000D02*
X127146602Y-96852000D01*
X130106602Y-105354000D02*
X130106602Y-95306000D01*
X129706602Y-105277000D02*
X129706602Y-95383000D01*
X130026602Y-105341000D02*
X130026602Y-95319000D01*
X128586602Y-104875000D02*
X128586602Y-101571000D01*
X127106602Y-103766000D02*
X127106602Y-99570000D01*
X127106602Y-97090000D02*
X127106602Y-96894000D01*
X125906602Y-101560000D02*
X125906602Y-99100000D01*
X127466602Y-97090000D02*
X127466602Y-96541000D01*
X128026602Y-97090000D02*
X128026602Y-96109000D01*
X130587602Y-105403000D02*
X130587602Y-95257000D01*
X130747602Y-105409000D02*
X130747602Y-95251000D01*
X130667602Y-105407000D02*
X130667602Y-95253000D01*
X126706602Y-103275000D02*
X126706602Y-99570000D01*
X127186602Y-103850000D02*
X127186602Y-101571000D01*
X129546602Y-99089000D02*
X129546602Y-95423000D01*
X126386602Y-102769000D02*
X126386602Y-97891000D01*
X126266602Y-102539000D02*
X126266602Y-98121000D01*
X128546602Y-104855000D02*
X128546602Y-101571000D01*
X128866602Y-97090000D02*
X128866602Y-95656000D01*
X128986602Y-105053000D02*
X128986602Y-101571000D01*
X127066602Y-103722000D02*
X127066602Y-99570000D01*
X128226602Y-97090000D02*
X128226602Y-95983000D01*
X128826602Y-97090000D02*
X128826602Y-95673000D01*
X129186602Y-105127000D02*
X129186602Y-101571000D01*
X129306602Y-99089000D02*
X129306602Y-95493000D01*
X126986602Y-103631000D02*
X126986602Y-99570000D01*
X127026602Y-97090000D02*
X127026602Y-96983000D01*
X128826602Y-104987000D02*
X128826602Y-101571000D01*
X129066602Y-105084000D02*
X129066602Y-101571000D01*
X127346602Y-97090000D02*
X127346602Y-96651000D01*
X128386602Y-104770000D02*
X128386602Y-101571000D01*
X127746602Y-97090000D02*
X127746602Y-96310000D01*
X128066602Y-97090000D02*
X128066602Y-96083000D01*
X129906602Y-105320000D02*
X129906602Y-95340000D01*
X129386602Y-105192000D02*
X129386602Y-101571000D01*
X128146602Y-97090000D02*
X128146602Y-96032000D01*
X128306602Y-104725000D02*
X128306602Y-101571000D01*
X127906602Y-97090000D02*
X127906602Y-96192000D01*
X127586602Y-104222000D02*
X127586602Y-101571000D01*
X127266602Y-97090000D02*
X127266602Y-96729000D01*
X127906602Y-104468000D02*
X127906602Y-101571000D01*
X126466602Y-102909000D02*
X126466602Y-99570000D01*
X126226602Y-102455000D02*
X126226602Y-98205000D01*
X127746602Y-104350000D02*
X127746602Y-101571000D01*
X129346602Y-99089000D02*
X129346602Y-95480000D01*
X128506602Y-97090000D02*
X128506602Y-95826000D01*
X126066602Y-102072000D02*
X126066602Y-98588000D01*
X127306602Y-97090000D02*
X127306602Y-96690000D01*
X130507602Y-105398000D02*
X130507602Y-95262000D01*
X130066602Y-105348000D02*
X130066602Y-95312000D01*
X128186602Y-97090000D02*
X128186602Y-96007000D01*
X126906602Y-103536000D02*
X126906602Y-99570000D01*
X127506602Y-97090000D02*
X127506602Y-96506000D01*
X128146602Y-104628000D02*
X128146602Y-101571000D01*
X128266602Y-104701000D02*
X128266602Y-101571000D01*
X128986602Y-99089000D02*
X128986602Y-95607000D01*
X129026602Y-105068000D02*
X129026602Y-101571000D01*
X127866602Y-97090000D02*
X127866602Y-96220000D01*
X127946602Y-104496000D02*
X127946602Y-101571000D01*
X129946602Y-105327000D02*
X129946602Y-95333000D01*
X127546602Y-104188000D02*
X127546602Y-101571000D01*
X126946602Y-103584000D02*
X126946602Y-99570000D01*
X127826602Y-104410000D02*
X127826602Y-101571000D01*
X130146602Y-105360000D02*
X130146602Y-95300000D01*
X128706602Y-104933000D02*
X128706602Y-101571000D01*
X129786602Y-105295000D02*
X129786602Y-95365000D01*
X125946602Y-101708000D02*
X125946602Y-98952000D01*
X135692506Y-102043098D02*
G75*
G03*
X134815614Y-103590000I-4824904J1713098D01*
G01*
%TO.C,R13*%
X129439641Y-88844000D02*
X129132359Y-88844000D01*
X129439641Y-88084000D02*
X129132359Y-88084000D01*
%TO.C,C1*%
X149973420Y-86684000D02*
X150254580Y-86684000D01*
X149973420Y-87704000D02*
X150254580Y-87704000D01*
%TO.C,J4*%
X129281000Y-90110000D02*
X131881000Y-90110000D01*
X129281000Y-92770000D02*
X129281000Y-90110000D01*
X126681000Y-92770000D02*
X126681000Y-91440000D01*
X131881000Y-92770000D02*
X131881000Y-90110000D01*
X128011000Y-92770000D02*
X126681000Y-92770000D01*
X129281000Y-92770000D02*
X131881000Y-92770000D01*
%TO.C,R22*%
X124359641Y-86560000D02*
X124052359Y-86560000D01*
X124359641Y-87320000D02*
X124052359Y-87320000D01*
%TO.C,J5*%
X136070000Y-114808000D02*
X136070000Y-116138000D01*
X136070000Y-116138000D02*
X134740000Y-116138000D01*
X133410000Y-113538000D02*
X133410000Y-110938000D01*
X136070000Y-113538000D02*
X136070000Y-110938000D01*
X136070000Y-110938000D02*
X133410000Y-110938000D01*
X136070000Y-113538000D02*
X133410000Y-113538000D01*
%TO.C,R8*%
X132716000Y-85010359D02*
X132716000Y-85317641D01*
X133476000Y-85010359D02*
X133476000Y-85317641D01*
%TO.C,R19*%
X126899641Y-87320000D02*
X126592359Y-87320000D01*
X126899641Y-86560000D02*
X126592359Y-86560000D01*
%TO.C,R20*%
X126899641Y-88084000D02*
X126592359Y-88084000D01*
X126899641Y-88844000D02*
X126592359Y-88844000D01*
%TO.C,R14*%
X132716000Y-91286359D02*
X132716000Y-91593641D01*
X133476000Y-91286359D02*
X133476000Y-91593641D01*
%TO.C,R11*%
X130936000Y-85010359D02*
X130936000Y-85317641D01*
X130176000Y-85010359D02*
X130176000Y-85317641D01*
%TO.C,R1*%
X153670000Y-82320000D02*
X153670000Y-83090000D01*
X152300000Y-83090000D02*
X152300000Y-89630000D01*
X153670000Y-90400000D02*
X153670000Y-89630000D01*
X152300000Y-89630000D02*
X155040000Y-89630000D01*
X155040000Y-89630000D02*
X155040000Y-83090000D01*
X155040000Y-83090000D02*
X152300000Y-83090000D01*
%TO.C,R21*%
X125856000Y-85010359D02*
X125856000Y-85317641D01*
X125096000Y-85010359D02*
X125096000Y-85317641D01*
%TO.C,J6*%
X124537602Y-97409000D02*
X121877602Y-97409000D01*
X124537602Y-102609000D02*
X123207602Y-102609000D01*
X124537602Y-101279000D02*
X124537602Y-102609000D01*
X124537602Y-100009000D02*
X124537602Y-97409000D01*
X121877602Y-100009000D02*
X121877602Y-97409000D01*
X124537602Y-100009000D02*
X121877602Y-100009000D01*
%TO.C,J7*%
X128450000Y-113538000D02*
X128450000Y-110938000D01*
X128450000Y-113538000D02*
X125790000Y-113538000D01*
X128450000Y-116138000D02*
X127120000Y-116138000D01*
X125790000Y-113538000D02*
X125790000Y-110938000D01*
X128450000Y-114808000D02*
X128450000Y-116138000D01*
X128450000Y-110938000D02*
X125790000Y-110938000D01*
%TO.C,R7*%
X134521641Y-88844000D02*
X134214359Y-88844000D01*
X134521641Y-88084000D02*
X134214359Y-88084000D01*
%TO.C,R15*%
X142240000Y-82320000D02*
X142240000Y-83090000D01*
X140870000Y-89630000D02*
X143610000Y-89630000D01*
X143610000Y-83090000D02*
X140870000Y-83090000D01*
X142240000Y-90400000D02*
X142240000Y-89630000D01*
X143610000Y-89630000D02*
X143610000Y-83090000D01*
X140870000Y-83090000D02*
X140870000Y-89630000D01*
%TO.C,R3*%
X149988000Y-85008359D02*
X149988000Y-85315641D01*
X150748000Y-85008359D02*
X150748000Y-85315641D01*
%TO.C,R17*%
X144400000Y-85008359D02*
X144400000Y-85315641D01*
X145160000Y-85008359D02*
X145160000Y-85315641D01*
%TO.C,R5*%
X135256000Y-90088359D02*
X135256000Y-90395641D01*
X136016000Y-90088359D02*
X136016000Y-90395641D01*
%TO.C,C4*%
X141937602Y-105398000D02*
X141937602Y-95262000D01*
X139936602Y-97090000D02*
X139936602Y-95826000D01*
X140136602Y-104933000D02*
X140136602Y-101571000D01*
X141176602Y-105286000D02*
X141176602Y-95374000D01*
X138656602Y-97090000D02*
X138656602Y-96769000D01*
X137696602Y-102539000D02*
X137696602Y-98121000D01*
X139256602Y-104410000D02*
X139256602Y-101571000D01*
X140696602Y-105154000D02*
X140696602Y-101571000D01*
X138736602Y-97090000D02*
X138736602Y-96690000D01*
X140896602Y-105215000D02*
X140896602Y-101571000D01*
X141657602Y-105370000D02*
X141657602Y-95290000D01*
X141016602Y-99089000D02*
X141016602Y-95412000D01*
X140176602Y-97090000D02*
X140176602Y-95709000D01*
X139816602Y-104770000D02*
X139816602Y-101571000D01*
X142137602Y-105408000D02*
X142137602Y-95252000D01*
X140256602Y-97090000D02*
X140256602Y-95673000D01*
X142217602Y-105410000D02*
X142217602Y-95250000D01*
X139896602Y-104813000D02*
X139896602Y-101571000D01*
X139976602Y-97090000D02*
X139976602Y-95805000D01*
X141216602Y-105295000D02*
X141216602Y-95365000D01*
X139296602Y-104440000D02*
X139296602Y-101571000D01*
X139976602Y-104855000D02*
X139976602Y-101571000D01*
X139056602Y-104255000D02*
X139056602Y-101571000D01*
X147277248Y-103705000D02*
X147277248Y-102705000D01*
X139536602Y-97090000D02*
X139536602Y-96057000D01*
X139416602Y-97090000D02*
X139416602Y-96136000D01*
X137216602Y-100929000D02*
X137216602Y-99731000D01*
X139216602Y-97090000D02*
X139216602Y-96280000D01*
X137816602Y-102769000D02*
X137816602Y-97891000D01*
X139376602Y-97090000D02*
X139376602Y-96164000D01*
X138736602Y-103970000D02*
X138736602Y-101571000D01*
X137376602Y-101708000D02*
X137376602Y-98952000D01*
X138816602Y-97090000D02*
X138816602Y-96614000D01*
X138616602Y-97090000D02*
X138616602Y-96810000D01*
X141897602Y-105395000D02*
X141897602Y-95265000D01*
X138296602Y-103486000D02*
X138296602Y-99570000D01*
X138456602Y-103677000D02*
X138456602Y-99570000D01*
X138856602Y-104083000D02*
X138856602Y-101571000D01*
X142177602Y-105409000D02*
X142177602Y-95251000D01*
X139656602Y-104677000D02*
X139656602Y-101571000D01*
X138696602Y-97090000D02*
X138696602Y-96729000D01*
X140736602Y-99089000D02*
X140736602Y-95493000D01*
X140056602Y-97090000D02*
X140056602Y-95766000D01*
X138376602Y-97090000D02*
X138376602Y-97076000D01*
X141016602Y-105248000D02*
X141016602Y-101571000D01*
X137416602Y-101840000D02*
X137416602Y-98820000D01*
X138096602Y-103219000D02*
X138096602Y-99570000D01*
X140376602Y-105037000D02*
X140376602Y-101571000D01*
X140656602Y-99089000D02*
X140656602Y-95519000D01*
X137976602Y-103039000D02*
X137976602Y-99570000D01*
X141777602Y-105384000D02*
X141777602Y-95276000D01*
X138416602Y-103631000D02*
X138416602Y-99570000D01*
X138856602Y-97090000D02*
X138856602Y-96577000D01*
X141056602Y-105258000D02*
X141056602Y-95402000D01*
X138496602Y-103722000D02*
X138496602Y-99570000D01*
X139096602Y-97090000D02*
X139096602Y-96373000D01*
X140336602Y-97090000D02*
X140336602Y-95640000D01*
X140696602Y-99089000D02*
X140696602Y-95506000D01*
X138056602Y-103160000D02*
X138056602Y-99570000D01*
X139856602Y-104792000D02*
X139856602Y-101571000D01*
X141376602Y-105327000D02*
X141376602Y-95333000D01*
X140176602Y-104951000D02*
X140176602Y-101571000D01*
X139696602Y-97090000D02*
X139696602Y-95959000D01*
X139776602Y-104747000D02*
X139776602Y-101571000D01*
X137536602Y-102176000D02*
X137536602Y-98484000D01*
X137456602Y-101960000D02*
X137456602Y-98700000D01*
X137856602Y-102840000D02*
X137856602Y-97820000D01*
X139816602Y-97090000D02*
X139816602Y-95890000D01*
X140456602Y-105068000D02*
X140456602Y-101571000D01*
X138576602Y-97090000D02*
X138576602Y-96852000D01*
X140656602Y-105141000D02*
X140656602Y-101571000D01*
X138536602Y-97090000D02*
X138536602Y-96894000D01*
X138776602Y-104009000D02*
X138776602Y-101571000D01*
X140816602Y-105192000D02*
X140816602Y-101571000D01*
X141136602Y-105277000D02*
X141136602Y-95383000D01*
X137336602Y-101560000D02*
X137336602Y-99100000D01*
X140736602Y-105167000D02*
X140736602Y-101571000D01*
X138976602Y-104188000D02*
X138976602Y-101571000D01*
X147777248Y-103205000D02*
X146777248Y-103205000D01*
X140976602Y-105237000D02*
X140976602Y-101571000D01*
X138256602Y-103436000D02*
X138256602Y-99570000D01*
X142057602Y-105405000D02*
X142057602Y-95255000D01*
X140616602Y-105127000D02*
X140616602Y-101571000D01*
X140296602Y-97090000D02*
X140296602Y-95656000D01*
X139456602Y-104551000D02*
X139456602Y-101571000D01*
X141857602Y-105392000D02*
X141857602Y-95268000D01*
X140496602Y-105084000D02*
X140496602Y-101571000D01*
X141737602Y-105380000D02*
X141737602Y-95280000D01*
X139856602Y-97090000D02*
X139856602Y-95868000D01*
X138336602Y-103536000D02*
X138336602Y-99570000D01*
X138936602Y-97090000D02*
X138936602Y-96506000D01*
X139136602Y-97090000D02*
X139136602Y-96341000D01*
X141096602Y-105268000D02*
X141096602Y-95392000D01*
X141697602Y-105375000D02*
X141697602Y-95285000D01*
X140856602Y-99089000D02*
X140856602Y-95456000D01*
X139136602Y-104319000D02*
X139136602Y-101571000D01*
X139336602Y-97090000D02*
X139336602Y-96192000D01*
X137656602Y-102455000D02*
X137656602Y-98205000D01*
X140816602Y-99089000D02*
X140816602Y-95468000D01*
X138416602Y-97090000D02*
X138416602Y-97029000D01*
X140856602Y-105204000D02*
X140856602Y-101571000D01*
X140936602Y-105227000D02*
X140936602Y-101571000D01*
X137776602Y-102695000D02*
X137776602Y-97965000D01*
X141336602Y-105320000D02*
X141336602Y-95340000D01*
X140536602Y-99089000D02*
X140536602Y-95562000D01*
X137496602Y-102072000D02*
X137496602Y-98588000D01*
X140576602Y-105113000D02*
X140576602Y-101571000D01*
X138576602Y-103808000D02*
X138576602Y-101571000D01*
X138456602Y-97090000D02*
X138456602Y-96983000D01*
X140616602Y-99089000D02*
X140616602Y-95533000D01*
X138496602Y-97090000D02*
X138496602Y-96938000D01*
X139496602Y-97090000D02*
X139496602Y-96083000D01*
X141496602Y-105348000D02*
X141496602Y-95312000D01*
X139576602Y-104628000D02*
X139576602Y-101571000D01*
X139176602Y-104350000D02*
X139176602Y-101571000D01*
X139016602Y-97090000D02*
X139016602Y-96438000D01*
X140216602Y-97090000D02*
X140216602Y-95691000D01*
X140296602Y-105004000D02*
X140296602Y-101571000D01*
X142097602Y-105407000D02*
X142097602Y-95253000D01*
X140096602Y-97090000D02*
X140096602Y-95746000D01*
X138896602Y-104119000D02*
X138896602Y-101571000D01*
X140336602Y-105020000D02*
X140336602Y-101571000D01*
X139736602Y-104725000D02*
X139736602Y-101571000D01*
X137936602Y-102975000D02*
X137936602Y-99570000D01*
X141256602Y-105304000D02*
X141256602Y-95356000D01*
X139096602Y-104287000D02*
X139096602Y-101571000D01*
X139736602Y-97090000D02*
X139736602Y-95935000D01*
X138896602Y-97090000D02*
X138896602Y-96541000D01*
X140896602Y-99089000D02*
X140896602Y-95445000D01*
X140976602Y-99089000D02*
X140976602Y-95423000D01*
X138656602Y-103891000D02*
X138656602Y-101571000D01*
X137896602Y-102909000D02*
X137896602Y-99570000D01*
X137256602Y-101192000D02*
X137256602Y-99468000D01*
X138776602Y-97090000D02*
X138776602Y-96651000D01*
X137616602Y-102367000D02*
X137616602Y-98293000D01*
X139296602Y-97090000D02*
X139296602Y-96220000D01*
X139536602Y-104603000D02*
X139536602Y-101571000D01*
X140376602Y-99089000D02*
X140376602Y-95623000D01*
X141576602Y-105360000D02*
X141576602Y-95300000D01*
X141416602Y-105334000D02*
X141416602Y-95326000D01*
X139776602Y-97090000D02*
X139776602Y-95913000D01*
X140776602Y-99089000D02*
X140776602Y-95480000D01*
X140776602Y-105180000D02*
X140776602Y-101571000D01*
X141456602Y-105341000D02*
X141456602Y-95319000D01*
X138696602Y-103931000D02*
X138696602Y-101571000D01*
X139496602Y-104577000D02*
X139496602Y-101571000D01*
X139176602Y-97090000D02*
X139176602Y-96310000D01*
X140416602Y-105053000D02*
X140416602Y-101571000D01*
X142297602Y-105410000D02*
X142297602Y-95250000D01*
X138216602Y-103384000D02*
X138216602Y-99570000D01*
X138136602Y-103275000D02*
X138136602Y-99570000D01*
X139416602Y-104524000D02*
X139416602Y-101571000D01*
X141617602Y-105365000D02*
X141617602Y-95295000D01*
X138016602Y-103100000D02*
X138016602Y-99570000D01*
X141536602Y-105354000D02*
X141536602Y-95306000D01*
X139576602Y-97090000D02*
X139576602Y-96032000D01*
X139936602Y-104834000D02*
X139936602Y-101571000D01*
X139376602Y-104496000D02*
X139376602Y-101571000D01*
X139256602Y-97090000D02*
X139256602Y-96250000D01*
X140216602Y-104969000D02*
X140216602Y-101571000D01*
X137736602Y-102619000D02*
X137736602Y-98041000D01*
X139216602Y-104380000D02*
X139216602Y-101571000D01*
X140536602Y-105098000D02*
X140536602Y-101571000D01*
X139656602Y-97090000D02*
X139656602Y-95983000D01*
X141817602Y-105388000D02*
X141817602Y-95272000D01*
X140056602Y-104894000D02*
X140056602Y-101571000D01*
X140256602Y-104987000D02*
X140256602Y-101571000D01*
X138816602Y-104046000D02*
X138816602Y-101571000D01*
X140576602Y-99089000D02*
X140576602Y-95547000D01*
X137296602Y-101392000D02*
X137296602Y-99268000D01*
X140456602Y-99089000D02*
X140456602Y-95592000D01*
X140136602Y-97090000D02*
X140136602Y-95727000D01*
X140416602Y-99089000D02*
X140416602Y-95607000D01*
X138936602Y-104154000D02*
X138936602Y-101571000D01*
X139696602Y-104701000D02*
X139696602Y-101571000D01*
X139616602Y-104653000D02*
X139616602Y-101571000D01*
X140016602Y-97090000D02*
X140016602Y-95785000D01*
X139896602Y-97090000D02*
X139896602Y-95847000D01*
X140936602Y-99089000D02*
X140936602Y-95433000D01*
X139456602Y-97090000D02*
X139456602Y-96109000D01*
X139016602Y-104222000D02*
X139016602Y-101571000D01*
X139616602Y-97090000D02*
X139616602Y-96007000D01*
X141977602Y-105400000D02*
X141977602Y-95260000D01*
X138176602Y-103330000D02*
X138176602Y-99570000D01*
X138376602Y-103584000D02*
X138376602Y-99570000D01*
X140016602Y-104875000D02*
X140016602Y-101571000D01*
X138976602Y-97090000D02*
X138976602Y-96472000D01*
X140096602Y-104914000D02*
X140096602Y-101571000D01*
X140496602Y-99089000D02*
X140496602Y-95576000D01*
X141296602Y-105312000D02*
X141296602Y-95348000D01*
X138536602Y-103766000D02*
X138536602Y-99570000D01*
X139056602Y-97090000D02*
X139056602Y-96405000D01*
X138616602Y-103850000D02*
X138616602Y-101571000D01*
X142257602Y-105410000D02*
X142257602Y-95250000D01*
X142017602Y-105403000D02*
X142017602Y-95257000D01*
X137576602Y-102274000D02*
X137576602Y-98386000D01*
X139336602Y-104468000D02*
X139336602Y-101571000D01*
X147122506Y-102043098D02*
G75*
G03*
X146245614Y-103590000I-4824904J1713098D01*
G01*
%TO.C,R9*%
X131979641Y-86560000D02*
X131672359Y-86560000D01*
X131979641Y-87320000D02*
X131672359Y-87320000D01*
%TO.C,R10*%
X131979641Y-88844000D02*
X131672359Y-88844000D01*
X131979641Y-88084000D02*
X131672359Y-88084000D01*
%TO.C,R24*%
X122556000Y-85010359D02*
X122556000Y-85317641D01*
X123316000Y-85010359D02*
X123316000Y-85317641D01*
%TO.C,C3*%
X145936580Y-87704000D02*
X145655420Y-87704000D01*
X145936580Y-86684000D02*
X145655420Y-86684000D01*
%TO.C,C5*%
X123067022Y-96196000D02*
X123348182Y-96196000D01*
X123067022Y-95176000D02*
X123348182Y-95176000D01*
%TO.C,R2*%
X148718000Y-85008359D02*
X148718000Y-85315641D01*
X149478000Y-85008359D02*
X149478000Y-85315641D01*
%TO.C,J2*%
X151310000Y-116138000D02*
X149980000Y-116138000D01*
X151310000Y-110938000D02*
X148650000Y-110938000D01*
X148650000Y-113538000D02*
X148650000Y-110938000D01*
X151310000Y-114808000D02*
X151310000Y-116138000D01*
X151310000Y-113538000D02*
X148650000Y-113538000D01*
X151310000Y-113538000D02*
X151310000Y-110938000D01*
%TO.C,J1*%
X158930000Y-113538000D02*
X158930000Y-110938000D01*
X158930000Y-114808000D02*
X158930000Y-116138000D01*
X158930000Y-110938000D02*
X156270000Y-110938000D01*
X156270000Y-113538000D02*
X156270000Y-110938000D01*
X158930000Y-113538000D02*
X156270000Y-113538000D01*
X158930000Y-116138000D02*
X157600000Y-116138000D01*
%TO.C,R16*%
X145670000Y-85008359D02*
X145670000Y-85315641D01*
X146430000Y-85008359D02*
X146430000Y-85315641D01*
%TO.C,C2*%
X151606602Y-104951000D02*
X151606602Y-101571000D01*
X148886602Y-101960000D02*
X148886602Y-98700000D01*
X151686602Y-97090000D02*
X151686602Y-95673000D01*
X152566602Y-105277000D02*
X152566602Y-95383000D01*
X149046602Y-102367000D02*
X149046602Y-98293000D01*
X152206602Y-99089000D02*
X152206602Y-95480000D01*
X150886602Y-97090000D02*
X150886602Y-96109000D01*
X153087602Y-105370000D02*
X153087602Y-95290000D01*
X151406602Y-104855000D02*
X151406602Y-101571000D01*
X151846602Y-105053000D02*
X151846602Y-101571000D01*
X149846602Y-97090000D02*
X149846602Y-97029000D01*
X148646602Y-100929000D02*
X148646602Y-99731000D01*
X152686602Y-105304000D02*
X152686602Y-95356000D01*
X150526602Y-104287000D02*
X150526602Y-101571000D01*
X153247602Y-105388000D02*
X153247602Y-95272000D01*
X152406602Y-105237000D02*
X152406602Y-101571000D01*
X150206602Y-97090000D02*
X150206602Y-96651000D01*
X152166602Y-105167000D02*
X152166602Y-101571000D01*
X149926602Y-97090000D02*
X149926602Y-96938000D01*
X150846602Y-104524000D02*
X150846602Y-101571000D01*
X153287602Y-105392000D02*
X153287602Y-95268000D01*
X150166602Y-97090000D02*
X150166602Y-96690000D01*
X151446602Y-97090000D02*
X151446602Y-95785000D01*
X150446602Y-104222000D02*
X150446602Y-101571000D01*
X148726602Y-101392000D02*
X148726602Y-99268000D01*
X149006602Y-102274000D02*
X149006602Y-98386000D01*
X151286602Y-97090000D02*
X151286602Y-95868000D01*
X148966602Y-102176000D02*
X148966602Y-98484000D01*
X153207602Y-105384000D02*
X153207602Y-95276000D01*
X150566602Y-97090000D02*
X150566602Y-96341000D01*
X150166602Y-103970000D02*
X150166602Y-101571000D01*
X152966602Y-105354000D02*
X152966602Y-95306000D01*
X152326602Y-105215000D02*
X152326602Y-101571000D01*
X149766602Y-103536000D02*
X149766602Y-99570000D01*
X150566602Y-104319000D02*
X150566602Y-101571000D01*
X152526602Y-105268000D02*
X152526602Y-95392000D01*
X151086602Y-104677000D02*
X151086602Y-101571000D01*
X148686602Y-101192000D02*
X148686602Y-99468000D01*
X148926602Y-102072000D02*
X148926602Y-98588000D01*
X151646602Y-97090000D02*
X151646602Y-95691000D01*
X149206602Y-102695000D02*
X149206602Y-97965000D01*
X152246602Y-99089000D02*
X152246602Y-95468000D01*
X150366602Y-104154000D02*
X150366602Y-101571000D01*
X150286602Y-97090000D02*
X150286602Y-96577000D01*
X150326602Y-97090000D02*
X150326602Y-96541000D01*
X152246602Y-105192000D02*
X152246602Y-101571000D01*
X149286602Y-102840000D02*
X149286602Y-97820000D01*
X149166602Y-102619000D02*
X149166602Y-98041000D01*
X151046602Y-97090000D02*
X151046602Y-96007000D01*
X151646602Y-104969000D02*
X151646602Y-101571000D01*
X149966602Y-97090000D02*
X149966602Y-96894000D01*
X152446602Y-99089000D02*
X152446602Y-95412000D01*
X152646602Y-105295000D02*
X152646602Y-95365000D01*
X151366602Y-104834000D02*
X151366602Y-101571000D01*
X150406602Y-97090000D02*
X150406602Y-96472000D01*
X150926602Y-97090000D02*
X150926602Y-96083000D01*
X151686602Y-104987000D02*
X151686602Y-101571000D01*
X149526602Y-103219000D02*
X149526602Y-99570000D01*
X151526602Y-97090000D02*
X151526602Y-95746000D01*
X151486602Y-104894000D02*
X151486602Y-101571000D01*
X152086602Y-105141000D02*
X152086602Y-101571000D01*
X153567602Y-105408000D02*
X153567602Y-95252000D01*
X152046602Y-105127000D02*
X152046602Y-101571000D01*
X150206602Y-104009000D02*
X150206602Y-101571000D01*
X150646602Y-104380000D02*
X150646602Y-101571000D01*
X151246602Y-97090000D02*
X151246602Y-95890000D01*
X149486602Y-103160000D02*
X149486602Y-99570000D01*
X150246602Y-104046000D02*
X150246602Y-101571000D01*
X151126602Y-104701000D02*
X151126602Y-101571000D01*
X151406602Y-97090000D02*
X151406602Y-95805000D01*
X153127602Y-105375000D02*
X153127602Y-95285000D01*
X150766602Y-104468000D02*
X150766602Y-101571000D01*
X153447602Y-105403000D02*
X153447602Y-95257000D01*
X153167602Y-105380000D02*
X153167602Y-95280000D01*
X151086602Y-97090000D02*
X151086602Y-95983000D01*
X150406602Y-104188000D02*
X150406602Y-101571000D01*
X150886602Y-104551000D02*
X150886602Y-101571000D01*
X153487602Y-105405000D02*
X153487602Y-95255000D01*
X151606602Y-97090000D02*
X151606602Y-95709000D01*
X151926602Y-99089000D02*
X151926602Y-95576000D01*
X152366602Y-105227000D02*
X152366602Y-101571000D01*
X151046602Y-104653000D02*
X151046602Y-101571000D01*
X150446602Y-97090000D02*
X150446602Y-96438000D01*
X151326602Y-104813000D02*
X151326602Y-101571000D01*
X151006602Y-104628000D02*
X151006602Y-101571000D01*
X151966602Y-99089000D02*
X151966602Y-95562000D01*
X149446602Y-103100000D02*
X149446602Y-99570000D01*
X152206602Y-105180000D02*
X152206602Y-101571000D01*
X151726602Y-97090000D02*
X151726602Y-95656000D01*
X153727602Y-105410000D02*
X153727602Y-95250000D01*
X150126602Y-103931000D02*
X150126602Y-101571000D01*
X150846602Y-97090000D02*
X150846602Y-96136000D01*
X151326602Y-97090000D02*
X151326602Y-95847000D01*
X151006602Y-97090000D02*
X151006602Y-96032000D01*
X153647602Y-105410000D02*
X153647602Y-95250000D01*
X150006602Y-103808000D02*
X150006602Y-101571000D01*
X153527602Y-105407000D02*
X153527602Y-95253000D01*
X152086602Y-99089000D02*
X152086602Y-95519000D01*
X152126602Y-105154000D02*
X152126602Y-101571000D01*
X151846602Y-99089000D02*
X151846602Y-95607000D01*
X151886602Y-99089000D02*
X151886602Y-95592000D01*
X148766602Y-101560000D02*
X148766602Y-99100000D01*
X150606602Y-104350000D02*
X150606602Y-101571000D01*
X153047602Y-105365000D02*
X153047602Y-95295000D01*
X151926602Y-105084000D02*
X151926602Y-101571000D01*
X152886602Y-105341000D02*
X152886602Y-95319000D01*
X152726602Y-105312000D02*
X152726602Y-95348000D01*
X152486602Y-105258000D02*
X152486602Y-95402000D01*
X150286602Y-104083000D02*
X150286602Y-101571000D01*
X148846602Y-101840000D02*
X148846602Y-98820000D01*
X159207248Y-103205000D02*
X158207248Y-103205000D01*
X149326602Y-102909000D02*
X149326602Y-99570000D01*
X153367602Y-105398000D02*
X153367602Y-95262000D01*
X149606602Y-103330000D02*
X149606602Y-99570000D01*
X150086602Y-103891000D02*
X150086602Y-101571000D01*
X152326602Y-99089000D02*
X152326602Y-95445000D01*
X150006602Y-97090000D02*
X150006602Y-96852000D01*
X151126602Y-97090000D02*
X151126602Y-95959000D01*
X151566602Y-104933000D02*
X151566602Y-101571000D01*
X150366602Y-97090000D02*
X150366602Y-96506000D01*
X151486602Y-97090000D02*
X151486602Y-95766000D01*
X150526602Y-97090000D02*
X150526602Y-96373000D01*
X151526602Y-104914000D02*
X151526602Y-101571000D01*
X151766602Y-105020000D02*
X151766602Y-101571000D01*
X153687602Y-105410000D02*
X153687602Y-95250000D01*
X151166602Y-97090000D02*
X151166602Y-95935000D01*
X149366602Y-102975000D02*
X149366602Y-99570000D01*
X151566602Y-97090000D02*
X151566602Y-95727000D01*
X149566602Y-103275000D02*
X149566602Y-99570000D01*
X150806602Y-104496000D02*
X150806602Y-101571000D01*
X152006602Y-105113000D02*
X152006602Y-101571000D01*
X149806602Y-103584000D02*
X149806602Y-99570000D01*
X150926602Y-104577000D02*
X150926602Y-101571000D01*
X152006602Y-99089000D02*
X152006602Y-95547000D01*
X151286602Y-104792000D02*
X151286602Y-101571000D01*
X150686602Y-104410000D02*
X150686602Y-101571000D01*
X149406602Y-103039000D02*
X149406602Y-99570000D01*
X150606602Y-97090000D02*
X150606602Y-96310000D01*
X150646602Y-97090000D02*
X150646602Y-96280000D01*
X150126602Y-97090000D02*
X150126602Y-96729000D01*
X152406602Y-99089000D02*
X152406602Y-95423000D01*
X150246602Y-97090000D02*
X150246602Y-96614000D01*
X152286602Y-99089000D02*
X152286602Y-95456000D01*
X151366602Y-97090000D02*
X151366602Y-95826000D01*
X149886602Y-103677000D02*
X149886602Y-99570000D01*
X152606602Y-105286000D02*
X152606602Y-95374000D01*
X151886602Y-105068000D02*
X151886602Y-101571000D01*
X150486602Y-97090000D02*
X150486602Y-96405000D01*
X153327602Y-105395000D02*
X153327602Y-95265000D01*
X149126602Y-102539000D02*
X149126602Y-98121000D01*
X150966602Y-104603000D02*
X150966602Y-101571000D01*
X149846602Y-103631000D02*
X149846602Y-99570000D01*
X149646602Y-103384000D02*
X149646602Y-99570000D01*
X149726602Y-103486000D02*
X149726602Y-99570000D01*
X149966602Y-103766000D02*
X149966602Y-99570000D01*
X150086602Y-97090000D02*
X150086602Y-96769000D01*
X148806602Y-101708000D02*
X148806602Y-98952000D01*
X152446602Y-105248000D02*
X152446602Y-101571000D01*
X152126602Y-99089000D02*
X152126602Y-95506000D01*
X151966602Y-105098000D02*
X151966602Y-101571000D01*
X149686602Y-103436000D02*
X149686602Y-99570000D01*
X150966602Y-97090000D02*
X150966602Y-96057000D01*
X151166602Y-104725000D02*
X151166602Y-101571000D01*
X153407602Y-105400000D02*
X153407602Y-95260000D01*
X149926602Y-103722000D02*
X149926602Y-99570000D01*
X150726602Y-104440000D02*
X150726602Y-101571000D01*
X149086602Y-102455000D02*
X149086602Y-98205000D01*
X152846602Y-105334000D02*
X152846602Y-95326000D01*
X151806602Y-105037000D02*
X151806602Y-101571000D01*
X152366602Y-99089000D02*
X152366602Y-95433000D01*
X152046602Y-99089000D02*
X152046602Y-95533000D01*
X151246602Y-104770000D02*
X151246602Y-101571000D01*
X150486602Y-104255000D02*
X150486602Y-101571000D01*
X151766602Y-97090000D02*
X151766602Y-95640000D01*
X150726602Y-97090000D02*
X150726602Y-96220000D01*
X150806602Y-97090000D02*
X150806602Y-96164000D01*
X150046602Y-103850000D02*
X150046602Y-101571000D01*
X150046602Y-97090000D02*
X150046602Y-96810000D01*
X151726602Y-105004000D02*
X151726602Y-101571000D01*
X151446602Y-104875000D02*
X151446602Y-101571000D01*
X152766602Y-105320000D02*
X152766602Y-95340000D01*
X152806602Y-105327000D02*
X152806602Y-95333000D01*
X151206602Y-97090000D02*
X151206602Y-95913000D01*
X149806602Y-97090000D02*
X149806602Y-97076000D01*
X158707248Y-103705000D02*
X158707248Y-102705000D01*
X153607602Y-105409000D02*
X153607602Y-95251000D01*
X150326602Y-104119000D02*
X150326602Y-101571000D01*
X152926602Y-105348000D02*
X152926602Y-95312000D01*
X151206602Y-104747000D02*
X151206602Y-101571000D01*
X152166602Y-99089000D02*
X152166602Y-95493000D01*
X150686602Y-97090000D02*
X150686602Y-96250000D01*
X153006602Y-105360000D02*
X153006602Y-95300000D01*
X149246602Y-102769000D02*
X149246602Y-97891000D01*
X149886602Y-97090000D02*
X149886602Y-96983000D01*
X152286602Y-105204000D02*
X152286602Y-101571000D01*
X151806602Y-99089000D02*
X151806602Y-95623000D01*
X150766602Y-97090000D02*
X150766602Y-96192000D01*
X158552506Y-102043098D02*
G75*
G03*
X157675614Y-103590000I-4824904J1713098D01*
G01*
%TO.C,R12*%
X129439641Y-86560000D02*
X129132359Y-86560000D01*
X129439641Y-87320000D02*
X129132359Y-87320000D01*
%TO.C,R6*%
X134519641Y-86560000D02*
X134212359Y-86560000D01*
X134519641Y-87320000D02*
X134212359Y-87320000D01*
%TO.C,J8*%
X118050000Y-112268000D02*
X118050000Y-110938000D01*
X118050000Y-113538000D02*
X118050000Y-116138000D01*
X118050000Y-113538000D02*
X120710000Y-113538000D01*
X118050000Y-110938000D02*
X119380000Y-110938000D01*
X118050000Y-116138000D02*
X120710000Y-116138000D01*
X120710000Y-113538000D02*
X120710000Y-116138000D01*
%TD*%
%LPC*%
%TO.C,REF\u002A\u002A*%
G36*
X111252000Y-114902051D02*
G01*
X117252150Y-114902051D01*
X117252150Y-127508000D01*
X111252000Y-127508000D01*
X111252000Y-127007771D01*
X111757409Y-127007771D01*
X114353114Y-127007741D01*
X114476689Y-127004465D01*
X114598627Y-126995059D01*
X114718778Y-126979673D01*
X114836991Y-126958456D01*
X114953118Y-126931558D01*
X115067008Y-126899130D01*
X115178511Y-126861321D01*
X115287477Y-126818281D01*
X115393757Y-126770160D01*
X115497200Y-126717107D01*
X115597657Y-126659274D01*
X115694978Y-126596809D01*
X115789012Y-126529863D01*
X115879611Y-126458586D01*
X115966623Y-126383127D01*
X116049900Y-126303636D01*
X116129291Y-126220264D01*
X116204646Y-126133160D01*
X116275816Y-126042474D01*
X116342650Y-125948356D01*
X116404999Y-125850957D01*
X116462713Y-125750425D01*
X116515641Y-125646911D01*
X116563635Y-125540565D01*
X116606543Y-125431536D01*
X116644217Y-125319975D01*
X116676506Y-125206032D01*
X116703261Y-125089856D01*
X116724331Y-124971597D01*
X116739566Y-124851406D01*
X116748818Y-124729431D01*
X116751935Y-124605824D01*
X116751935Y-122013219D01*
X112434886Y-122013219D01*
X112432286Y-122015820D01*
X113446177Y-123029194D01*
X115741645Y-123029194D01*
X115741645Y-124607907D01*
X115739835Y-124679567D01*
X115734465Y-124750278D01*
X115725622Y-124819953D01*
X115713392Y-124888506D01*
X115697863Y-124955848D01*
X115679122Y-125021893D01*
X115657256Y-125086555D01*
X115632352Y-125149746D01*
X115604499Y-125211379D01*
X115573781Y-125271368D01*
X115540288Y-125329625D01*
X115504105Y-125386064D01*
X115465321Y-125440597D01*
X115424022Y-125493138D01*
X115380295Y-125543599D01*
X115334229Y-125591894D01*
X115285908Y-125637935D01*
X115235422Y-125681637D01*
X115182857Y-125722911D01*
X115128301Y-125761671D01*
X115071840Y-125797830D01*
X115013561Y-125831300D01*
X114953553Y-125861996D01*
X114891901Y-125889830D01*
X114828693Y-125914715D01*
X114764017Y-125936564D01*
X114697959Y-125955290D01*
X114630607Y-125970807D01*
X114562047Y-125983026D01*
X114492368Y-125991862D01*
X114421656Y-125997228D01*
X114349997Y-125999035D01*
X112769732Y-125999035D01*
X112769732Y-124451329D01*
X112772332Y-124448231D01*
X113551097Y-125219761D01*
X114255446Y-124514378D01*
X112770783Y-123028164D01*
X111757409Y-122013241D01*
X111757409Y-127007771D01*
X111252000Y-127007771D01*
X111252000Y-119501256D01*
X111751710Y-119501256D01*
X111751710Y-120263486D01*
X112831231Y-120263486D01*
X112831231Y-120690846D01*
X111751710Y-120690846D01*
X111751710Y-121456174D01*
X114709668Y-121456174D01*
X114709668Y-121389508D01*
X114932923Y-121389508D01*
X116746250Y-121130612D01*
X116746250Y-120413342D01*
X116147389Y-120309703D01*
X115940530Y-120275151D01*
X115795404Y-120252110D01*
X115926843Y-120232774D01*
X116054690Y-120212701D01*
X116178944Y-120191892D01*
X116299602Y-120170351D01*
X116416664Y-120148080D01*
X116530127Y-120125084D01*
X116639990Y-120101364D01*
X116746250Y-120076924D01*
X116746250Y-119355519D01*
X116746249Y-119355519D01*
X114932924Y-119097653D01*
X114932924Y-119659375D01*
X115090769Y-119686390D01*
X115249548Y-119711441D01*
X115409250Y-119734530D01*
X115569864Y-119755658D01*
X115731380Y-119774828D01*
X115893784Y-119792041D01*
X116057068Y-119807300D01*
X116221218Y-119820607D01*
X115531336Y-119884686D01*
X115299454Y-119907803D01*
X115122375Y-119926001D01*
X115000174Y-119939304D01*
X114932923Y-119947735D01*
X114932923Y-120548215D01*
X115120684Y-120578680D01*
X115299250Y-120606130D01*
X115468616Y-120630573D01*
X115628778Y-120652014D01*
X115779732Y-120670461D01*
X115921471Y-120685919D01*
X116053993Y-120698396D01*
X116177292Y-120707898D01*
X115565443Y-120766804D01*
X114932923Y-120827786D01*
X114932923Y-121389508D01*
X114709668Y-121389508D01*
X114709668Y-120690846D01*
X113662703Y-120690846D01*
X113662703Y-120263486D01*
X114709668Y-120263486D01*
X114709668Y-119501256D01*
X111751710Y-119501256D01*
X111252000Y-119501256D01*
X111252000Y-116568104D01*
X111751710Y-116568104D01*
X111751710Y-119253209D01*
X112548043Y-119253216D01*
X112548043Y-118829457D01*
X114932923Y-118829457D01*
X116746249Y-118829457D01*
X116746249Y-117801098D01*
X116383481Y-117801098D01*
X116383481Y-118251202D01*
X115984539Y-118251202D01*
X115984539Y-117801098D01*
X115639857Y-117801098D01*
X115639857Y-118251202D01*
X115295692Y-118251202D01*
X115295692Y-117801098D01*
X114932923Y-117801098D01*
X114932923Y-118829457D01*
X112548043Y-118829457D01*
X112548043Y-118636197D01*
X114709668Y-118636197D01*
X114709668Y-117873967D01*
X112548043Y-117873967D01*
X112548043Y-117456929D01*
X114932923Y-117456929D01*
X116746249Y-117456929D01*
X116746249Y-116878667D01*
X114932923Y-116878667D01*
X114932923Y-117456929D01*
X112548043Y-117456929D01*
X112548043Y-117376324D01*
X111751710Y-116568104D01*
X111252000Y-116568104D01*
X111252000Y-116279225D01*
X111803399Y-116279225D01*
X112565627Y-117041455D01*
X114709681Y-117041455D01*
X114709681Y-116567059D01*
X114932923Y-116567059D01*
X115295692Y-116567059D01*
X115295692Y-116109723D01*
X116483216Y-116614087D01*
X116746249Y-116614087D01*
X116746249Y-115488576D01*
X116383481Y-115488576D01*
X116383481Y-115981053D01*
X115295692Y-115488576D01*
X114932923Y-115488576D01*
X114932923Y-116567059D01*
X114709681Y-116567059D01*
X114709681Y-115401761D01*
X113986211Y-115401761D01*
X113986211Y-116279225D01*
X111803399Y-116279225D01*
X111252000Y-116279225D01*
X111252000Y-114902051D01*
G37*
%TD*%
D15*
%TO.C,R23*%
X124716000Y-88464000D03*
X123696000Y-88464000D03*
%TD*%
D16*
%TO.C,J3*%
X142360000Y-114808000D03*
D17*
X142360000Y-112268000D03*
%TD*%
D18*
%TO.C,R4*%
X135636000Y-84654000D03*
X135636000Y-85674000D03*
%TD*%
%TO.C,R18*%
X128016000Y-84654000D03*
X128016000Y-85674000D03*
%TD*%
D19*
%TO.C,C6*%
X133367602Y-100330000D03*
X134039746Y-102330000D03*
D20*
X128367602Y-100330000D03*
X127695458Y-98330000D03*
%TD*%
D15*
%TO.C,R13*%
X129796000Y-88464000D03*
X128776000Y-88464000D03*
%TD*%
D21*
%TO.C,C1*%
X149339000Y-87194000D03*
X150889000Y-87194000D03*
%TD*%
D16*
%TO.C,J4*%
X128011000Y-91440000D03*
D17*
X130551000Y-91440000D03*
%TD*%
D16*
%TO.C,TP1*%
X124460000Y-114813000D03*
D17*
X124460000Y-112273000D03*
%TD*%
D15*
%TO.C,R22*%
X124716000Y-86940000D03*
X123696000Y-86940000D03*
%TD*%
D16*
%TO.C,J5*%
X134740000Y-114808000D03*
D17*
X134740000Y-112268000D03*
%TD*%
D18*
%TO.C,R8*%
X133096000Y-84654000D03*
X133096000Y-85674000D03*
%TD*%
D15*
%TO.C,R19*%
X127256000Y-86940000D03*
X126236000Y-86940000D03*
%TD*%
%TO.C,R20*%
X127256000Y-88464000D03*
X126236000Y-88464000D03*
%TD*%
D18*
%TO.C,R14*%
X133096000Y-90930000D03*
X133096000Y-91950000D03*
%TD*%
%TO.C,R11*%
X130556000Y-84654000D03*
X130556000Y-85674000D03*
%TD*%
D22*
%TO.C,R1*%
X153670000Y-81280000D03*
D23*
X153670000Y-91440000D03*
%TD*%
D18*
%TO.C,R21*%
X125476000Y-84654000D03*
X125476000Y-85674000D03*
%TD*%
D16*
%TO.C,TP5*%
X154940000Y-114808000D03*
D17*
X154940000Y-112268000D03*
%TD*%
D16*
%TO.C,J6*%
X123207602Y-101279000D03*
D17*
X123207602Y-98739000D03*
%TD*%
D16*
%TO.C,J7*%
X127120000Y-114808000D03*
D17*
X127120000Y-112268000D03*
%TD*%
D15*
%TO.C,R7*%
X134878000Y-88464000D03*
X133858000Y-88464000D03*
%TD*%
D22*
%TO.C,R15*%
X142240000Y-81280000D03*
D23*
X142240000Y-91440000D03*
%TD*%
D16*
%TO.C,TP2*%
X132080000Y-114808000D03*
D17*
X132080000Y-112268000D03*
%TD*%
D16*
%TO.C,TP4*%
X147320000Y-114813000D03*
D17*
X147320000Y-112273000D03*
%TD*%
D18*
%TO.C,R3*%
X150368000Y-84652000D03*
X150368000Y-85672000D03*
%TD*%
%TO.C,R17*%
X144780000Y-84652000D03*
X144780000Y-85672000D03*
%TD*%
%TO.C,R5*%
X135636000Y-89732000D03*
X135636000Y-90752000D03*
%TD*%
D16*
%TO.C,TP3*%
X139700000Y-114813000D03*
D17*
X139700000Y-112273000D03*
%TD*%
D19*
%TO.C,C4*%
X145469746Y-102330000D03*
X144797602Y-100330000D03*
D20*
X139797602Y-100330000D03*
X139125458Y-98330000D03*
%TD*%
D15*
%TO.C,R9*%
X132336000Y-86940000D03*
X131316000Y-86940000D03*
%TD*%
%TO.C,R10*%
X132336000Y-88464000D03*
X131316000Y-88464000D03*
%TD*%
D18*
%TO.C,R24*%
X122936000Y-84654000D03*
X122936000Y-85674000D03*
%TD*%
D24*
%TO.C,C3*%
X146571000Y-87194000D03*
X145021000Y-87194000D03*
%TD*%
D21*
%TO.C,C5*%
X122432602Y-95686000D03*
X123982602Y-95686000D03*
%TD*%
D18*
%TO.C,R2*%
X149098000Y-84652000D03*
X149098000Y-85672000D03*
%TD*%
D16*
%TO.C,J2*%
X149980000Y-114808000D03*
D17*
X149980000Y-112268000D03*
%TD*%
D16*
%TO.C,J1*%
X157600000Y-114808000D03*
D17*
X157600000Y-112268000D03*
%TD*%
D18*
%TO.C,R16*%
X146050000Y-84652000D03*
X146050000Y-85672000D03*
%TD*%
D19*
%TO.C,C2*%
X156227602Y-100330000D03*
X156899746Y-102330000D03*
D20*
X150555458Y-98330000D03*
X151227602Y-100330000D03*
%TD*%
D15*
%TO.C,R12*%
X129796000Y-86940000D03*
X128776000Y-86940000D03*
%TD*%
%TO.C,R6*%
X134876000Y-86940000D03*
X133856000Y-86940000D03*
%TD*%
D16*
%TO.C,J8*%
X119380000Y-112268000D03*
D17*
X119380000Y-114808000D03*
%TD*%
D25*
%TO.C,A1*%
X121920000Y-127000000D03*
D23*
X124460000Y-127000000D03*
X127000000Y-127000000D03*
X129540000Y-127000000D03*
X132080000Y-127000000D03*
X134620000Y-127000000D03*
X137160000Y-127000000D03*
X139700000Y-127000000D03*
X144780000Y-127000000D03*
X147320000Y-127000000D03*
X149860000Y-127000000D03*
X152400000Y-127000000D03*
X154940000Y-127000000D03*
X157480000Y-127000000D03*
X157480000Y-78740000D03*
X154940000Y-78740000D03*
X152400000Y-78740000D03*
X149860000Y-78740000D03*
X147320000Y-78740000D03*
X144780000Y-78740000D03*
X142240000Y-78740000D03*
X139700000Y-78740000D03*
X135640000Y-78740000D03*
X133100000Y-78740000D03*
X130560000Y-78740000D03*
X128020000Y-78740000D03*
X125480000Y-78740000D03*
X122940000Y-78740000D03*
X120400000Y-78740000D03*
X117860000Y-78740000D03*
X115320000Y-78740000D03*
X112780000Y-78740000D03*
%TD*%
M02*
