%TF.GenerationSoftware,KiCad,Pcbnew,(6.0.11)*%
%TF.CreationDate,2023-02-17T00:37:41+01:00*%
%TF.ProjectId,dac-shield,6461632d-7368-4696-956c-642e6b696361,rev.0*%
%TF.SameCoordinates,Original*%
%TF.FileFunction,Legend,Bot*%
%TF.FilePolarity,Positive*%
%FSLAX46Y46*%
G04 Gerber Fmt 4.6, Leading zero omitted, Abs format (unit mm)*
G04 Created by KiCad (PCBNEW (6.0.11)) date 2023-02-17 00:37:41*
%MOMM*%
%LPD*%
G01*
G04 APERTURE LIST*
%ADD10C,0.120000*%
%ADD11C,1.400000*%
%ADD12R,1.700000X1.700000*%
%ADD13O,1.700000X1.700000*%
%ADD14R,2.000000X2.000000*%
%ADD15C,2.000000*%
%ADD16C,1.600000*%
%ADD17O,1.600000X1.600000*%
%ADD18R,1.600000X1.600000*%
G04 APERTURE END LIST*
D10*
%TO.C,A1*%
X93850000Y-117350000D02*
X93850000Y-97280000D01*
X87500000Y-97280000D02*
X87500000Y-85600000D01*
X91950000Y-117350000D02*
X93850000Y-117350000D01*
X93850000Y-97280000D02*
X87500000Y-97280000D01*
X91950000Y-126490000D02*
X91950000Y-117350000D01*
X93850000Y-85600000D02*
X93850000Y-76070000D01*
X160150000Y-129670000D02*
X93850000Y-129670000D01*
X162690000Y-91690000D02*
X162690000Y-124460000D01*
X93850000Y-126490000D02*
X91950000Y-126490000D01*
X93850000Y-76070000D02*
X158500000Y-76070000D01*
X93850000Y-129670000D02*
X93850000Y-126490000D01*
X87500000Y-85600000D02*
X93850000Y-85600000D01*
X160150000Y-77720000D02*
X160150000Y-89150000D01*
X160150000Y-127000000D02*
X160150000Y-129670000D01*
X158500000Y-76070000D02*
X160150000Y-77720000D01*
X160150000Y-89150000D02*
X162690000Y-91690000D01*
X162690000Y-124460000D02*
X160150000Y-127000000D01*
%TD*%
%LPC*%
D11*
%TO.C,TP5*%
X154940000Y-114808000D03*
X154940000Y-112268000D03*
%TD*%
%TO.C,TP4*%
X147320000Y-112268000D03*
X147320000Y-114808000D03*
%TD*%
%TO.C,TP3*%
X139700000Y-114808000D03*
X139700000Y-112268000D03*
%TD*%
%TO.C,TP2*%
X132080000Y-114808000D03*
X132080000Y-112268000D03*
%TD*%
%TO.C,TP1*%
X124460000Y-114808000D03*
X124460000Y-112268000D03*
%TD*%
D12*
%TO.C,J3*%
X142360000Y-114808000D03*
D13*
X142360000Y-112268000D03*
%TD*%
D14*
%TO.C,C6*%
X133367602Y-100330000D03*
X134039746Y-102330000D03*
D15*
X128367602Y-100330000D03*
X127695458Y-98330000D03*
%TD*%
D12*
%TO.C,J4*%
X128011000Y-91440000D03*
D13*
X130551000Y-91440000D03*
%TD*%
D12*
%TO.C,J5*%
X134740000Y-114808000D03*
D13*
X134740000Y-112268000D03*
%TD*%
D16*
%TO.C,R1*%
X153670000Y-81280000D03*
D17*
X153670000Y-91440000D03*
%TD*%
D12*
%TO.C,J6*%
X123207602Y-101279000D03*
D13*
X123207602Y-98739000D03*
%TD*%
D12*
%TO.C,J7*%
X127120000Y-114808000D03*
D13*
X127120000Y-112268000D03*
%TD*%
D16*
%TO.C,R15*%
X142240000Y-81280000D03*
D17*
X142240000Y-91440000D03*
%TD*%
D14*
%TO.C,C4*%
X145469746Y-102330000D03*
X144797602Y-100330000D03*
D15*
X139797602Y-100330000D03*
X139125458Y-98330000D03*
%TD*%
D12*
%TO.C,J2*%
X149980000Y-114808000D03*
D13*
X149980000Y-112268000D03*
%TD*%
D12*
%TO.C,J1*%
X157600000Y-114808000D03*
D13*
X157600000Y-112268000D03*
%TD*%
D14*
%TO.C,C2*%
X156227602Y-100330000D03*
X156899746Y-102330000D03*
D15*
X150555458Y-98330000D03*
X151227602Y-100330000D03*
%TD*%
D12*
%TO.C,J8*%
X119380000Y-112268000D03*
D13*
X119380000Y-114808000D03*
%TD*%
D18*
%TO.C,A1*%
X121920000Y-127000000D03*
D17*
X124460000Y-127000000D03*
X127000000Y-127000000D03*
X129540000Y-127000000D03*
X132080000Y-127000000D03*
X134620000Y-127000000D03*
X137160000Y-127000000D03*
X139700000Y-127000000D03*
X144780000Y-127000000D03*
X147320000Y-127000000D03*
X149860000Y-127000000D03*
X152400000Y-127000000D03*
X154940000Y-127000000D03*
X157480000Y-127000000D03*
X157480000Y-78740000D03*
X154940000Y-78740000D03*
X152400000Y-78740000D03*
X149860000Y-78740000D03*
X147320000Y-78740000D03*
X144780000Y-78740000D03*
X142240000Y-78740000D03*
X139700000Y-78740000D03*
X135640000Y-78740000D03*
X133100000Y-78740000D03*
X130560000Y-78740000D03*
X128020000Y-78740000D03*
X125480000Y-78740000D03*
X122940000Y-78740000D03*
X120400000Y-78740000D03*
X117860000Y-78740000D03*
X115320000Y-78740000D03*
X112780000Y-78740000D03*
%TD*%
M02*
