%TF.GenerationSoftware,KiCad,Pcbnew,(6.0.11)*%
%TF.CreationDate,2023-02-17T08:24:59+01:00*%
%TF.ProjectId,dac-shield,6461632d-7368-4696-956c-642e6b696361,rev.0*%
%TF.SameCoordinates,Original*%
%TF.FileFunction,Soldermask,Bot*%
%TF.FilePolarity,Negative*%
%FSLAX46Y46*%
G04 Gerber Fmt 4.6, Leading zero omitted, Abs format (unit mm)*
G04 Created by KiCad (PCBNEW (6.0.11)) date 2023-02-17 08:24:59*
%MOMM*%
%LPD*%
G01*
G04 APERTURE LIST*
%ADD10R,1.700000X1.700000*%
%ADD11O,1.700000X1.700000*%
%ADD12R,2.000000X2.000000*%
%ADD13C,2.000000*%
%ADD14C,1.600000*%
%ADD15O,1.600000X1.600000*%
%ADD16R,1.600000X1.600000*%
G04 APERTURE END LIST*
%TO.C,REF\u002A\u002A*%
G36*
X127176026Y-124029075D02*
G01*
X127176026Y-123528860D01*
X134287194Y-123528860D01*
X136879799Y-123528860D01*
X137003406Y-123525743D01*
X137125381Y-123516491D01*
X137245572Y-123501256D01*
X137363831Y-123480186D01*
X137480007Y-123453431D01*
X137593950Y-123421142D01*
X137705511Y-123383468D01*
X137814540Y-123340560D01*
X137920886Y-123292566D01*
X138024400Y-123239638D01*
X138124932Y-123181924D01*
X138222331Y-123119575D01*
X138316449Y-123052741D01*
X138407135Y-122981571D01*
X138494239Y-122906216D01*
X138577611Y-122826825D01*
X138657102Y-122743548D01*
X138732561Y-122656536D01*
X138803838Y-122565937D01*
X138870784Y-122471903D01*
X138933249Y-122374582D01*
X138991082Y-122274125D01*
X139044135Y-122170682D01*
X139092256Y-122064402D01*
X139135296Y-121955436D01*
X139173105Y-121843933D01*
X139205533Y-121730043D01*
X139232431Y-121613916D01*
X139253648Y-121495703D01*
X139269034Y-121375552D01*
X139278440Y-121253614D01*
X139281716Y-121130039D01*
X139281746Y-118534334D01*
X134287216Y-118534334D01*
X135302139Y-119547708D01*
X136788353Y-121032371D01*
X137493736Y-120328022D01*
X136722206Y-119549257D01*
X136725304Y-119546657D01*
X138273010Y-119546657D01*
X138273010Y-121126922D01*
X138271203Y-121198581D01*
X138265837Y-121269293D01*
X138257001Y-121338972D01*
X138244782Y-121407532D01*
X138229265Y-121474884D01*
X138210539Y-121540942D01*
X138188690Y-121605618D01*
X138163805Y-121668826D01*
X138135971Y-121730478D01*
X138105275Y-121790486D01*
X138071805Y-121848765D01*
X138035646Y-121905226D01*
X137996886Y-121959782D01*
X137955612Y-122012347D01*
X137911910Y-122062833D01*
X137865869Y-122111154D01*
X137817574Y-122157220D01*
X137767113Y-122200947D01*
X137714572Y-122242246D01*
X137660039Y-122281030D01*
X137603600Y-122317213D01*
X137545343Y-122350706D01*
X137485354Y-122381424D01*
X137423721Y-122409277D01*
X137360530Y-122434181D01*
X137295868Y-122456047D01*
X137229823Y-122474788D01*
X137162481Y-122490317D01*
X137093928Y-122502547D01*
X137024253Y-122511390D01*
X136953542Y-122516760D01*
X136881882Y-122518570D01*
X135303169Y-122518570D01*
X135303169Y-120223102D01*
X134289795Y-119209211D01*
X134287194Y-119211811D01*
X134287194Y-123528860D01*
X127176026Y-123528860D01*
X127176026Y-123523174D01*
X127762551Y-123523174D01*
X131103432Y-123523174D01*
X131103432Y-121709849D01*
X131371628Y-121709849D01*
X131629494Y-123523174D01*
X131629494Y-123523175D01*
X132350899Y-123523175D01*
X132375339Y-123416915D01*
X132399059Y-123307052D01*
X132422055Y-123193589D01*
X132444326Y-123076527D01*
X132465867Y-122955869D01*
X132486676Y-122831615D01*
X132506749Y-122703768D01*
X132526085Y-122572329D01*
X132549126Y-122717455D01*
X132583678Y-122924314D01*
X132687317Y-123523175D01*
X133404587Y-123523175D01*
X133663483Y-121709848D01*
X133101761Y-121709848D01*
X133040779Y-122342368D01*
X132981873Y-122954217D01*
X132972371Y-122830918D01*
X132959894Y-122698396D01*
X132944436Y-122556657D01*
X132925989Y-122405703D01*
X132904548Y-122245541D01*
X132880105Y-122076175D01*
X132852655Y-121897609D01*
X132822190Y-121709848D01*
X132221710Y-121709848D01*
X132213279Y-121777099D01*
X132199976Y-121899300D01*
X132181778Y-122076379D01*
X132158661Y-122308261D01*
X132094582Y-122998143D01*
X132081275Y-122833993D01*
X132066016Y-122670709D01*
X132048803Y-122508305D01*
X132029633Y-122346789D01*
X132008505Y-122186175D01*
X131985416Y-122026473D01*
X131960365Y-121867694D01*
X131933350Y-121709849D01*
X131371628Y-121709849D01*
X131103432Y-121709849D01*
X131103432Y-121709848D01*
X130075073Y-121709848D01*
X130075073Y-122072617D01*
X130525177Y-122072617D01*
X130525177Y-122416782D01*
X130075073Y-122416782D01*
X130075073Y-122761464D01*
X130525177Y-122761464D01*
X130525177Y-123160406D01*
X130075073Y-123160406D01*
X130075073Y-123523174D01*
X129730904Y-123523174D01*
X129730904Y-121709848D01*
X129152642Y-121709848D01*
X129152642Y-123523174D01*
X128888062Y-123523174D01*
X128888062Y-123260141D01*
X128383698Y-122072617D01*
X128841034Y-122072617D01*
X128841034Y-121709848D01*
X127762551Y-121709848D01*
X127762551Y-122072617D01*
X128255028Y-123160406D01*
X127762551Y-123160406D01*
X127762551Y-123523174D01*
X127176026Y-123523174D01*
X127176026Y-121486606D01*
X127675736Y-121486606D01*
X129315430Y-121486606D01*
X129315430Y-119342552D01*
X128553200Y-118580324D01*
X128553200Y-120763136D01*
X127675736Y-120763136D01*
X127675736Y-121486606D01*
X127176026Y-121486606D01*
X127176026Y-118528635D01*
X128842079Y-118528635D01*
X129650299Y-119324968D01*
X130147942Y-119324968D01*
X130147942Y-121486593D01*
X130910172Y-121486593D01*
X131775231Y-121486593D01*
X132537461Y-121486593D01*
X132537461Y-120439628D01*
X132964821Y-120439628D01*
X132964821Y-121486593D01*
X133730149Y-121486593D01*
X133730149Y-118528635D01*
X132964821Y-118528635D01*
X132964821Y-119608156D01*
X132537461Y-119608156D01*
X132537461Y-118528635D01*
X131775231Y-118528635D01*
X131775231Y-121486593D01*
X130910172Y-121486593D01*
X130910172Y-119324968D01*
X131527191Y-119324968D01*
X131527184Y-118528635D01*
X128842079Y-118528635D01*
X127176026Y-118528635D01*
X127176026Y-118028925D01*
X139781975Y-118028925D01*
X139781975Y-124029075D01*
X127176026Y-124029075D01*
G37*
%TD*%
D10*
%TO.C,J3*%
X142360000Y-114808000D03*
D11*
X142360000Y-112268000D03*
%TD*%
D12*
%TO.C,C6*%
X133367602Y-100330000D03*
X134039746Y-102330000D03*
D13*
X128367602Y-100330000D03*
X127695458Y-98330000D03*
%TD*%
D10*
%TO.C,J4*%
X128011000Y-91440000D03*
D11*
X130551000Y-91440000D03*
%TD*%
D10*
%TO.C,TP1*%
X124460000Y-114813000D03*
D11*
X124460000Y-112273000D03*
%TD*%
D10*
%TO.C,J5*%
X134740000Y-114808000D03*
D11*
X134740000Y-112268000D03*
%TD*%
D14*
%TO.C,R1*%
X153670000Y-81280000D03*
D15*
X153670000Y-91440000D03*
%TD*%
D10*
%TO.C,TP5*%
X154940000Y-114808000D03*
D11*
X154940000Y-112268000D03*
%TD*%
D10*
%TO.C,J6*%
X123207602Y-101279000D03*
D11*
X123207602Y-98739000D03*
%TD*%
D10*
%TO.C,J7*%
X127120000Y-114808000D03*
D11*
X127120000Y-112268000D03*
%TD*%
D14*
%TO.C,R15*%
X142240000Y-81280000D03*
D15*
X142240000Y-91440000D03*
%TD*%
D10*
%TO.C,TP2*%
X132080000Y-114808000D03*
D11*
X132080000Y-112268000D03*
%TD*%
D10*
%TO.C,TP4*%
X147320000Y-114813000D03*
D11*
X147320000Y-112273000D03*
%TD*%
D10*
%TO.C,TP3*%
X139700000Y-114813000D03*
D11*
X139700000Y-112273000D03*
%TD*%
D12*
%TO.C,C4*%
X145469746Y-102330000D03*
X144797602Y-100330000D03*
D13*
X139797602Y-100330000D03*
X139125458Y-98330000D03*
%TD*%
D10*
%TO.C,J2*%
X149980000Y-114808000D03*
D11*
X149980000Y-112268000D03*
%TD*%
D10*
%TO.C,J1*%
X157600000Y-114808000D03*
D11*
X157600000Y-112268000D03*
%TD*%
D12*
%TO.C,C2*%
X156227602Y-100330000D03*
X156899746Y-102330000D03*
D13*
X150555458Y-98330000D03*
X151227602Y-100330000D03*
%TD*%
D10*
%TO.C,J8*%
X119380000Y-112268000D03*
D11*
X119380000Y-114808000D03*
%TD*%
D16*
%TO.C,A1*%
X121920000Y-127000000D03*
D15*
X124460000Y-127000000D03*
X127000000Y-127000000D03*
X129540000Y-127000000D03*
X132080000Y-127000000D03*
X134620000Y-127000000D03*
X137160000Y-127000000D03*
X139700000Y-127000000D03*
X144780000Y-127000000D03*
X147320000Y-127000000D03*
X149860000Y-127000000D03*
X152400000Y-127000000D03*
X154940000Y-127000000D03*
X157480000Y-127000000D03*
X157480000Y-78740000D03*
X154940000Y-78740000D03*
X152400000Y-78740000D03*
X149860000Y-78740000D03*
X147320000Y-78740000D03*
X144780000Y-78740000D03*
X142240000Y-78740000D03*
X139700000Y-78740000D03*
X135640000Y-78740000D03*
X133100000Y-78740000D03*
X130560000Y-78740000D03*
X128020000Y-78740000D03*
X125480000Y-78740000D03*
X122940000Y-78740000D03*
X120400000Y-78740000D03*
X117860000Y-78740000D03*
X115320000Y-78740000D03*
X112780000Y-78740000D03*
%TD*%
M02*
